<?xml version="1.0" encoding="UTF-8"?><svg id="Layer_2" xmlns="http://www.w3.org/2000/svg" viewBox="0 0 166.61 174.08"><defs><style>.cls-1{fill:#378992;}.cls-2{fill:#c7e2c8;}.cls-3{fill:#feffff;}.cls-4{fill:#f9a21e;}.cls-5{fill:#c8e3cb;}.cls-6{fill:#2c848e;}</style></defs><g id="Layer_1-2"><path class="cls-5" d="M23.31,124.09s17.13-2.71,28.54,2.06,39.8,19.5,55.55,16.09,34.01-13.12,34.01-13.12c0,0,3.95,38.85-26.17,38.5s-53.31-8.34-71.68-4.82-26.02-32.76-20.25-38.72Z"/><circle class="cls-5" cx="104.64" cy="70.13" r="53.96"/><path d="M166.61,37.82c-8-8.24-27.52-6.43-32.67,10.38,5.04,4.66,11.34,4.54,17.31,4.26,3.64,7.69,3.92,15.54,3.52,23.44-.02,.31-.03,.61-.06,.92,0,.08-.01,.15-.01,.23-.02,.15-.03,.3-.04,.45-.11,.82-.18,1.64-.31,2.46-.46,2.85-1.25,5.64-2.25,8.34-.36,.95-.74,1.89-1.14,2.83-.79,1.85-1.68,3.66-2.58,5.47-.15,.29-.29,.59-.44,.89-.12,.23-.27,.56-.64,.58-.54,.03-.69-1-.78-1.32-.24-.79-.47-1.59-.68-2.4-.51-1.94-.96-3.9-1.38-5.87-.61-2.76-1.1-5.54-1.83-8.27-.7-2.61-1.56-5.18-2.62-7.67-1.06-2.48-2.32-4.88-3.81-7.13-3.74-5.65-8.68-10.4-14.35-14.08-4.43-2.87-9.26-4.96-14.35-6.25-6.45-1.63-13.2-1.38-19.8-1.51-7.88-.16-15.73,.37-23.6,.58-6.64,.17-13.27-.23-19.9,.08-2.59,.13-5.17,.37-7.73,.8-9.63,1.62-19.02,6.34-25.76,13.46C3.79,65.8,.23,74.38,.04,84.35c-.08,4.06-.09,8.11,.6,12.2,.7,4.14,1.99,8,3.46,12.18,.04,.12,9.59-2.44,10.42-2.63,9.44-2.12,19.11-2.98,28.76-3.48,2.33-.12,4.69-.5,7.01-.14,2.71,.42,4.22,2.19,5.93,4.14,2.07,2.37,4.02,4.85,6.34,7,2.97,2.74,6.26,5.04,9.7,7.14,3.45,2.14,7.21,3.89,11.05,5.22,3.31,1.16,6.75,1.91,10.23,2.34,7.76,.95,15.75,.87,23.35-1.09,7.74-2,15.53-5.41,21.69-10.57,7.62-6.38,13.91-13.88,17.64-23.38,.65-1.64,1.22-3.31,1.71-5,1.09-3.71,1.82-7.52,2.28-11.36,.54-4.47,.44-9.01-.17-13.47-.47-3.35-1.23-6.66-2.3-9.87-.3-.91-.85-1.95-.87-2.92,0-.16-.08-.47,.08-.59,5.29-3.93,7.83-6.38,9.66-12.25ZM29.05,97.35c-.35,.62-1.41,.53-2.32,.7-5.1,.96-10.31,1.42-15.39,2.57-1.06,.24-2.14,.39-3.36,.6-.04,0-.22-.57-.24-.63-.16-.33-.25-.73-.36-1.08-.48-1.44-.79-2.96-.99-4.46-.47-3.39-.45-7.69-.33-11.1,.04-1.05,.31-2.17,1.52-2.35,8.68-1.34,18.18,5.85,21.5,15.14,.07,.2,.07,.42-.03,.61Zm47.7,15.74c-5.53-1.24-9.84-4.21-13.58-8.28,2.5,.7,4.98,1.51,7.52,2.05,2.46,.53,4.98,.76,7.93,1.19-.65,1.75-1.23,3.31-1.87,5.04Zm5.76-26.21c-.23,4.71-1.14,9.21-2.07,13.82-.21,1.01-2.63,.34-3.37,.22-1.05-.17-2.09-.4-3.15-.58-7.69-1.31-15.31-3.2-23.13-3.71-3.84-.24-7.69-.08-11.54-.05-.96,.01-1.92,.15-3.11,.25-.63-5.84-4.7-11-9.06-14.67-2.53-2.12-5.39-3.85-8.44-5.09-3.42-1.41-7-1.46-10.65-1.5-.75,0-.28-1.66-.13-2.03,.74-1.89,1.97-3.72,3.06-5.42,1.02-1.58,2.12-3.1,3.37-4.5,4.64-5.15,11.34-9.4,18.03-11.26,.48-.13,.94-.28,1.43-.39,6.79-1.53,13.78-1.81,20.72-1.94,6.8-.13,13.59-.55,20.39-.73,.58-.02,1.22-.02,1.67,.35,.05,.05,.11,.1,.16,.16,.27,.31,.4,.73,.52,1.14,1.06,3.69,2.23,7.37,3.06,11.13,.25,1.12,.48,2.24,.68,3.37,.44,2.35,.8,4.72,1.07,7.09,.54,4.76,.73,9.56,.49,14.34Zm37.05-1.59c-3.11,19.47-18.03,31.66-36.47,29.72-.37-.04-.11-1.05-.07-1.24,.21-1.04,.56-2.07,.91-3.08,.17-.48,.34-.97,.52-1.45,.18-.5,.26-1.1,.69-1.46,1.04-.86,2.64-.62,3.89-.7,.31-.02,.61-.05,.91-.07,2.9-.27,6.05-.9,8.21-3,.33-.32,.72-1.04,1.23-1.05,.34,0,.4,.5,.44,.75,.09,.58,.15,1.13,.12,1.72-.02,.36,0,.75,.22,1.04,.1,.14,.25,.25,.41,.31,.17,.07,.37,.08,.55,.04,.36-.09,.63-.39,.83-.7,.31-.51,.48-1.1,.57-1.7,.11-.79,.14-1.62,.03-2.41-.26-1.81-1.26-3.43-2.72-4.5-1.48-1.07-3.29-1.72-5.12-1.7-.53,0-.98,.37-1.08,.89-.1,.53,.2,1.05,.71,1.24,.67,.26,1.39,.4,2.07,.65,.31,.11,.33,.6,.06,.79-1.49,1.03-3.27,1.79-5.08,2.09-1.49,.24-3.01,.24-4.52,.15,.22-1.64,.39-3.28,.68-4.91,.01-.07,.03-.14,.04-.2,1.17-6.6,1.74-13.25,1.35-19.94-.37-6.52-1.5-12.99-3.35-19.25-.47-1.6-.98-3.19-1.54-4.76-.27-.77-.56-1.52-.82-2.28-.07-.19-.51-1.3-.06-1.3,1.42,.01,2.85,.07,4.27,.2,3.08,.28,6.15,.84,9.12,1.76,2.82,.88,5.56,2.1,8.01,3.77,2.03,1.37,4.16,2.8,5.7,4.65,2.49,3,4.96,6.06,6.52,9.77,1.33,3.19,2.11,6.49,2.74,9.83,.39,2.04,.36,4.26,.03,6.33Z"/><path class="cls-4" d="M78.62,108.05c-.65,1.75-1.23,3.31-1.87,5.04-5.53-1.24-9.84-4.21-13.58-8.28,2.5,.7,4.98,1.51,7.52,2.05,2.46,.53,4.98,.76,7.93,1.19Z"/><path class="cls-3" d="M119.53,78.96c-.63-3.34-1.41-6.64-2.74-9.83-1.56-3.71-4.03-6.77-6.52-9.77-1.54-1.85-3.67-3.28-5.7-4.65-2.45-1.67-5.19-2.89-8.01-3.77-2.97-.92-6.04-1.48-9.12-1.76-1.42-.13-2.85-.19-4.27-.2-.45,0-.01,1.11,.06,1.3,.26,.76,.55,1.51,.82,2.28,.56,1.57,1.07,3.16,1.54,4.76,1.85,6.26,2.98,12.73,3.35,19.25,.39,6.69-.18,13.34-1.35,19.94-.01,.06-.03,.13-.04,.2-.29,1.63-.46,3.27-.68,4.91,1.51,.09,3.03,.09,4.52-.15,1.81-.3,3.59-1.06,5.08-2.09,.27-.19,.25-.68-.06-.79-.68-.25-1.4-.39-2.07-.65-.51-.19-.81-.71-.71-1.24,.1-.52,.55-.89,1.08-.89,1.83-.02,3.64,.63,5.12,1.7,1.46,1.07,2.46,2.69,2.72,4.5,.11,.79,.08,1.62-.03,2.41-.09,.6-.26,1.19-.57,1.7-.2,.31-.47,.61-.83,.7-.18,.04-.38,.03-.55-.04-.16-.06-.31-.17-.41-.31-.21-.29-.24-.68-.22-1.04,.03-.59-.03-1.14-.12-1.72-.04-.25-.1-.75-.44-.75-.51,.01-.9,.73-1.23,1.05-2.16,2.1-5.31,2.73-8.21,3-.3,.02-.6,.05-.91,.07-1.25,.08-2.85-.16-3.89,.7-.43,.36-.51,.96-.69,1.46-.18,.48-.35,.97-.52,1.45-.35,1.01-.7,2.04-.91,3.08-.04,.19-.3,1.2,.07,1.24,18.44,1.94,33.36-10.25,36.47-29.72,.33-2.07,.36-4.29-.03-6.33Zm-11.69,3.05c-3.3-.95-6.48-1.71-9.55-.26-.83,.4-1.8,.04-2.14-.81-.35-.88-.33-1.94,.14-2.78,.56-.99,1.65-1.48,2.69-1.79,.98-.28,1.99-.5,3.01-.59,1.55-.13,3.15,.08,4.59,.69,.85,.36,1.7,.83,2.31,1.53,.52,.6,.84,1.43,.9,2.22,.07,1.08-.79,2.12-1.95,1.79Z"/><path class="cls-6" d="M29.05,97.35c-.35,.62-1.41,.53-2.32,.7-5.1,.96-10.31,1.42-15.39,2.57-1.06,.24-2.14,.39-3.36,.6-.04,0-.22-.57-.24-.63-.16-.33-.25-.73-.36-1.08-.48-1.44-.79-2.96-.99-4.46-.47-3.39-.45-7.69-.33-11.1,.04-1.05,.31-2.17,1.52-2.35,8.68-1.34,18.18,5.85,21.5,15.14,.07,.2,.07,.42-.03,.61Z"/><path class="cls-4" d="M82.02,72.54c-.27-2.37-.63-4.74-1.07-7.09-.2-1.13-.43-2.25-.68-3.37-.83-3.76-2-7.44-3.06-11.13-.12-.41-.25-.83-.52-1.14-.05-.06-.11-.11-.16-.16-.45-.37-1.09-.37-1.67-.35-6.8,.18-13.59,.6-20.39,.73-6.94,.13-13.93,.41-20.72,1.94-.49,.11-.95,.26-1.43,.39-6.69,1.86-13.39,6.11-18.03,11.26-1.25,1.4-2.35,2.92-3.37,4.5-1.09,1.7-2.32,3.53-3.06,5.42-.15,.37-.62,2.03,.13,2.03,3.65,.04,7.23,.09,10.65,1.5,3.05,1.24,5.91,2.97,8.44,5.09,4.36,3.67,8.43,8.83,9.06,14.67,1.19-.1,2.15-.24,3.11-.25,3.85-.03,7.7-.19,11.54,.05,7.82,.51,15.44,2.4,23.13,3.71,1.06,.18,2.1,.41,3.15,.58,.74,.12,3.16,.79,3.37-.22,.93-4.61,1.84-9.11,2.07-13.82,.24-4.78,.05-9.58-.49-14.34Zm-8.52-13.45s-.01,.03-.01,.05c-.37,1.32-1.48,2.08-2.53,1.68-3.33-1.27-5.81-1.27-9.14,0-1.04,.4-2.15-.36-2.52-1.68-.01-.02-.01-.04-.01-.05-.41-1.46,.23-3.06,1.38-3.51,4.19-1.61,7.26-1.61,11.44,0,1.16,.45,1.8,2.05,1.39,3.51Z"/><path d="M109.73,80.22c-.02,1.12-.54,2.17-1.89,1.79-3.3-.95-6.48-1.71-9.55-.26-.83,.4-1.8,.04-2.14-.81-.93-2.33,.66-3.89,2.77-4.57,2.1-.68,4.51-.88,6.67-.38,1.49,.34,3.05,1.24,3.79,2.63,.22,.42,.35,1.02,.34,1.6Z"/><path d="M73.5,59.09s-.01,.03-.01,.05c-.37,1.32-1.48,2.08-2.53,1.68-3.33-1.27-5.81-1.27-9.14,0-1.04,.4-2.15-.36-2.52-1.68-.01-.02-.01-.04-.01-.05-.41-1.46,.23-3.06,1.38-3.51,4.19-1.61,7.26-1.61,11.44,0,1.16,.45,1.8,2.05,1.39,3.51Z"/><path d="M120.26,14.93c-.05-.31-.1-.62-.17-.93-.6-2.9-1.68-5.73-3.41-8.14-1.67-2.31-3.87-4.19-6.35-5.58-.17-.1-.35-.19-.52-.28-3.77,3.07-6.15,6.7-7.32,11.11-.62,2.34-.6,2.32-2.83,2.49-3.36,.29-6.67,.49-9.96,1.25-6.7,1.54-13.79,4.05-18.89,8.82-3.48,3.25-6.21,6.77-7.63,11.59,.19-.65,1.73-1.62,2.24-2.07,.78-.69,1.58-1.36,2.4-2.01,1.6-1.28,3.27-2.47,5-3.57,3.4-2.16,7.02-3.95,10.8-5.33,4.42-1.61,9.04-2.64,13.72-3.14,1.17-.12,2.34-.22,3.52-.27,.62-.03,.94-.14,1.32,.36,.69,.92,.83,2.47,1.08,3.56,.09,.39,.16,.8,.3,1.17,1.53,4.09,4.39,8.03,8.26,10.18,.38,.21,.62,.2,.94-.1,.3-.28,1.39-1.12,1.67-1.41,4.54-4.64,6.84-11.23,5.84-17.68Z"/><path d="M147.98,8.37c-.18-.44-.44-.84-.87-1.09-.94-.57-2.16-.22-3.16-.03-1.13,.22-2.25,.5-3.35,.84-3.38,1.06-6.65,2.67-9.32,5.02-.04,.04-.08,.07-.12,.11-3.82,3.41-6.53,8.02-7.38,13.1-.64,3.8-.25,7.76,.12,11.57,0,.07,.07,1.06,.16,1.06,2.78,0,5.68-.04,8.35-.89,2.29-.72,4.46-1.82,6.41-3.21,4.24-3.02,7.34-7.44,8.87-12.41,.69-2.23,1.07-4.61,1.13-6.96,.03-1.22-.02-2.44-.16-3.66-.13-1.13-.25-2.38-.67-3.44Z"/><ellipse class="cls-2" cx="102.85" cy="83.31" rx="7.9" ry="3.62"/><g><path d="M117.08,16.65c.57,7.04-4.86,13.22-4.86,13.22,0,0-6.34-5.23-6.9-12.27s4.86-13.22,4.86-13.22c0,0,6.34,5.23,6.9,12.27Z"/><path class="cls-1" d="M115.19,18.21c.21,2.61-.46,5.07-1.23,6.93-.35,.84-1.41,.62-1.55-.31l-1.27-8.42,.09,8.52c.01,.95-1.01,1.33-1.48,.56-1.06-1.71-2.11-4.03-2.32-6.64-.45-5.55,3.08-10.36,3.08-10.36,0,0,4.24,4.19,4.69,9.73Z"/></g><g><path d="M141.76,26.89c-5.07,7.24-14.8,9.18-14.8,9.18,0,0-1.52-9.81,3.55-17.05,5.07-7.24,14.8-9.18,14.8-9.18,0,0,1.52,9.81-3.55,17.05Z"/><path class="cls-1" d="M138.84,26.99c-1.88,2.69-4.42,4.56-6.58,5.79-.98,.56-1.75-.45-1.14-1.47l5.53-9.11-6.66,8.32c-.74,.93-1.95,.54-1.77-.57,.41-2.45,1.3-5.48,3.18-8.17,3.99-5.71,10.95-7.74,10.95-7.74,0,0,.48,7.23-3.51,12.93Z"/></g><g><path d="M151.81,48.43c-6.76,2-13.92-2.03-13.92-2.03,0,0,3.81-7.27,10.58-9.27s13.92,2.03,13.92,2.03c0,0-3.81,7.27-10.58,9.27Z"/><path class="cls-1" d="M149.9,46.9c-2.51,.74-5.05,.59-7.02,.22-.89-.17-.9-1.25-.01-1.58l7.97-2.97-8.31,1.84c-.92,.2-1.51-.71-.85-1.33,1.46-1.39,3.5-2.89,6.01-3.64,5.33-1.58,10.76,.88,10.76,.88,0,0-3.22,5.01-8.55,6.58Z"/></g><g><path d="M40.59,128.29s-.08,0-.12-.01c.5,.08,.71,.12,.77,.12-.16-.03-.32-.06-.49-.09-.05,0-.11-.02-.16-.02Z"/><path d="M157.94,114.88c-2.06-1.81-4.95-1.79-6.98,.08-1.55,1.43-3.13,2.84-4.75,4.2-.77,.65-1.55,1.29-2.33,1.92-.36,.29-.72,.57-1.08,.86-.03,.02-.04,.03-.06,.05-.2,.16-.41,.31-.61,.46-2.87,2.17-5.85,4.2-8.94,6.03-2.8,1.66-5.69,3.17-8.67,4.47-.04,.02-.08,.04-.12,.05-.3,.12-.59,.24-.89,.36-.72,.29-1.45,.56-2.18,.82-1.32,.47-2.67,.89-4.02,1.27-1.3,.36-2.61,.68-3.93,.95-.64,.13-1.29,.25-1.93,.36-.3,.05-.6,.1-.89,.14-.08,.01-.15,.02-.23,.03-2.42,.26-4.82,.45-7.25,.43-2.37-.01-4.69-.27-7.05-.48h-.02c-.83-.13-1.66-.27-2.48-.42-1.13-.21-2.25-.46-3.36-.72-4.4-1.06-8.69-2.52-12.9-4.18-.99-.39-1.98-.8-2.97-1.21-.2-.08-.4-.17-.59-.25-.53-.23-1.06-.46-1.59-.69-1.95-.85-3.89-1.73-5.83-2.6-7.35-3.3-14.91-6.93-22.95-8.17-1.94-.3-3.87-.45-5.78-.46,1.2-.71,2.44-1.37,3.71-1.96,.26-.12,.52-.24,.78-.35,.06-.02,.1-.04,.14-.06,.03-.01,.06-.02,.11-.04,.66-.26,1.32-.51,1.99-.74,1.39-.48,2.8-.9,4.22-1.26,2.54-.64,4.31-3.62,3.49-6.15-.85-2.62-3.43-4.18-6.15-3.49-10.13,2.57-19.31,8.15-25.95,16.26-6.55,8.01-10.78,17.45-14.02,27.21-1.79,5.39-3.28,10.87-4.7,16.37-.65,2.53,.83,5.54,3.49,6.15,2.61,.59,5.45-.78,6.15-3.49,1.22-4.72,2.49-9.42,3.96-14.07,.72-2.29,1.49-4.56,2.33-6.8,.17-.47,.36-.92,.54-1.39,.91,2.67,2,5.27,3.4,7.74,4.08,7.23,10.66,12.57,18.65,14.9,5.77,1.68,11.95,1.83,17.89,1.19,2.59-.28,5.13-2.1,5-5-.11-2.47-2.22-5.3-5-5-2.63,.29-5.27,.43-7.91,.33-1.1-.04-2.19-.16-3.29-.26h-.02c-.78-.13-1.56-.28-2.33-.45-.98-.23-1.94-.5-2.89-.82-.37-.13-.74-.27-1.11-.41,.05,.03,.09,.05,.16,.08-.09-.05-.18-.08-.28-.13-.02,0-.04-.01-.06-.02-.11-.04-.22-.1-.31-.14-.03-.01-.05-.02-.08-.04-.81-.38-1.59-.8-2.35-1.27-.46-.28-.95-.72-1.44-1.06,0,.05-.17,0-.41-.2-.05-.04-.1-.08-.15-.12-.04-.02-.08-.05-.12-.06,.04,.01,.06,.03,.09,.04-.09-.08-.19-.16-.28-.24-.3-.26-.59-.52-.87-.79-.59-.56-1.15-1.15-1.68-1.76-.21-.25-.42-.5-.62-.75-.07-.1-.14-.2-.22-.3-.46-.64-.89-1.31-1.3-1.98-.8-1.33-1.47-2.72-2.11-4.13-.02-.05-.04-.11-.07-.16-.13-.34-.26-.68-.39-1.02-.27-.74-.53-1.5-.77-2.25-.53-1.68-.98-3.39-1.38-5.11-.42-1.83,.43-3.71,2.07-4.62h0c.56-.31,1.14-.6,1.72-.87h0c.75-.28,1.5-.57,2.28-.79,.91-.26,1.83-.47,2.76-.62h.05c.4-.05,.79-.09,1.19-.11,1.66-.1,3.34-.04,4.99,.14-.1-.02-.2-.03-.32-.06,.15,.03,.3,.05,.45,.07,0,0,.01,0,.02,0,.28,.03,.73,.12,.63,.11,.27,.05,.55,.09,.82,.14,.91,.18,1.81,.38,2.71,.62,1.8,.47,3.58,1.04,5.33,1.66,1.82,.65,3.61,1.39,5.4,2.12,.15,.06,.3,.13,.44,.19,.5,.21,1,.43,1.49,.65,.95,.42,1.89,.84,2.83,1.26,8.38,3.75,16.77,7.64,25.68,9.98,10.2,2.68,20.8,3.14,31.12,.82,7.01-1.58,13.62-4.39,19.83-7.95,.13,.44,.26,.87,.35,1.32,.06,.28,.1,.56,.16,.84,0,.01,0,.02,0,.03,.04,.56,.08,1.11,.09,1.68,0,.56,0,1.12-.05,1.68-.02,.25-.05,.5-.07,.75,0,0,0,0,0,.01-.02,.08-.04,.19-.07,.35-.21,1.12-.52,2.23-.9,3.3-.05,.15-.11,.31-.16,.46-.03,.05-.05,.1-.1,.19-.32,.62-.63,1.24-.99,1.85-.29,.49-.61,.98-.94,1.45-.11,.15-.24,.37-.38,.54-.04,.05-.09,.09-.12,.13-.82,.99-1.71,1.91-2.66,2.77-.43,.39-.87,.76-1.32,1.13,0,0-.02,.01-.03,.02-.01,0-.02,.01-.04,.02-.27,.18-.52,.38-.79,.56-1.01,.7-2.06,1.34-3.14,1.93-.51,.28-1.03,.54-1.56,.8-.24,.12-2.07,1.05-.93,.44-1.24,.67-2.78,1.04-4.12,1.43-1.32,.39-2.65,.72-3.99,1-.67,.14-1.35,.27-2.02,.39-.38,.07-.75,.13-1.13,.19-.13,.02-.62,.09-.81,.12-2.78,.36-5.58,.56-8.38,.7-1.4,.07-2.79,.13-4.19,.12-.71,0-1.42-.03-2.14-.07-.26-.02-.52-.04-.77-.06-.18-.02-.34-.02-.47-.02-.59-.05-1.24-.25-1.78-.38-.39-.1-.97-.2-1.44-.38-.03-.02-.12-.08-.33-.19-.32-.18-.65-.34-.97-.53-.2-.12-.39-.26-.59-.39-.16-.14-.31-.27-.46-.42-1.9-1.8-5.21-2.03-7.07,0-1.79,1.95-2.03,5.15,0,7.07,4.81,4.54,11.38,5.51,17.75,5.35,6.72-.17,13.61-.77,20.13-2.49,11.73-3.09,23.53-11.16,26.33-23.66,1.2-5.36,.74-10.72-1.42-15.52,2.72-1.95,5.35-4.02,7.89-6.16,1.58-1.33,3.12-2.7,4.63-4.09,2.12-1.95,2.19-5.36,.02-7.26Zm-102.65,17.96s.1,.04,.15,.06c-.41-.17-.85-.36-.15-.06Zm40.85,4.08s-.06,0-.1-.01c.5,.06,.9,.13,.1,.01Zm-4.19,26.21s-.02-.01-.04-.02c.01,0,.03,.01,.04,.02Z"/><path d="M40.03,156.58c-.7-.36-.68-.32-.48-.21,.12,.05,.24,.11,.36,.17,.04,.01,.08,.03,.12,.04Z"/><path d="M35.67,154.01s-.18-.18-.59-.35c0,0,.02,.02,.03,.02,.19,.09,.37,.2,.56,.33Z"/></g></g></svg>