<svg xmlns="http://www.w3.org/2000/svg" viewBox="0 0 19.36 19.44"><defs><style>.cls-1{fill:#fff;}.cls-2{fill:#1d333d;}</style></defs><title>ae</title><g id="Layer_2" data-name="Layer 2"><g id="Layer_1-2" data-name="Layer 1"><rect class="cls-1" width="19.36" height="19.44" rx="5.47"/><path class="cls-2" d="M9.68.55l9.13,9.17L9.68,18.9.54,9.72,9.68.55m0-.55L0,9.72l9.68,9.72,9.68-9.72L9.68,0Z"/><path class="cls-2" d="M8.27,12H6.45L6.2,13.13H4.56l2-6.93H8.26l2,6.93H8.53Zm-.33-1.5L7.37,8,6.8,10.49Z"/><path class="cls-2" d="M14.79,11.1H11.91a1.43,1.43,0,0,0,.18.69.62.62,0,0,0,.55.32A.63.63,0,0,0,13,12a1.07,1.07,0,0,0,.25-.31l1.42.17a2.58,2.58,0,0,1-.78,1.09,2.26,2.26,0,0,1-1.32.32A2.12,2.12,0,0,1,11.43,13a2,2,0,0,1-.71-.89,3.56,3.56,0,0,1-.28-1.44A3,3,0,0,1,11,8.72,1.85,1.85,0,0,1,12.56,8a2.26,2.26,0,0,1,1.28.32,2,2,0,0,1,.71.95,4.52,4.52,0,0,1,.24,1.61Zm-1.46-.92a1.55,1.55,0,0,0-.23-.8.57.57,0,0,0-.48-.24.61.61,0,0,0-.54.36,1.56,1.56,0,0,0-.17.68Z"/></g></g></svg>