<svg xmlns="http://www.w3.org/2000/svg" viewBox="0 0 19.36 19.44"><defs><style>.cls-1{fill:#fff;}.cls-2{fill:#1d333d;}</style></defs><title>Ai</title><g id="Layer_2" data-name="Layer 2"><g id="Layer_2-2" data-name="Layer 2"><rect class="cls-1" width="19.36" height="19.44" rx="5.47"/><path class="cls-2" d="M9.68.55l9.14,9.17L9.68,18.9.54,9.72,9.68.55m0-.55L0,9.72l9.68,9.72,9.68-9.72L9.68,0Z"/><path class="cls-2" d="M9.13,11.71H7.24l-.37,1.41H5.41L7.55,6.23H8.82L11,13.12H9.49ZM7.54,10.55H8.82L8.18,8.1Z"/><path class="cls-2" d="M11.74,6.68a.66.66,0,0,1,.2-.51.66.66,0,0,1,.52-.2.69.69,0,0,1,.73.71.73.73,0,0,1-.2.51.71.71,0,0,1-.53.2.67.67,0,0,1-.72-.71Zm1.4,6.44H11.8V8h1.34Z"/></g></g></svg>