<svg xmlns="http://www.w3.org/2000/svg" viewBox="0 0 20.92 20.76"><defs><style>.cls-1{fill:#fff;fill-rule:evenodd;}</style></defs><title>Asset 7</title><g id="Layer_2" data-name="Layer 2"><g id="Layer_1-2" data-name="Layer 1"><path class="cls-1" d="M20.27,1.73l-.35.32M17.49,5.7l-1.25-.13-6,6.08c-.27.24-1.11.73-1.35.49S9,11,9.27,10.73l6.06-6.05-.14-1.25L18.62,0l.46,1.84.84.21h0l1,.25ZM9.38,9l.16,0L11.3,7.24l0,0a4.71,4.71,0,0,0-1.95-.43A4.62,4.62,0,1,0,14,11.38a4.28,4.28,0,0,0-.43-2l0,0-1.73,1.73v.19A2.42,2.42,0,1,1,9.38,9Zm0,11.81A9.37,9.37,0,0,0,17.65,7l-.24,0a.29.29,0,0,1-.14,0l-1.19-.08-.84.87A6.84,6.84,0,1,1,13,5.51l.78-.75-.1-1.38V3.05a9.38,9.38,0,1,0-4.3,17.71ZM19.35,3,17.3,5.05l0,.06,0-.06-.08,0,0,0,0,0,2.06-2.06,0,0,0,0,.08.06,0,.05ZM18.08,1.86,16.06,4l0,0,0,0-.08-.09,0,0,0,0,2-2.08,0,0,.06,0,0,.08.06,0Zm.6.52-2,2.08,0,0,0,0-.09-.08,0,0,0,0,2-2.08.06,0,0,0,.06.08.05,0Z"/></g></g></svg>