<?xml version="1.0" encoding="UTF-8"?><svg id="Layer_2" xmlns="http://www.w3.org/2000/svg" viewBox="0 0 20.93 20.76"><defs><style>.cls-1{fill-rule:evenodd;}</style></defs><g id="Layer_1-2"><g id="Layer_2-2"><g id="Layer_1-2"><path class="cls-1" d="M17.5,5.7l-1.25-.13-6,6.08c-.27,.24-1.11,.73-1.35,.49s.11-1.14,.38-1.41l6.06-6.05-.14-1.25,3.43-3.43,.46,1.84,.84,.21h0l1,.25-3.43,3.4Zm-8.11,3.3h.16l1.76-1.76h0c-.61-.28-1.28-.43-1.95-.43-2.55,.02-4.61,2.1-4.59,4.65,.02,2.55,2.1,4.61,4.65,4.59,2.55-.02,4.61-2.1,4.59-4.65,0,0,0-.01,0-.02,.02-.69-.13-1.38-.43-2h0l-1.73,1.73v.19c.07,1.33-.96,2.47-2.3,2.54-1.33,.07-2.47-.96-2.54-2.3-.07-1.33,.96-2.47,2.3-2.54,.03,0,.05,0,.08,0Zm0,11.76c5.17,.01,9.38-4.13,9.39-9.3,0-1.56-.38-3.09-1.12-4.46h-.24s-.09,.01-.14,0l-1.19-.08-.84,.87c1.94,3.24,.9,7.44-2.34,9.39-3.24,1.94-7.44,.9-9.39-2.34-1.94-3.24-.9-7.44,2.34-9.39,2.2-1.32,4.96-1.3,7.15,.06l.78-.75-.1-1.38v-.33C9.09,.67,3.43,2.47,1.05,7.07c-2.38,4.6-.58,10.26,4.02,12.64,1.34,.69,2.82,1.05,4.32,1.05h0ZM16.15,4h0l-.08-.09h0l2-2.08h.08l-.02,.08m-1.48,2.57h0l-.08-.09h0l2.06-2.08h.08l-.02,.08m-1.5,2.53h0l-.08-.09h0l2-2.08h.08l-.02,.08"/></g></g></g></svg>