<svg xmlns="http://www.w3.org/2000/svg" viewBox="0 0 30.23 27.72"><defs><style>.cls-1{fill:#fff;fill-rule:evenodd;}</style></defs><title>Asset 8</title><g id="Layer_2" data-name="Layer 2"><g id="Layer_1-2" data-name="Layer 1"><path class="cls-1" d="M24,22.77l3,2.65a.62.62,0,0,0,.86-.05.74.74,0,0,0,.16-.46.54.54,0,0,0-.21-.41l-3-2.65a.63.63,0,0,0-.86.06.58.58,0,0,0,.05.86ZM4.37,24.1A.28.28,0,0,0,4.53,24l.3-1,1-.33A.4.4,0,0,0,6,22.48l.3-1,1-.35A.27.27,0,0,0,7.37,21l.29-1,1-.35a.18.18,0,0,0,.11-.16.15.15,0,0,0-.11-.19L4.07,17l-.54-.51a1.66,1.66,0,0,0-1.22-.46h0a1.61,1.61,0,0,0-1.16.51,1.67,1.67,0,0,0-.49,1.19A1.7,1.7,0,0,0,1.2,19l.54.52L4.18,24a.2.2,0,0,0,.19.11ZM8.1,19.42l-.57.22-2.22-1.3a.21.21,0,0,0-.27.05.22.22,0,0,0,0,.11.16.16,0,0,0,.11.17l2.16,1.27L7,20.8l-.86.3-.7-.65a.18.18,0,0,0-.27,0,.2.2,0,0,0-.06.13.25.25,0,0,0,.06.14l.7.65-.27.89-.87.3L2.47,19l.46-.48,1.71,1.62a.18.18,0,0,0,.27,0,.21.21,0,0,0,0-.27L3.2,18.29l.44-.46.81.46a.2.2,0,0,0,.27-.08A.18.18,0,0,0,4.64,18l-.73-.43L4,17.45Zm-6.65-.73a1.26,1.26,0,0,1-.38-.92,1.18,1.18,0,0,1,.35-.92,1.32,1.32,0,0,1,1.84-.05l.43.41L1.88,19.1Zm.67.7.08-.08,2.27,3.52-.19.57ZM5.83,1A5.56,5.56,0,0,0,2.31,2.8,5.67,5.67,0,0,0,1,7,9.11,9.11,0,0,0,4.2,13.15a9.66,9.66,0,0,0,5.9,2.46c.35,0,.75,0,1.1,0a5.68,5.68,0,0,0,3.52-1.81h0A5.67,5.67,0,0,0,16.07,10V9.53a9.3,9.3,0,0,0-3.24-6.16A10,10,0,0,0,11.2,2.2v0A9.12,9.12,0,0,0,7,.93c-.35,0-.86,0-1.18.06Zm4.86,1.48L9.37,4,6.83,1.72l.24-.3a8.45,8.45,0,0,1,3.62,1.05Zm4.78,6.38-.24.27L12.69,6.88,14,5.39a8.2,8.2,0,0,1,1.48,3.46Zm-1,4.36-1.24-1.09,2-2.29.3.27a5,5,0,0,1-1.06,3.11ZM11.2,15l-.29-.27,2-2.27,1.25,1.08a5.11,5.11,0,0,1-3,1.46ZM6.34,14l1.32-1.46,2.54,2.25L10,15.1A8.47,8.47,0,0,1,6.34,14ZM1.56,7.69l.24-.27L4.34,9.66,3,11.15A8,8,0,0,1,1.56,7.69Zm1-4.38L3.77,4.42l-2,2.27-.29-.24A5.18,5.18,0,0,1,2.53,3.31ZM5.83,1.5l.29.24L4.1,4,2.85,2.93a5.26,5.26,0,0,1,3-1.43ZM2.12,7l2-2.29L6.69,7l-2,2.3Zm5,.3L9.61,9.58l-2,2.27L5.07,9.61ZM10,9.91l2.57,2.24-2,2.3L8,12.21Zm4.92-.41-2,2.27L10.34,9.53l2-2.27ZM10,9.21,7.39,7l2-2.3L12,6.91ZM7,6.61,4.47,4.37l2-2.27L9,4.34ZM4.53,12.77a10.44,10.44,0,0,1-1.19-1.21L4.72,10l2.56,2.24L5.91,13.8a8,8,0,0,1-1.38-1Zm8-9A7.94,7.94,0,0,1,13.66,5L12.31,6.53,9.74,4.29l1.38-1.55a8.42,8.42,0,0,1,1.38,1ZM1.53,2.1A6.45,6.45,0,0,0,0,6.83a10.37,10.37,0,0,0,3.65,6.94c3.76,3.33,9,3.68,11.68.84l5.51,4.87s.06.05.09.05l-.55.62a.24.24,0,0,0-.05.27l.46,1.06h0v0s0,0,0,0h0s0,0,0,0h0l6.92,6.11a.53.53,0,0,0,.19,0,.23.23,0,0,0,.16-.08l2.06-2.33a.25.25,0,0,0,.05-.18.21.21,0,0,0-.08-.19l-6.89-6.09h0s0,0-.05,0h0s0,0,0,0h0L22,18.48a.27.27,0,0,0-.27.08l-.54.62s0-.06-.05-.08l-5.52-4.87A6.4,6.4,0,0,0,17,9.69a10.33,10.33,0,0,0-3.65-6.92A10.63,10.63,0,0,0,7,0,6.66,6.66,0,0,0,1.53,2.1Zm28.11,23-1.73,2-6.52-5.73,1.71-2Zm-7-6L21.1,20.91l-.25-.54L22,19ZM7,.53a10.2,10.2,0,0,1,6,2.59,9.8,9.8,0,0,1,3.46,6.6,6,6,0,0,1-1.38,4.38C12.64,16.94,7.64,16.61,4,13.39A9.71,9.71,0,0,1,.53,6.8,5.74,5.74,0,0,1,1.91,2.45,6,6,0,0,1,7,.53Z"/></g></g></svg>