<svg xmlns="http://www.w3.org/2000/svg" viewBox="0 0 29.86 23.38"><defs><style>.cls-1{fill:#fff;fill-rule:evenodd;}</style></defs><title>Asset 9</title><g id="Layer_2" data-name="Layer 2"><g id="Layer_1-2" data-name="Layer 1"><path class="cls-1" d="M5,11.38a.18.18,0,0,1-.19.19H1.3a.2.2,0,0,1-.19-.19V3a.2.2,0,0,1,.19-.19H4.76A.18.18,0,0,1,5,3V4.78h1.1V2.41a.67.67,0,0,0-.67-.71H.68A.68.68,0,0,0,0,2.41V12a.67.67,0,0,0,.68.68H2.16v10.7H3.92V12.68H5.38a.69.69,0,0,0,.7-.68V8.59H5ZM19.41,4.27a2.19,2.19,0,0,0,1.46-2.73,2.19,2.19,0,1,0-1.46,2.73Zm9.51,8.3c-1.73-.27-3.84-.68-4.3-.84-.24-.16-1.62-1.54-1.62-1.54L22,6.32c1.19.25,1.57.95,2.08,2.33a.85.85,0,0,0,.86.54.65.65,0,0,0,.22,0,.83.83,0,0,0,.51-1.09c-1.46-4.56-6.35-3.43-6.35-3.43a6,6,0,0,1-3.38-.19c-.16-.19-.29-1.32-.92-2.67,0-.06-2.05-3.3-1.75.35a6.29,6.29,0,0,0,1.43,3.48,4.61,4.61,0,0,0,3.14.84v0l1.48,4.87s0,2.78.14,3.48c.08.3.24,1.08,3.62,3.79a1.09,1.09,0,0,0,.81.24,1.18,1.18,0,0,0,.76-.41,1.12,1.12,0,0,0-.19-1.56c-1.16-.92-2.87-2.63-2.87-2.63s-.05-1.24,0-2.19c0-.1.17-.16.22-.08a17.15,17.15,0,0,0,1.87,1.71,30,30,0,0,0,5,1.05.74.74,0,0,0,.27,0,1.12,1.12,0,0,0,1-.92,1.1,1.1,0,0,0-.92-1.27ZM14.41,6.35H5.89v.24H5.16v.68h.73v.3h.62l.57,3.35v0h0l.54,3.21h.27L7.73,13,8,12.84l1,.7-.38.35v.3l.62-.49.81.52L10,14l-.62-.43.81-.57.87.57-.38.3-.06.38.68-.52.57.44v-.33l-.33-.27.89-.59.19.13-.16,1h.27l1.08-6.54h.6Zm-6,1.22H9.3l.54.35-.92.65-1-.68Zm-.75.16-.25-.16H8ZM10.33,8l.54-.38h.78l.54.38-.92.64Zm.7.81-.92.65-1-.68.94-.62Zm-.95-1-.3-.19h.63ZM9.87,9.57l-.95.65L8,9.57l1-.65Zm-.95,1,.89.62-.92.65L8,11.19Zm.24-.16.95-.65.84.6L10,11Zm2,.11,1,.7-.92.65-1-.68Zm0-.33-.86-.59.94-.65.84.57Zm.3-1.4.94-.65.81.57-.91.64Zm.65-1.19h.59l-.3.19Zm-5.38,0H7l.51.32-.57.41Zm.19,1,.73-.52,1,.68-1,.68L7,8.92Zm.1.7.44.3-.33.21Zm.14.76,0,0,.48-.32,1,.65L7.73,11l-.41-.27Zm.22,1.11.08.08-.08,0Zm.27,1.56,0-.08,0,.06ZM8,12.49l-.35-.25-.14-.67.3-.19.92.59Zm1.21.89-1-.7.73-.54,1,.67Zm1-.73-1-.68.89-.64,1,.67Zm1.14.73-.89-.57.89-.65.89.62Zm1.38-.57v0h0Zm.05-.4h0l-.3.21L11.51,12l.92-.65.44.3Zm.19-1.06-.24-.19L13,11Zm.13-.78-.62.43-1-.67.9-.65.78.54Zm.11-.65-.59-.43L13.33,9Zm.25-1.49L12.68,8l.54-.38h.32ZM12.06,3.81a1.69,1.69,0,1,1-3.38,0,1.69,1.69,0,0,1,3.38,0Z"/></g></g></svg>