<?xml version="1.0" encoding="UTF-8"?><svg id="Layer_2" xmlns="http://www.w3.org/2000/svg" viewBox="0 0 29.97 23.4"><defs><style>.cls-1{fill-rule:evenodd;}</style></defs><g id="Layer_1-2"><g id="Layer_2-2"><g id="Layer_1-2"><path class="cls-1" d="M5,11.4c0,.1-.07,.18-.17,.19,0,0-.01,0-.02,0H1.3c-.1,0-.18-.09-.19-.19V3.02c0-.1,.09-.18,.19-.19h3.46c.09-.03,.2,.01,.23,.11,0,.03,.01,.05,0,.08v1.78h1.1V2.43c.02-.37-.26-.69-.63-.71-.01,0-.03,0-.04,0H.68C.31,1.72,0,2.02,0,2.4c0,.01,0,.02,0,.03V12.02c0,.37,.29,.67,.66,.68,0,0,.01,0,.02,0h1.48v10.7h1.76V12.7h1.46c.38,0,.69-.3,.7-.68,0,0,0,0,0,0v-3.41h-1.08v2.79Zm14.41-7.11c1.16-.35,1.81-1.57,1.46-2.73-.35-1.16-1.57-1.81-2.73-1.46-1.16,.35-1.81,1.57-1.46,2.73,.35,1.16,1.57,1.81,2.73,1.46,0,0,0,0,0,0Zm9.51,8.3c-1.73-.27-3.84-.68-4.3-.84-.24-.16-1.62-1.54-1.62-1.54l-1-3.87c1.19,.25,1.57,.95,2.08,2.33,.14,.35,.49,.57,.86,.54,.07,.01,.15,.01,.22,0,.43-.15,.67-.62,.52-1.05,0-.01,0-.03-.01-.04-1.46-4.56-6.35-3.43-6.35-3.43-1.12,.26-2.29,.2-3.38-.19-.16-.19-.29-1.32-.92-2.67,0-.06-2.05-3.3-1.75,.35,.11,1.28,.61,2.49,1.43,3.48,.91,.65,2.03,.95,3.14,.84h0l1.48,4.87s0,2.78,.14,3.48c.08,.3,.24,1.08,3.62,3.79,.23,.19,.52,.27,.81,.24,.3-.04,.57-.18,.76-.41,.37-.48,.29-1.18-.19-1.56-1.16-.92-2.87-2.63-2.87-2.63,0,0-.05-1.24,0-2.19,0-.1,.17-.16,.22-.08,.58,.62,1.21,1.19,1.87,1.71,1.63,.49,3.31,.84,5,1.05,.09,.02,.18,.02,.27,0,.5-.05,.91-.42,1-.92,.1-.6-.3-1.17-.9-1.27,0,0-.01,0-.02,0h-.11ZM14.41,6.37H5.89v.24h-.73v.68h.73v.3h.62l.57,3.35h0l.54,3.21h.27l-.16-1.13,.27-.16,1,.7-.38,.35v.3l.62-.49,.81,.52-.05-.22-.62-.43,.81-.57,.87,.57-.38,.3-.06,.38,.68-.52,.57,.44v-.33l-.33-.27,.89-.59,.19,.13-.16,1h.27l1.08-6.54h.6v-1.22Zm-6,1.22h.89l.54,.35-.92,.65-1-.68,.49-.32Zm-.75,.16l-.25-.16h.59l-.34,.16Zm2.67,.27l.54-.38h.78l.54,.38-.92,.64-.94-.64Zm.7,.81l-.92,.65-1-.68,.94-.62,.98,.65Zm-.95-1l-.3-.19h.63l-.33,.19Zm-.21,1.76l-.95,.65-.92-.65,1-.65,.87,.65Zm-.95,1l.89,.62-.92,.65-.89-.65,.92-.62Zm.24-.16l.95-.65,.84,.6-.95,.64-.84-.59Zm2,.11l1,.7-.92,.65-1-.68,.92-.67Zm0-.33l-.86-.59,.94-.65,.84,.57-.92,.67Zm.3-1.4l.94-.65,.81,.57-.91,.64-.84-.56Zm.65-1.19h.59l-.3,.19-.29-.19Zm-5.38,0h.27l.51,.32-.57,.41-.21-.73Zm.19,1l.73-.52,1,.68-1,.68-.65-.52-.08-.32Zm.1,.7l.44,.3-.33,.21-.11-.51Zm.14,.76h0l.48-.32,1,.65-.91,.61-.41-.27-.16-.67Zm.22,1.11l.08,.08h-.08v-.08Zm.27,1.56v0Zm.35-.24l-.35-.25-.14-.67,.3-.19,.92,.59-.73,.52Zm1.21,.89l-1-.7,.73-.54,1,.67-.73,.57Zm1-.73l-1-.68,.89-.64,1,.67-.89,.65Zm1.14,.73l-.89-.57,.89-.65,.89,.62-.89,.6Zm1.43-.97h0l-.3,.21-.97-.62,.92-.65,.44,.3-.09,.76Zm.19-1.06l-.24-.19,.27-.16-.03,.35Zm.13-.78l-.62,.43-1-.67,.9-.65,.78,.54-.06,.35Zm.11-.65l-.59-.43,.71-.49-.12,.92Zm.25-1.49l-.78-.43,.54-.38h.32l-.08,.81Zm-1.4-4.62c0,.93-.76,1.69-1.69,1.69s-1.69-.76-1.69-1.69,.76-1.69,1.69-1.69,1.69,.76,1.69,1.69Z"/></g></g></g></svg>