<svg xmlns="http://www.w3.org/2000/svg" viewBox="0 0 17.11 24.62"><defs><style>.cls-1{fill:#fff;fill-rule:evenodd;}</style></defs><title>Asset 10</title><g id="Layer_2" data-name="Layer 2"><g id="Layer_1-2" data-name="Layer 1"><path class="cls-1" d="M6.51,6.41c.22-1.49,1-2.46,1-3.73A2.94,2.94,0,0,0,4.27,0,3,3,0,0,0,1.05,2.68c0,1.27.76,2.24,1,3.73Zm4.74,6.43a5.89,5.89,0,1,0,0,11.78,5.89,5.89,0,0,0,0-11.78ZM10.16,15.3a.51.51,0,0,0-.54.54.51.51,0,0,0,.54.54.51.51,0,0,0,.54-.54.5.5,0,0,0-.54-.54Zm1.09,2.13a.55.55,0,1,0,.54.54.52.52,0,0,0-.54-.54ZM12.3,15.3a.5.5,0,0,0-.51.54.5.5,0,0,0,.51.54.51.51,0,0,0,.54-.54.51.51,0,0,0-.54-.54ZM2.14,9.62H6.41V7.49H2.14Zm2.13,9.11a7,7,0,0,1,3.54-6.11A6.49,6.49,0,0,0,7,10.7H1.49A14.66,14.66,0,0,0,0,17.11a14.83,14.83,0,0,0,2.14,7.51H6.41a4.85,4.85,0,0,1,.32-.54,7.08,7.08,0,0,1-2.46-5.35Z"/></g></g></svg>