<?xml version="1.0" encoding="UTF-8"?><svg id="Layer_2" xmlns="http://www.w3.org/2000/svg" viewBox="0 0 17.14 24.64"><defs><style>.cls-1{fill-rule:evenodd;}</style></defs><g id="Layer_1-2"><g id="Layer_2-2"><g id="Layer_1-2"><path class="cls-1" d="M6.51,6.43c.22-1.49,1-2.46,1-3.73C7.38,1.08,5.95-.12,4.34,.01c-.02,0-.04,0-.07,0C2.65-.11,1.22,1.08,1.05,2.7c0,1.27,.76,2.24,1,3.73H6.51Zm4.74,6.43c-3.25,0-5.89,2.64-5.89,5.89,0,3.25,2.64,5.89,5.89,5.89h0c3.25,0,5.89-2.64,5.89-5.89s-2.64-5.89-5.89-5.89Zm-1.09,2.46c-.28-.02-.52,.2-.54,.48,0,.02,0,.04,0,.06-.02,.28,.2,.52,.48,.54,.02,0,.04,0,.06,0,.28,.02,.52-.2,.54-.48,0-.02,0-.04,0-.06,.02-.28-.18-.52-.46-.54-.03,0-.06,0-.08,0Zm1.09,2.13c-.3,0-.55,.24-.56,.54,0,.3,.24,.55,.54,.56,.3,0,.55-.24,.56-.54,0,0,0-.01,0-.02,.01-.29-.21-.53-.5-.54-.01,0-.03,0-.04,0Zm1.05-2.13c-.28,0-.51,.21-.51,.49,0,.02,0,.03,0,.05-.02,.28,.18,.52,.46,.54,.02,0,.03,0,.05,0,.28,.02,.52-.2,.54-.48,0-.02,0-.04,0-.06,.02-.28-.2-.52-.48-.54-.02,0-.04,0-.06,0ZM2.14,9.64H6.41v-2.13H2.14v2.13Zm2.13,9.11c0-2.53,1.34-4.86,3.54-6.11-.16-.68-.44-1.33-.81-1.92H1.49C.51,12.71,0,14.9,0,17.13c.03,2.65,.77,5.24,2.14,7.51H6.41c.09-.19,.2-.37,.32-.54-1.56-1.34-2.46-3.29-2.46-5.35Z"/></g></g></g></svg>