<svg xmlns="http://www.w3.org/2000/svg" viewBox="0 0 91.58 89.47"><defs><style>.cls-1{fill:#77250c;stroke-width:0.25px;}.cls-1,.cls-4{stroke:#fff;stroke-miterlimit:10;}.cls-2{isolation:isolate;}.cls-3{fill:#fff;}.cls-4{fill:none;}</style></defs><title>Asset 3</title><g id="Layer_2" data-name="Layer 2"><g id="Layer_1-2" data-name="Layer 1"><path class="cls-1" d="M.13,44.74c0-3.35,4.23-6.17,4.94-9.3s-1.83-7.6-.43-10.51,6.49-3.67,8.49-6.22,1.63-7.58,4.19-9.66,7.37-.5,10.34-1.92,4.72-6.17,8-6.9S42.42,3,45.78,3s7-3.49,10.14-2.77,5,5.48,8,6.89,7.8-.1,10.36,1.93,2.12,7.11,4.16,9.66,7.07,3.26,8.5,6.22-1.16,7.29-.43,10.51,4.95,6,4.95,9.3S87.22,50.9,86.51,54s1.84,7.6.43,10.52-6.47,3.67-8.5,6.21-1.62,7.62-4.16,9.67-7.39.5-10.35,1.92-4.73,6.16-8,6.9-6.8-2.77-10.15-2.77-7,3.48-10.16,2.77-5-5.49-8-6.9-7.8.11-10.35-1.92-2.09-7.11-4.14-9.67-7.08-3.25-8.5-6.21S5.8,57.26,5.05,54,.13,48.13.13,44.74Z"/><g class="cls-2"><path class="cls-3" d="M28.76,45.68h-.17c0-.17,0-.3,0-.4a.89.89,0,0,0-.19-.65.66.66,0,0,0-.48-.18,1.32,1.32,0,0,0-.8.32,2.48,2.48,0,0,0-.72,1,3.29,3.29,0,0,0-.3,1.37,1.68,1.68,0,0,0,.28,1.05.85.85,0,0,0,.7.36,1.3,1.3,0,0,0,1-.68c0-.05.07-.07.1-.07a.11.11,0,0,1,.08,0,.07.07,0,0,1,0,.06c0,.06-.08.17-.22.34a1.67,1.67,0,0,1-.55.43,1.33,1.33,0,0,1-.65.18,1.31,1.31,0,0,1-.71-.21A1.29,1.29,0,0,1,25.7,48a2,2,0,0,1-.19-.88,3.33,3.33,0,0,1,1.31-2.52,2,2,0,0,1,1.1-.38,1.64,1.64,0,0,1,.38,0l.67.23A4.49,4.49,0,0,0,28.76,45.68Z"/><path class="cls-3" d="M31.09,46.31,30.65,48a1.29,1.29,0,0,0,.25,0,1.71,1.71,0,0,0,.36,0l0,.16a1.77,1.77,0,0,1-.34,0l-.38,0a2.43,2.43,0,0,0-.36,0,2.77,2.77,0,0,0-.6.07l.05-.18a1.34,1.34,0,0,0,.46-.18,1,1,0,0,0,.25-.49l.46-1.83a2.26,2.26,0,0,0,.08-.41.1.1,0,0,0,0-.09s-.08,0-.16,0l0-.16a3.16,3.16,0,0,0,.79-.12c0,.08-.06.21-.1.37l-.25,1,.27,0a1,1,0,0,0,.7-.28,1,1,0,0,0,.29-.68.62.62,0,0,0-.24-.5.93.93,0,0,0-.63-.2,2.28,2.28,0,0,0-1,.25,1.88,1.88,0,0,0-.73.62,1.3,1.3,0,0,0-.25.76.7.7,0,0,0,.25.53.8.8,0,0,1,.16.15.23.23,0,0,1,0,.11.21.21,0,0,1-.05.12.18.18,0,0,1-.12.05.39.39,0,0,1-.32-.21,1.16,1.16,0,0,1-.17-.66,1.73,1.73,0,0,1,.27-.93,2.14,2.14,0,0,1,.84-.72,2.61,2.61,0,0,1,1.19-.29,1.91,1.91,0,0,1,.95.22.71.71,0,0,1,.38.65,1.08,1.08,0,0,1-.34.75,1.72,1.72,0,0,1-.95.44c.1.2.16.33.19.4s.12.32.21.6a4.37,4.37,0,0,0,.68,1.38.76.76,0,0,0,.56.29.4.4,0,0,0,.41-.28.46.46,0,0,1,.09-.22.2.2,0,0,1,.14-.06.17.17,0,0,1,.19.19.5.5,0,0,1-.22.38.88.88,0,0,1-.57.18,1.31,1.31,0,0,1-.61-.15,1.82,1.82,0,0,1-.56-.5,3.35,3.35,0,0,1-.47-.84c-.07-.16-.17-.46-.3-.89q-.12-.4-.15-.48h-.16Z"/><path class="cls-3" d="M37.3,45.05h-.17a1.58,1.58,0,0,0,0-.26.18.18,0,0,0-.11-.18,5,5,0,0,0-.83,0h-.47L35.39,46h.67a1,1,0,0,0,.4-.05.38.38,0,0,0,.1-.24h.19c-.07.27-.13.55-.19.87h-.17a1.15,1.15,0,0,0,0-.24.16.16,0,0,0,0-.09.19.19,0,0,0-.09,0l-.27,0h-.67a10.68,10.68,0,0,1-.6,1.74,1.63,1.63,0,0,1,.53-.1,4.11,4.11,0,0,1,1,.13,2.6,2.6,0,0,0,.41.06.32.32,0,0,0,.23-.07.19.19,0,0,0,.09-.16.54.54,0,0,0,0-.17.4.4,0,0,1,0-.15.16.16,0,0,1,.06-.13.2.2,0,0,1,.15-.06.18.18,0,0,1,.16.08.27.27,0,0,1,.07.2.63.63,0,0,1-.24.49,1,1,0,0,1-.64.21,3.79,3.79,0,0,1-.53,0,10.7,10.7,0,0,0-1.07-.07,9.74,9.74,0,0,0-1.13.07l.05-.18a1.75,1.75,0,0,0,.46-.16.4.4,0,0,0,.11-.14,8.64,8.64,0,0,0,.41-1.24c.16-.63.33-1.28.5-2a1.59,1.59,0,0,0-.74.18,1.63,1.63,0,0,0-.55.49,1.12,1.12,0,0,0-.19.62.9.9,0,0,0,0,.25,1.8,1.8,0,0,0,.12.29.45.45,0,0,1,.06.19.14.14,0,0,1-.06.12.18.18,0,0,1-.14.06.21.21,0,0,1-.2-.13.91.91,0,0,1-.11-.5A1.74,1.74,0,0,1,34,44.9a2,2,0,0,1,1.51-.55h1.12a3.61,3.61,0,0,0,.86-.07C37.38,44.64,37.33,44.9,37.3,45.05Z"/><path class="cls-3" d="M40.73,48l0,.19a1.87,1.87,0,0,1-.37,0l-.45,0h-.43a3.85,3.85,0,0,0-.67,0l0-.18a1,1,0,0,0,.48-.13.61.61,0,0,0,.19-.26c.05-.12.16-.54.34-1.26l.42-1.73,0-.08H40a2.71,2.71,0,0,0-.95.13,1,1,0,0,0-.53.38.87.87,0,0,0-.18.53.58.58,0,0,0,0,.19,1.15,1.15,0,0,0,.15.19.35.35,0,0,1,.11.22.18.18,0,0,1-.07.15.2.2,0,0,1-.15.06.26.26,0,0,1-.23-.13.91.91,0,0,1-.12-.49,1.35,1.35,0,0,1,.25-.77,1.65,1.65,0,0,1,.67-.58,2.4,2.4,0,0,1,1-.21,7.6,7.6,0,0,1,.94.09,5.58,5.58,0,0,0,.66.06.44.44,0,0,0,.29-.07.22.22,0,0,0,.08-.18.34.34,0,0,0,0-.09A.78.78,0,0,0,42,44a.21.21,0,0,1,.2-.2.19.19,0,0,1,.16.07.25.25,0,0,1,.07.19.51.51,0,0,1-.27.43,1.61,1.61,0,0,1-.88.18l-.47,0-.21.8-.28,1.12-.17.69-.18.79a2.43,2.43,0,0,0,.36,0A1.77,1.77,0,0,0,40.73,48Z"/><path class="cls-3" d="M44.34,44.32l-.06.17a1.62,1.62,0,0,0-.49.09.44.44,0,0,0-.13.14c0,.08-.16.49-.36,1.25-.06.25-.23.92-.5,2a1.7,1.7,0,0,0,.58.06l-.05.16-.42,0h-.52a4.42,4.42,0,0,0-.76.06l0-.18a1.8,1.8,0,0,0,.55-.14.18.18,0,0,0,.07-.05.92.92,0,0,0,.11-.24c0-.12.17-.6.39-1.45.06-.25.2-.79.4-1.61a2,2,0,0,0-.56.06l.07-.18A1.26,1.26,0,0,1,43,44.4l.65,0C43.93,44.36,44.17,44.34,44.34,44.32Z"/><path class="cls-3" d="M48.49,45.14h-.17a3.44,3.44,0,0,0,0-.36.19.19,0,0,0-.07-.16.62.62,0,0,0-.29,0h-.92S47,44.75,47,45c-.12.42-.21.77-.27,1h.64a.53.53,0,0,0,.3-.05.4.4,0,0,0,.11-.23h.18c-.07.28-.13.56-.18.86h-.18c0-.12,0-.2,0-.22a.14.14,0,0,0-.08-.12,1.07,1.07,0,0,0-.25,0h-.62c-.07.3-.15.62-.25,1s-.19.62-.26.82a4.3,4.3,0,0,0,.46,0l.27,0-.06.18h-.18l-.45,0h-.38a4,4,0,0,0-.67,0l0-.18a1,1,0,0,0,.38-.13.43.43,0,0,0,.14-.16,10.14,10.14,0,0,0,.38-1.24l.5-2a1.72,1.72,0,0,0-.77.2,1.44,1.44,0,0,0-.52.49,1.12,1.12,0,0,0-.19.62,1.15,1.15,0,0,0,0,.26.84.84,0,0,0,.09.22.67.67,0,0,1,.1.24.14.14,0,0,1-.06.12.22.22,0,0,1-.14.05.24.24,0,0,1-.21-.14.93.93,0,0,1-.12-.52,1.7,1.7,0,0,1,.52-1.2,1.74,1.74,0,0,1,1.35-.55h1.25l.46,0a1.31,1.31,0,0,0,.32-.07C48.58,44.72,48.51,45,48.49,45.14Z"/><path class="cls-3" d="M51.42,44.32l-.06.17a1.62,1.62,0,0,0-.49.09.44.44,0,0,0-.13.14c0,.08-.16.49-.36,1.25-.07.25-.23.92-.5,2a1.67,1.67,0,0,0,.58.06l-.05.16-.42,0h-.53a4.51,4.51,0,0,0-.76.06l0-.18a1.89,1.89,0,0,0,.55-.14.18.18,0,0,0,.07-.05.71.71,0,0,0,.1-.24c0-.12.17-.6.39-1.45.07-.25.2-.79.4-1.61a2,2,0,0,0-.55.06l.06-.18A1.37,1.37,0,0,1,50,44.4l.65,0C51,44.36,51.25,44.34,51.42,44.32Z"/><path class="cls-3" d="M55,45.68h-.17c0-.17,0-.3,0-.4a.89.89,0,0,0-.19-.65.68.68,0,0,0-.48-.18,1.37,1.37,0,0,0-.81.32,2.56,2.56,0,0,0-.71,1,3.29,3.29,0,0,0-.3,1.37,1.68,1.68,0,0,0,.28,1.05.85.85,0,0,0,.7.36,1.3,1.3,0,0,0,1-.68c0-.05.07-.07.1-.07a.11.11,0,0,1,.08,0s0,0,0,.06-.07.17-.21.34a1.67,1.67,0,0,1-.55.43,1.33,1.33,0,0,1-.65.18,1.31,1.31,0,0,1-.71-.21A1.29,1.29,0,0,1,52,48a1.87,1.87,0,0,1-.19-.88,3.33,3.33,0,0,1,1.31-2.52,2,2,0,0,1,1.1-.38,1.64,1.64,0,0,1,.38,0l.67.23A4.49,4.49,0,0,0,55,45.68Z"/><path class="cls-3" d="M59.17,48l0,.19h-.21l-.31,0-.38,0a2.61,2.61,0,0,0-.42,0,4.26,4.26,0,0,0,.16-.54,5,5,0,0,0,.11-.68H56.91a8.28,8.28,0,0,1-1.22,1.59,1.16,1.16,0,0,1-.73.33.43.43,0,0,1-.28-.07.23.23,0,0,1-.09-.18.2.2,0,0,1,0-.14.18.18,0,0,1,.14-.06l.12,0,.26,0a.73.73,0,0,0,.48-.24,10.45,10.45,0,0,0,1.27-1.7,20.16,20.16,0,0,1,1.55-2.13,6.81,6.81,0,0,0-1,.14.88.88,0,0,0-.41.26.56.56,0,0,0-.13.35.45.45,0,0,0,0,.17.54.54,0,0,1,0,.18.15.15,0,0,1-.05.12.18.18,0,0,1-.14.06.21.21,0,0,1-.17-.08.37.37,0,0,1-.07-.25,1,1,0,0,1,.12-.46,1,1,0,0,1,.35-.37,1.74,1.74,0,0,1,.57-.22,4,4,0,0,1,.62-.08,3.23,3.23,0,0,0,.49-.06.67.67,0,0,0,.29-.17c-.06.27-.11.5-.14.7l-.26,1.89L58.46,48a1.77,1.77,0,0,0,.43.06Zm-1.05-1.27a16.45,16.45,0,0,1,.31-1.94l-.51.69-.84,1.25h1Z"/><path class="cls-3" d="M62.64,48l0,.19a2,2,0,0,1-.37,0l-.46,0h-.42a4,4,0,0,0-.68,0l0-.18a1,1,0,0,0,.48-.13.6.6,0,0,0,.18-.26c0-.12.17-.54.35-1.26l.42-1.73,0-.08h-.29a2.81,2.81,0,0,0-1,.13,1.12,1.12,0,0,0-.53.38.87.87,0,0,0-.18.53.58.58,0,0,0,0,.19,1.67,1.67,0,0,0,.14.19.31.31,0,0,1,.11.22.2.2,0,0,1-.06.15.23.23,0,0,1-.16.06.25.25,0,0,1-.22-.13.91.91,0,0,1-.12-.49,1.42,1.42,0,0,1,.24-.77,1.68,1.68,0,0,1,.68-.58,2.4,2.4,0,0,1,1-.21,7.65,7.65,0,0,1,.93.09,5.89,5.89,0,0,0,.67.06.46.46,0,0,0,.29-.07.25.25,0,0,0,.08-.18.34.34,0,0,0,0-.09.39.39,0,0,1,0-.09.21.21,0,0,1,.36-.13.29.29,0,0,1,.07.19.51.51,0,0,1-.27.43,1.61,1.61,0,0,1-.88.18l-.47,0c0,.08-.09.34-.21.8l-.28,1.12-.18.69-.18.79a2.57,2.57,0,0,0,.36,0A1.85,1.85,0,0,0,62.64,48Z"/><path class="cls-3" d="M67.36,45.05h-.17a1.58,1.58,0,0,0,0-.26.18.18,0,0,0-.11-.18,5.12,5.12,0,0,0-.83,0H65.8L65.45,46h.67a1,1,0,0,0,.39-.05.33.33,0,0,0,.11-.24h.18a8.85,8.85,0,0,0-.18.87h-.17c0-.1,0-.18,0-.24a.21.21,0,0,0,0-.09.12.12,0,0,0-.08,0l-.28,0h-.67a9.05,9.05,0,0,1-.6,1.74,1.73,1.73,0,0,1,.54-.1,4.25,4.25,0,0,1,1,.13,2.6,2.6,0,0,0,.41.06.33.33,0,0,0,.23-.07.19.19,0,0,0,.09-.16,1.2,1.2,0,0,0,0-.17.4.4,0,0,1,0-.15.16.16,0,0,1,.06-.13.2.2,0,0,1,.14-.06.19.19,0,0,1,.17.08.27.27,0,0,1,.07.2.61.61,0,0,1-.25.49.93.93,0,0,1-.64.21,3.89,3.89,0,0,1-.53,0,10.36,10.36,0,0,0-1.07-.07,10,10,0,0,0-1.13.07l.06-.18a1.62,1.62,0,0,0,.45-.16.33.33,0,0,0,.12-.14,7.79,7.79,0,0,0,.4-1.24c.17-.63.34-1.28.51-2a1.59,1.59,0,0,0-.74.18,1.46,1.46,0,0,0-.55.49,1.12,1.12,0,0,0-.19.62,1.69,1.69,0,0,0,0,.25,1.31,1.31,0,0,0,.13.29.45.45,0,0,1,.06.19.14.14,0,0,1-.06.12.2.2,0,0,1-.15.06.22.22,0,0,1-.2-.13,1,1,0,0,1-.11-.5A1.75,1.75,0,0,1,64,44.9a2,2,0,0,1,1.51-.55h1.12a3.66,3.66,0,0,0,.86-.07C67.44,44.64,67.39,44.9,67.36,45.05Z"/></g><path class="cls-3" d="M59,36.13a21.22,21.22,0,0,1-9-2,44.64,44.64,0,0,1-4.39-2.54C44.79,31,43.92,30.49,43,30a14.45,14.45,0,0,1-3.31,1.34,4.53,4.53,0,0,1-3.41-.53,1.68,1.68,0,0,1-.68-1.35,2,2,0,0,1,.82-1.7c1.08-.77,2.85-.44,3.64-.17A17.75,17.75,0,0,1,43,28.92c1.16-.67,2.28-1.45,3.38-2.21l1.22-.85.52-.36.29-.21c-.74-.37-1.47-.81-2.19-1.24-.52-.32-1.07-.65-1.61-.95l-.3.13c-.7.26-2.06.51-2.7-.24a1.16,1.16,0,0,1-.22-1.18,1,1,0,0,1,.88-.57,2.07,2.07,0,0,1,.82.16,10.74,10.74,0,0,1,1.52.66c.3-.17.58-.36.85-.55a4.66,4.66,0,0,0,1.09-1.08,1.61,1.61,0,0,0,.4-1.32,1,1,0,0,0-1-.72l.08-.92a1.77,1.77,0,0,1,1.8,1.45A2.51,2.51,0,0,1,47.3,21,5.85,5.85,0,0,1,46,22.28l-.44.29,1.16.69a28.53,28.53,0,0,0,2.6,1.43c1.53-1,3.4-1.89,5-1.14A1.6,1.6,0,0,1,55,25.73a1.65,1.65,0,0,1-1.15.82,6.2,6.2,0,0,1-4.13-.72l-.28-.11-.74.52-.53.37c-.41.27-.81.55-1.21.83-1,.68-2,1.37-3,2,.75.44,1.49.9,2.21,1.36a44.71,44.71,0,0,0,4.29,2.49,20.36,20.36,0,0,0,9.34,1.93,8.33,8.33,0,0,0,3.48-.73,3.64,3.64,0,0,0,2-2.5,2.75,2.75,0,0,0-3.58-3.09,1.58,1.58,0,0,0-1,.86.86.86,0,0,0,0,.63c.05.12.23.15.28.28a.94.94,0,0,1-.3.87c-.34.17-.66-.41-.82-.76a1.85,1.85,0,0,1-.07-1.33A2.44,2.44,0,0,1,61.41,28a3.66,3.66,0,0,1,4.64,2.33,3.54,3.54,0,0,1,.13,1.77,4.54,4.54,0,0,1-2.54,3.16,9.64,9.64,0,0,1-3.86.84Zm-20.82-8a2.13,2.13,0,0,0-1.28.32,1,1,0,0,0-.43.94.72.72,0,0,0,.32.62,3.55,3.55,0,0,0,2.61.36,12.56,12.56,0,0,0,2.57-1,18.21,18.21,0,0,0-2.27-1A4.43,4.43,0,0,0,38.22,28.13Zm12.11-3a4.87,4.87,0,0,0,3.2.54c.29-.09.65-.29.7-.56a.88.88,0,0,0-.34-.73C52.87,23.85,51.53,24.37,50.33,25.13Zm-8-3h0c-.1,0-.09.13,0,.23a1.72,1.72,0,0,0,1.09.13l-.64-.25A1.41,1.41,0,0,0,42.33,22.13Z"/><path class="cls-3" d="M33,36.13h-.75a9.71,9.71,0,0,1-3.86-.84,4.64,4.64,0,0,1-2.54-3.16,3.68,3.68,0,0,1,3-4.26,3.63,3.63,0,0,1,1.82.14,2.46,2.46,0,0,1,1.6,1.42,1.75,1.75,0,0,1-.1,1.31c-.16.35-.47.92-.81.76a.9.9,0,0,1-.31-.87c.07-.13.23-.16.29-.28a1,1,0,0,0,0-.63,1.58,1.58,0,0,0-1-.86,2.76,2.76,0,0,0-3.49,1.76A2.72,2.72,0,0,0,26.72,32a3.64,3.64,0,0,0,2.05,2.5,8.33,8.33,0,0,0,3.48.73,20.36,20.36,0,0,0,9.34-1.93,44.71,44.71,0,0,0,4.29-2.49c.73-.46,1.46-.92,2.21-1.36-1-.62-2-1.31-3-2l-1.21-.83-.27-.19-1-.69-.25.11c-1.26.53-2.68,1.14-4.13.71a1.76,1.76,0,0,1-1.35-1.3,1.46,1.46,0,0,1,.85-1.52c1.57-.75,3.44,0,5,1,.9-.44,1.78-.92,2.64-1.45l1.16-.69-.44-.29A5.85,5.85,0,0,1,44.79,21a2.47,2.47,0,0,1-.57-2.08,1.8,1.8,0,0,1,1.86-1.43l-.08.92a.91.91,0,0,0-.88.7,1.61,1.61,0,0,0,.4,1.32,4.66,4.66,0,0,0,1.09,1.08,8.39,8.39,0,0,0,.86.55A10.27,10.27,0,0,1,49,21.38a2,2,0,0,1,.81-.16,1,1,0,0,1,.88.57A1.14,1.14,0,0,1,50.46,23c-.64.75-2,.5-2.7.24l-.29-.13c-.55.3-1.09.63-1.62,1-.72.43-1.46.87-2.21,1.25.21.13.4.26.57.38l.26.18,1.23.85c1.09.76,2.21,1.54,3.37,2.21A17.75,17.75,0,0,1,52,27.55c.79-.27,2.56-.6,3.64.17a2,2,0,0,1,.82,1.7,1.66,1.66,0,0,1-.69,1.35,4.5,4.5,0,0,1-3.4.53A14.71,14.71,0,0,1,49.06,30c-.9.51-1.77,1.06-2.63,1.61A45.84,45.84,0,0,1,42,34.13,21.4,21.4,0,0,1,33,36.13ZM50,29.4a12.26,12.26,0,0,0,2.56,1A3.63,3.63,0,0,0,55.17,30a.78.78,0,0,0,.32-.62,1.06,1.06,0,0,0-.43-.94,3.5,3.5,0,0,0-2.8-.06,16.34,16.34,0,0,0-2.23,1ZM39.13,24.33a2.14,2.14,0,0,0-1,.2.57.57,0,0,0-.35.54c0,.27.41.47.71.56a4.75,4.75,0,0,0,3.14-.5A5.46,5.46,0,0,0,39.13,24.33Zm9.52-1.86c.47.08.93.06,1.09-.13a.3.3,0,0,0,.09-.21,1.28,1.28,0,0,0-.55.09Z"/><path class="cls-3" d="M59.78,53.41a9.47,9.47,0,0,1,3.86.84,4.54,4.54,0,0,1,2.54,3.16,3.55,3.55,0,0,1-.13,1.77,3.67,3.67,0,0,1-4.64,2.33,2.49,2.49,0,0,1-1.6-1.42,1.85,1.85,0,0,1,.07-1.33c.16-.36.48-.93.82-.76a.92.92,0,0,1,.3.87c0,.12-.23.15-.28.28a.86.86,0,0,0,0,.63,1.61,1.61,0,0,0,1,.86,2.75,2.75,0,0,0,3.58-3.09,3.62,3.62,0,0,0-2-2.5,8,8,0,0,0-3.48-.73,20.23,20.23,0,0,0-9.34,1.93,40.87,40.87,0,0,0-4.29,2.49c-.72.46-1.46.92-2.21,1.36,1,.63,2,1.32,3,2,.4.28.8.56,1.21.83l.53.37.74.52.28-.11A6.09,6.09,0,0,1,53.82,63a1.6,1.6,0,0,1,.5,3c-1.6.75-3.47-.14-5-1.14a26.29,26.29,0,0,0-2.6,1.43L45.56,67l.44.29a5.85,5.85,0,0,1,1.3,1.28,2.5,2.5,0,0,1,.58,2.08,1.78,1.78,0,0,1-1.8,1.45L46,71.15a1.06,1.06,0,0,0,1-.72,1.6,1.6,0,0,0-.4-1.32A4.47,4.47,0,0,0,45.48,68a8.24,8.24,0,0,0-.85-.55,13.68,13.68,0,0,1-1.52.66,2.26,2.26,0,0,1-.82.16,1,1,0,0,1-.88-.57,1.16,1.16,0,0,1,.22-1.18c.64-.75,2-.5,2.7-.24l.3.13c.54-.3,1.09-.63,1.61-1,.72-.43,1.45-.87,2.19-1.24L48.14,64l-.52-.36-1.22-.85c-1.1-.76-2.22-1.54-3.38-2.21A19.55,19.55,0,0,1,40.08,62c-.79.27-2.56.6-3.64-.17a2,2,0,0,1-.82-1.7,1.67,1.67,0,0,1,.68-1.35,4.44,4.44,0,0,1,3.41-.53A14.45,14.45,0,0,1,43,59.56c.9-.51,1.77-1.06,2.63-1.61A44.64,44.64,0,0,1,50,55.41a21.22,21.22,0,0,1,9-2Zm-20,7.76a19.81,19.81,0,0,0,2.27-1,12,12,0,0,0-2.57-1,3.55,3.55,0,0,0-2.61.36.71.71,0,0,0-.32.62,1,1,0,0,0,.43.94,2.28,2.28,0,0,0,1.28.32A5,5,0,0,0,39.74,61.17Zm14.15,4a.9.9,0,0,0,.34-.73c0-.27-.41-.47-.7-.56a4.75,4.75,0,0,0-3.2.54C51.53,65.17,52.87,65.69,53.89,65.16ZM42.78,67.3l.64-.25a1.72,1.72,0,0,0-1.09.13c-.09.1-.1.23,0,.23h0A1.41,1.41,0,0,0,42.78,67.3Z"/><path class="cls-3" d="M42,55.41A42,42,0,0,1,46.43,58c.86.55,1.73,1.1,2.63,1.61a14.71,14.71,0,0,1,3.32-1.34,4.41,4.41,0,0,1,3.4.53,1.65,1.65,0,0,1,.69,1.35,2,2,0,0,1-.82,1.7c-1.08.77-2.85.44-3.64.17a19.55,19.55,0,0,1-2.94-1.35c-1.16.67-2.28,1.45-3.37,2.21l-1.23.85-.26.18-.57.38c.75.38,1.49.82,2.21,1.25.53.32,1.07.65,1.62.95l.29-.13c.7-.26,2.06-.51,2.7.24a1.14,1.14,0,0,1,.22,1.18,1,1,0,0,1-.88.57,2.21,2.21,0,0,1-.81-.16,12.91,12.91,0,0,1-1.52-.66,8.39,8.39,0,0,0-.86.55,4.47,4.47,0,0,0-1.09,1.08,1.6,1.6,0,0,0-.4,1.32.92.92,0,0,0,.88.7l.08.92a1.81,1.81,0,0,1-1.86-1.43,2.47,2.47,0,0,1,.57-2.08,5.85,5.85,0,0,1,1.3-1.28l.44-.29-1.16-.69a26.16,26.16,0,0,0-2.64-1.45c-1.56,1-3.43,1.75-5,1a1.46,1.46,0,0,1-.85-1.52A1.74,1.74,0,0,1,38.23,63c1.45-.43,2.87.18,4.13.71l.25.11,1-.69.27-.19,1.21-.83c1-.69,2-1.38,3-2-.75-.44-1.48-.9-2.21-1.36a40.87,40.87,0,0,0-4.29-2.49,20.23,20.23,0,0,0-9.34-1.93,8,8,0,0,0-3.48.73,3.62,3.62,0,0,0-2.05,2.5,2.73,2.73,0,0,0,.09,1.33,2.78,2.78,0,0,0,3.49,1.76,1.61,1.61,0,0,0,1-.86,1,1,0,0,0,0-.63c-.06-.13-.22-.16-.29-.28a.89.89,0,0,1,.31-.87c.34-.17.65.4.81.76a1.75,1.75,0,0,1,.1,1.31,2.49,2.49,0,0,1-1.6,1.42,3.74,3.74,0,0,1-1.82.14,3.69,3.69,0,0,1-3-4.26,4.61,4.61,0,0,1,2.54-3.16,9.54,9.54,0,0,1,3.86-.84H33A21.1,21.1,0,0,1,42,55.41Zm8,4.74a19.26,19.26,0,0,0,2.23,1,3.5,3.5,0,0,0,2.8-.06,1.07,1.07,0,0,0,.43-.94.75.75,0,0,0-.32-.62,3.58,3.58,0,0,0-2.62-.36,11.73,11.73,0,0,0-2.56,1Zm-8.4,4.26a4.64,4.64,0,0,0-3.14-.5c-.3.09-.71.29-.71.56a.59.59,0,0,0,.35.54,2.27,2.27,0,0,0,1,.2A5.58,5.58,0,0,0,41.63,64.41Zm7.65,2.91a1.28,1.28,0,0,0,.55.09.27.27,0,0,0-.09-.21c-.16-.19-.62-.21-1.09-.13Z"/><path class="cls-4" d="M45.79,7c2.42,0,4.5,3.11,6.78,3.56S58,9,60.19,9.88s2.94,4.58,4.9,5.89,5.64.6,7.31,2.28.95,5.33,2.28,7.31,5,2.69,5.88,4.89-1.16,5.27-.7,7.62,3.56,4.37,3.56,6.78-3.1,4.5-3.56,6.78,1.6,5.46.7,7.63S76,62,74.67,64s-.6,5.64-2.27,7.31-5.34,1-7.31,2.28-2.69,5-4.9,5.89-5.27-1.17-7.62-.7-4.36,3.55-6.78,3.55-4.5-3.1-6.78-3.55-5.46,1.59-7.62.7-2.94-4.58-4.9-5.89-5.64-.61-7.31-2.28S18.23,65.92,16.9,64s-5-2.69-5.88-4.89,1.16-5.27.7-7.63-3.56-4.36-3.56-6.78,3.1-4.49,3.56-6.78-1.6-5.46-.7-7.62,4.57-2.94,5.89-4.9.6-5.63,2.27-7.31,5.34-.95,7.31-2.27,2.69-5,4.9-5.89,5.27,1.17,7.62.7S43.37,7,45.79,7Z"/><path class="cls-4" d="M82.14,35.07c.62,2.34-1.84,5.15-1.68,7.47s3,4.86,2.65,7.18-3.67,4-4.43,6.26.88,5.6-.3,7.65-4.91,2.3-6.47,4.09-1.32,5.5-3.21,7-5.39.24-7.54,1.3-3.3,4.56-5.63,5.19-5.15-1.84-7.47-1.68-4.86,3-7.18,2.65-4-3.67-6.25-4.42S29,78.58,27,77.4s-2.3-4.91-4.09-6.47-5.5-1.31-6.95-3.21-.24-5.39-1.3-7.54-4.56-3.3-5.19-5.63,1.84-5.15,1.68-7.47S8.17,42.22,8.47,39.9s3.67-4,4.43-6.25S12,28,13.2,26s4.91-2.31,6.47-4.1S21,16.4,22.88,15s5.39-.24,7.54-1.3,3.3-4.56,5.63-5.19,5.15,1.84,7.47,1.68,4.86-2.95,7.18-2.65,4,3.67,6.25,4.43,5.61-.88,7.66.3,2.3,4.91,4.09,6.47,5.5,1.32,7,3.21.24,5.39,1.3,7.54S81.51,32.74,82.14,35.07Z"/></g></g></svg>