<?xml version="1.0" encoding="UTF-8"?><svg id="Layer_2" xmlns="http://www.w3.org/2000/svg" viewBox="0 0 266.22 634.2"><defs><style>.cls-1{fill:#fff;}</style></defs><g id="Layer_1-2"><path class="cls-1" d="M0,0C6.84,.1,14.54,.08,21.4,.77c2.12,.2,5.05,.29,7.12,.63,4.3,.69,9.98,1.22,14.15,2.14,0,0,7.02,1.42,7.02,1.42,0,0,3.51,.71,3.51,.71,0,0,3.46,.92,3.46,.92,134.57,34.25,210.77,178.64,209.54,310.51,1.24,131.85-74.98,276.29-209.54,310.51-4.01,1.18-9.91,2.17-13.99,3.05-2.33,.53-4.7,.81-7.06,1.15-2.4,.36-8.26,1.21-10.64,1.35-2.84,.24-7.93,.57-10.69,.8C9.52,634.11,4.75,634.11,0,634.2c0,0,0-.25,0-.25,4.75-.24,9.5-.41,14.23-.72,2.46-.26,8.25-.9,10.62-1.15,1.99-.1,8.38-1.34,10.54-1.65,2.34-.4,4.68-.73,6.98-1.31,4.03-1,9.91-2.1,13.8-3.37,54.86-15.19,102.3-51.34,136.03-96.67,101.04-136.16,88.76-349.82-38.01-465.74C122.69,34.88,84.08,13.8,42.37,5.08c-4.23-1.08-9.72-1.66-14-2.48-2.54-.48-4.62-.55-7.06-.86,0,0-7.08-.77-7.08-.77C9.5,.66,4.75,.49,0,.25,0,.25,0,0,0,0H0Z"/></g></svg>