<svg xmlns="http://www.w3.org/2000/svg" viewBox="0 0 19.36 19.44"><defs><style>.cls-1{fill:#fff;}.cls-2{fill:#1d333d;}</style></defs><title>css</title><g id="Layer_2" data-name="Layer 2"><g id="Layer_1-2" data-name="Layer 1"><rect class="cls-1" width="19.36" height="19.44" rx="5.47"/><path class="cls-2" d="M9.68.55l9.13,9.17L9.68,18.9.54,9.72,9.68.55m0-.55L0,9.72l9.68,9.72,9.68-9.72L9.68,0Z"/><path class="cls-2" d="M6.56,10.08l1.07.32a2.31,2.31,0,0,1-.34.76,1.5,1.5,0,0,1-.58.45,2.19,2.19,0,0,1-.87.15,2.69,2.69,0,0,1-1.06-.18,1.75,1.75,0,0,1-.7-.66,2.24,2.24,0,0,1-.3-1.21,2,2,0,0,1,.53-1.5,2,2,0,0,1,1.47-.53A2,2,0,0,1,7,8a1.75,1.75,0,0,1,.64.93l-1.08.24a1.18,1.18,0,0,0-.12-.27.72.72,0,0,0-.25-.21.76.76,0,0,0-1,.26A1.4,1.4,0,0,0,5,9.7a1.42,1.42,0,0,0,.2.9.66.66,0,0,0,.56.25.69.69,0,0,0,.53-.2A1.26,1.26,0,0,0,6.56,10.08Z"/><path class="cls-2" d="M8,10.39l1.16-.07a.81.81,0,0,0,.15.43.64.64,0,0,0,.54.24.6.6,0,0,0,.4-.12.37.37,0,0,0,.14-.29.35.35,0,0,0-.13-.27,1.55,1.55,0,0,0-.63-.23A2.66,2.66,0,0,1,8.5,9.6a1,1,0,0,1-.35-.76,1,1,0,0,1,.18-.58,1.13,1.13,0,0,1,.53-.42,2.36,2.36,0,0,1,1-.16A2,2,0,0,1,11,8a1.24,1.24,0,0,1,.47.9l-1.15.07a.65.65,0,0,0-.19-.39.65.65,0,0,0-.41-.12.49.49,0,0,0-.32.09.28.28,0,0,0-.11.22.24.24,0,0,0,.09.17A1,1,0,0,0,9.78,9a5.35,5.35,0,0,1,1.15.35,1.21,1.21,0,0,1,.5.44,1.15,1.15,0,0,1,.16.58,1.23,1.23,0,0,1-.21.7,1.29,1.29,0,0,1-.59.49,2.39,2.39,0,0,1-.95.16,2,2,0,0,1-1.4-.38A1.55,1.55,0,0,1,8,10.39Z"/><path class="cls-2" d="M12,10.39l1.16-.07a.9.9,0,0,0,.15.43.66.66,0,0,0,.54.24.58.58,0,0,0,.4-.12.38.38,0,0,0,.15-.29.36.36,0,0,0-.14-.27,1.56,1.56,0,0,0-.62-.23,2.65,2.65,0,0,1-1.15-.48,1,1,0,0,1-.34-.76,1.09,1.09,0,0,1,.17-.58,1.19,1.19,0,0,1,.53-.42,2.38,2.38,0,0,1,1-.16A2,2,0,0,1,15,8a1.24,1.24,0,0,1,.47.9l-1.15.07a.6.6,0,0,0-.19-.39.63.63,0,0,0-.41-.12.51.51,0,0,0-.32.09.27.27,0,0,0-.1.22.27.27,0,0,0,.08.17,1,1,0,0,0,.41.14,5.17,5.17,0,0,1,1.15.35,1.15,1.15,0,0,1,.5.44,1.06,1.06,0,0,1,.16.58,1.23,1.23,0,0,1-.21.7,1.25,1.25,0,0,1-.59.49,2.35,2.35,0,0,1-.95.16,1.94,1.94,0,0,1-1.39-.38A1.51,1.51,0,0,1,12,10.39Z"/></g></g></svg>