<?xml version="1.0" encoding="UTF-8"?><svg id="Layer_2" xmlns="http://www.w3.org/2000/svg" viewBox="0 0 47.24 47.24"><defs><style>.cls-1{fill:#fff;}</style></defs><g id="Layer_1-2"><path d="m47.24,23.62C47.24,10.57,36.66,0,23.62,0S0,10.57,0,23.62c0,11.79,8.64,21.56,19.93,23.33v-16.51h-6v-6.83h6v-5.2c0-5.92,3.53-9.19,8.92-9.19,2.58,0,5.29.46,5.29.46v5.81h-2.98c-2.93,0-3.85,1.82-3.85,3.69v4.43h6.55l-1.05,6.83h-5.5v16.51c11.29-1.77,19.93-11.54,19.93-23.33Z"/><path class="cls-1" d="m32.81,30.45l1.05-6.83h-6.55v-4.43c0-1.87.92-3.69,3.85-3.69h2.98v-5.81s-2.7-.46-5.29-.46c-5.4,0-8.92,3.27-8.92,9.19v5.2h-6v6.83h6v16.51c1.2.19,2.44.29,3.69.29s2.49-.1,3.69-.29v-16.51h5.5Z"/></g></svg>