<?xml version="1.0" encoding="UTF-8"?><svg id="Layer_2" xmlns="http://www.w3.org/2000/svg" viewBox="0 0 27.09 25.18"><defs><style>.cls-1{fill-rule:evenodd;}</style></defs><g id="Layer_1-2"><g id="Layer_2-2"><g id="Layer_1-2"><path class="cls-1" d="M27,21.07l-1-4.65c.35-.75,.53-1.57,.52-2.4-.02-1.89-.96-3.66-2.52-4.73v-.52c-.02-.99-.81-1.78-1.8-1.8h-1.65c-.17,0-.34,0-.5,0s-.33,0-.49,0-.32,.04-.47,.09c-.1,.03-.19,.08-.28,.13-.13,.07-.15,.2-.15,.34,0,.22,0,.45,0,.67h-5.4c.57-1.41,3.4-1.14,4.62-1.35,1.09-.21,2.13-.64,3.05-1.27,1.6-1.16,2.38-3.14,2-5.08-.08-.68-1.16-.68-1.05,0,.51,3.94-2.81,5.24-6.14,5.56-1.73,.19-3.29,.44-3.59,2.14h-3.15c-.25-.76-.97-1.26-1.77-1.24h-2.51c-1,0-1.81,.8-1.84,1.8v.2C1.11,10.01,.01,11.91,.01,13.97c0,1.06,.3,2.09,.84,3L.09,20.37c-.45,2.07,.8,4.13,2.84,4.7,.31,.07,.63,.11,.95,.11,1.83,0,3.41-1.27,3.81-3.05l.62-2.81c.88-.42,1.64-1.06,2.22-1.84h6.21c.26,.95,.81,1.62,1.9,2l.56,2.62c.4,1.79,1.97,3.06,3.8,3.08,.27,0,.53-.03,.79-.08,.99,.02,1.94-.42,2.57-1.19,.65-.79,.88-1.85,.64-2.84Zm-9.7-6.94v-.73c0-.4,.33-.72,.73-.71,0,0,0,0,0,0h2.16v-2.16c0-.39,.31-.72,.7-.73h.73c.4,0,.73,.33,.73,.73v2.16h2.14c.4,0,.72,.31,.73,.71v.73c0,.39-.33,.71-.72,.7,0,0,0,0-.01,0h-2.18v2.14c0,.4-.31,.72-.71,.73,0,0-.01,0-.02,0h-.73c-.39-.01-.71-.34-.7-.73v-2.14h-2.15c-.39,.02-.68-.3-.7-.69,0-.01,0,0,0-.01h0Zm-14.15,.94c-.63,0-1.14-.5-1.15-1.13,0-.63,.5-1.14,1.13-1.15,.63,0,1.14,.5,1.15,1.13,0,.02,0,.03,0,.05-.02,.61-.52,1.1-1.13,1.1Zm2.32,2.35c-.64,0-1.15-.5-1.16-1.14,0-.64,.5-1.15,1.14-1.16,.64,0,1.15,.5,1.16,1.14,.01,.63-.49,1.15-1.12,1.16,0,0-.01,0-.02,0Zm0-4.7c-.63,0-1.14-.51-1.14-1.14,0-.63,.51-1.14,1.14-1.14,.63,0,1.14,.51,1.14,1.14,0,0,0,0,0,0,0,.63-.51,1.13-1.14,1.13Zm2.35,2.35c-.63-.02-1.12-.55-1.1-1.18s.55-1.12,1.18-1.1c.63,.02,1.12,.55,1.1,1.18-.02,.63-.55,1.12-1.18,1.1,0,0,0,0,0,0Z"/></g></g></g></svg>