<svg xmlns="http://www.w3.org/2000/svg" viewBox="0 0 27.06 25.21"><defs><style>.cls-1{fill:#fff;fill-rule:evenodd;}</style></defs><title>Asset 6</title><g id="Layer_2" data-name="Layer 2"><g id="Layer_1-2" data-name="Layer 1"><path class="cls-1" d="M27,21.1l-1-4.65a5.49,5.49,0,0,0,.52-2.4A5.81,5.81,0,0,0,24,9.32V8.8A1.83,1.83,0,0,0,22.2,7H19.66a1.87,1.87,0,0,0-1,.32v.92H13.26c.57-1.41,3.4-1.14,4.62-1.35a8,8,0,0,0,3.05-1.27,5.07,5.07,0,0,0,2-5.08c-.08-.68-1.16-.68-1.05,0,.51,3.94-2.81,5.24-6.14,5.56-1.73.19-3.29.44-3.59,2.14H9A1.81,1.81,0,0,0,7.23,7H4.72A1.85,1.85,0,0,0,2.88,8.8V9a5.8,5.8,0,0,0-2.87,5,5.93,5.93,0,0,0,.84,3L.09,20.4a4,4,0,0,0,2.84,4.7,4,4,0,0,0,.95.11,3.91,3.91,0,0,0,3.81-3.05l.62-2.81a6,6,0,0,0,2.22-1.84h5.4a5.64,5.64,0,0,0,2.71,2l.56,2.62A3.93,3.93,0,0,0,23,25.21h0a4.15,4.15,0,0,0,.79-.08,3.21,3.21,0,0,0,2.57-1.19A3.27,3.27,0,0,0,27,21.1Zm-9.7-6.94v-.73a.72.72,0,0,1,.73-.71h2.16V10.56a.72.72,0,0,1,.7-.73h.73a.73.73,0,0,1,.73.73v2.16h2.14a.73.73,0,0,1,.73.71v.73a.71.71,0,0,1-.73.7H22.31V17a.72.72,0,0,1-.73.73h-.73a.72.72,0,0,1-.7-.73V14.86H18a.7.7,0,0,1-.73-.7ZM3.15,15.1A1.14,1.14,0,1,1,4.28,14,1.14,1.14,0,0,1,3.15,15.1Zm2.32,2.35a1.15,1.15,0,1,1,1.14-1.16,1.14,1.14,0,0,1-1.14,1.16Zm0-4.7a1.14,1.14,0,1,1,1.14-1.13,1.14,1.14,0,0,1-1.14,1.13ZM7.82,15.1A1.14,1.14,0,1,1,9,14,1.14,1.14,0,0,1,7.82,15.1Z"/></g></g></svg>