<svg xmlns="http://www.w3.org/2000/svg" viewBox="0 0 175.48 161.21"><defs><style>.cls-1{fill:#fff;}.cls-2{fill:#c2c1c0;}</style></defs><title>Asset 1</title><g id="Layer_2" data-name="Layer 2"><g id="Layer_1-2" data-name="Layer 1"><path class="cls-1" d="M85.12,5.29a.54.54,0,0,1-.11.32.43.43,0,0,1-.38.14H82.4c-.2,0-.3-.13-.29-.39s.1-.39.29-.39h1.72s.06,0,.06,0a.07.07,0,0,0,0-.05V3.78a2.08,2.08,0,0,1-1-.51A1.7,1.7,0,0,1,82.61,2a1.7,1.7,0,0,1,.58-1.3A2.14,2.14,0,0,1,86,.67,1.71,1.71,0,0,1,86.61,2,1.71,1.71,0,0,1,86,3.27a2.08,2.08,0,0,1-.91.49ZM85.68,2a1,1,0,0,0-.3-.75,1,1,0,0,0-.76-.3,1,1,0,0,0-.76.3,1,1,0,0,0-.31.75,1,1,0,0,0,.31.75,1,1,0,0,0,.76.3,1,1,0,0,0,1.06-1Zm2.78,4.35c0,.25-.15.38-.46.38s-.46-.13-.46-.38V.45c0-.25.15-.37.46-.37s.46.12.46.37Z"/><path class="cls-1" d="M89.87,1.69c-.19,0-.29-.13-.29-.39s.1-.4.29-.4h1.36V.37c0-.25.15-.37.46-.37s.46.12.46.37V.9h1.3c.21,0,.31.13.3.4s-.1.39-.3.39h-.91A2,2,0,0,1,93,2a1.56,1.56,0,0,1,0,2.34,1.78,1.78,0,0,1-1.27.5,1.87,1.87,0,0,1-1.29-.49,1.57,1.57,0,0,1-.53-1.18A1.53,1.53,0,0,1,90.4,2a2,2,0,0,1,.42-.3Zm2.7,1.42a1,1,0,0,0-.26-.67.84.84,0,0,0-.62-.27.83.83,0,0,0-.62.27.93.93,0,0,0-.26.67.9.9,0,0,0,.26.67.8.8,0,0,0,.62.28.82.82,0,0,0,.62-.28A.94.94,0,0,0,92.57,3.11Zm4.05,2.5a1.48,1.48,0,0,1-.54,1.15,1.91,1.91,0,0,1-1.31.48,2,2,0,0,1-1.32-.47,1.5,1.5,0,0,1-.54-1.16,1.48,1.48,0,0,1,.54-1.15A1.91,1.91,0,0,1,94.77,4a2,2,0,0,1,1.31.47A1.5,1.5,0,0,1,96.62,5.61Zm-.93,0A.76.76,0,0,0,95.42,5a1,1,0,0,0-1.3,0,.76.76,0,0,0-.27.59.78.78,0,0,0,.27.6,1,1,0,0,0,1.3,0A.78.78,0,0,0,95.69,5.61Zm-.31-2.1c0,.25-.16.38-.47.38s-.46-.13-.46-.38V.45c0-.25.15-.37.46-.37s.47.12.47.37Zm1.45-2.29a.61.61,0,0,1-.17.43.61.61,0,0,1-.43.17.61.61,0,0,1-.42-.17.58.58,0,0,1-.18-.43A.58.58,0,0,1,95.81.8a.58.58,0,0,1,.42-.18.58.58,0,0,1,.43.18A.61.61,0,0,1,96.83,1.22Zm0,1.56a.57.57,0,0,1-.17.42.58.58,0,0,1-.43.18.58.58,0,0,1-.42-.18.54.54,0,0,1-.18-.42.58.58,0,0,1,.18-.43.61.61,0,0,1,.42-.17.58.58,0,0,1,.6.6Z"/><path class="cls-1" d="M27.66,24.42a2,2,0,0,1-.56,1.41,1.83,1.83,0,0,1-1.38.6,1.87,1.87,0,0,1-1.39-.59,2.08,2.08,0,0,1,0-2.84,1.92,1.92,0,0,1,2.77,0A2,2,0,0,1,27.66,24.42Zm-.91,0a1.31,1.31,0,0,0-.3-.87.91.91,0,0,0-1.45,0,1.4,1.4,0,0,0,0,1.73.91.91,0,0,0,1.45,0A1.31,1.31,0,0,0,26.75,24.42Zm-.46,4.69a.45.45,0,0,1-.38-.14.57.57,0,0,1-.11-.33V26.8c0-.25.16-.37.46-.37s.47.12.47.37v1.45a.07.07,0,0,0,0,.05s0,0,.06,0h3.5c.19,0,.29.13.29.39s-.09.39-.29.39Zm3.57-2.39c0,.25-.15.38-.46.38s-.46-.13-.46-.38v-4c0-.25.15-.38.46-.38s.46.13.46.38Z"/><path class="cls-1" d="M35.1,25.65c.09.24,0,.41-.31.51s-.47,0-.56-.21l-.92-2.83-1.5,4.49c-.08.24-.27.31-.56.21s-.39-.27-.31-.51l1.53-4.59c.08-.24.27-.31.56-.2a.53.53,0,0,1,.28.18.49.49,0,0,1,.28-.18c.29-.11.47,0,.56.2Zm2.72,3.17c0,.25-.15.38-.46.38s-.46-.13-.46-.38V27.21a.43.43,0,0,0,0-.05s0,0-.07,0h-3.5c-.19,0-.29-.13-.29-.39s.09-.39.29-.39h4a.47.47,0,0,1,.39.14.55.55,0,0,1,.1.32Zm-.55-3c0,.25-.16.38-.46.38s-.47-.13-.47-.38V22.69c0-.25.16-.38.47-.38s.46.13.46.38Z"/><path class="cls-1" d="M3.82,79.28c.07.24,0,.41-.34.49s-.48,0-.55-.23L2.14,76.7.91,81.15c-.07.24-.25.32-.55.24S0,81.14,0,80.89l1.29-4.66c.07-.25.26-.32.55-.23a.53.53,0,0,1,.28.16A.67.67,0,0,1,2.43,76c.3-.09.48,0,.55.23Zm3.32,2.09a1.51,1.51,0,0,1-.53,1.15A1.91,1.91,0,0,1,5.3,83,2,2,0,0,1,4,82.53a1.51,1.51,0,0,1,0-2.31,2,2,0,0,1,1.32-.47,1.91,1.91,0,0,1,1.31.48A1.5,1.5,0,0,1,7.14,81.37Zm-2-2.06c0,.25-.15.38-.46.38s-.47-.13-.47-.38v-3.1c0-.25.16-.37.47-.37s.46.12.46.37v1.08h.55a.26.26,0,0,1,.18.06V76.21c0-.25.16-.37.47-.37s.46.12.46.37v3.1c0,.25-.16.38-.46.38s-.47-.13-.47-.38V78a.26.26,0,0,1-.18.06H5.11Zm1.11,2A.75.75,0,0,0,6,80.67a1,1,0,0,0-.65-.25.94.94,0,0,0-.65.25.75.75,0,0,0-.27.59.76.76,0,0,0,.27.59.93.93,0,0,0,.65.24A1,1,0,0,0,6,81.85.76.76,0,0,0,6.22,81.26Z"/><path class="cls-1" d="M11.78,77.47A2.81,2.81,0,0,1,11,79.1a5.3,5.3,0,0,1-2.47,1.53c-.3.1-.5,0-.6-.22s-.06-.4.15-.47a7.14,7.14,0,0,0,1.81-1,2,2,0,0,0,.94-1.53v-.52s0,0,0-.05,0,0-.06,0H8.38c-.19,0-.29-.13-.29-.4s.09-.39.29-.39h2.91a.47.47,0,0,1,.39.14.56.56,0,0,1,.1.33Zm3.33,4.89c0,.25-.16.38-.47.38s-.46-.13-.46-.38V80.74a.13.13,0,0,0,0-.06s0,0-.06,0H10.69c-.2,0-.29-.13-.3-.39s.1-.4.3-.4h3.93A.44.44,0,0,1,15,80a.52.52,0,0,1,.11.32Zm-1.42-3c0,.25-.15.38-.46.38s-.47-.13-.47-.38V76.21c0-.25.16-.37.47-.37s.46.12.46.37Zm1.46-1.66a.56.56,0,0,1-.18.42.58.58,0,0,1-.42.18.58.58,0,0,1-.43-.18.59.59,0,0,1-.17-.42.58.58,0,0,1,.6-.6.61.61,0,0,1,.42.17A.58.58,0,0,1,15.15,77.67Z"/><path class="cls-1" d="M28,136.33a.37.37,0,0,1-.14.6.4.4,0,0,1-.62-.1L26,135l-1.52,3.4c-.1.24-.29.3-.58.2a.39.39,0,0,1-.26-.57l1.78-4H24.07c-.2,0-.29-.13-.3-.39s.1-.39.3-.39h3.64q.3,0,.3.39t-.3.39H26.44Zm2.42,3.3c0,.25-.16.37-.47.37s-.46-.12-.46-.37v-1.57a.13.13,0,0,0,0-.06s0,0-.06,0h-3.5c-.19,0-.29-.13-.29-.39s.09-.4.29-.4h4a.44.44,0,0,1,.38.15.52.52,0,0,1,.11.32Zm-.55-3c0,.25-.16.37-.47.37s-.46-.12-.46-.37v-3.17c0-.25.15-.38.46-.38s.47.13.47.38Z"/><path class="cls-1" d="M34.87,134.74a2.86,2.86,0,0,1-.75,1.63,5.21,5.21,0,0,1-2.47,1.52c-.3.1-.5,0-.61-.21s-.05-.4.16-.47a6.9,6.9,0,0,0,1.81-1,2,2,0,0,0,.94-1.53v-.51a.43.43,0,0,0,0,0s0,0-.07,0h-2.4c-.19,0-.29-.13-.29-.39s.09-.39.29-.39h2.91a.44.44,0,0,1,.39.14.53.53,0,0,1,.1.32Zm3.33,4.69a.57.57,0,0,1-.11.33.46.46,0,0,1-.38.14H34.06a.45.45,0,0,1-.38-.14.57.57,0,0,1-.11-.33V137.6a.56.56,0,0,1,.11-.32.45.45,0,0,1,.38-.14h3.65a.46.46,0,0,1,.38.14.56.56,0,0,1,.11.32ZM37.27,138a.07.07,0,0,0,0-.05s0,0-.06,0H34.57s-.06,0-.06,0a.07.07,0,0,0,0,.05v1a.07.07,0,0,0,0,.05s0,0,.06,0H37.2s.06,0,.06,0a.07.07,0,0,0,0-.05Zm-.49-1.4c0,.25-.16.37-.46.37s-.47-.12-.47-.37v-3.12c0-.25.16-.38.47-.38s.46.13.46.38Zm1.45-1.67a.58.58,0,0,1-.6.6.57.57,0,0,1-.42-.17.57.57,0,0,1-.17-.43.57.57,0,0,1,.17-.42.58.58,0,0,1,.42-.18.58.58,0,0,1,.43.18A.57.57,0,0,1,38.23,134.93Z"/><path class="cls-1" d="M146.48,24a2.89,2.89,0,0,1-.76,1.63,5.16,5.16,0,0,1-2.47,1.52q-.44.15-.6-.21c-.11-.24-.06-.4.15-.47a6.74,6.74,0,0,0,1.81-1,2,2,0,0,0,.94-1.53v-.51a.07.07,0,0,0,0-.05s0,0-.06,0h-2.41c-.19,0-.29-.13-.29-.39s.1-.39.29-.39H146a.43.43,0,0,1,.38.14.54.54,0,0,1,.11.32Zm3.32,4.69a.56.56,0,0,1-.1.33.47.47,0,0,1-.39.14h-3.64a.47.47,0,0,1-.39-.14.56.56,0,0,1-.1-.33V26.81a.55.55,0,0,1,.1-.32.47.47,0,0,1,.39-.14h3.64a.47.47,0,0,1,.39.14.55.55,0,0,1,.1.32Zm-.93-1.43v-.05s0,0-.07,0h-2.63a.06.06,0,0,0-.06,0,.43.43,0,0,0,0,.05v1a.43.43,0,0,0,0,.05.06.06,0,0,0,.06,0h2.63s.06,0,.07,0V27.21Zm-.49-1.4c0,.25-.15.37-.46.37s-.46-.12-.46-.37V22.69c0-.25.15-.38.46-.38s.46.13.46.38Zm1.46-1.67a.58.58,0,0,1-.18.43.6.6,0,0,1-.84,0,.58.58,0,0,1-.18-.43.58.58,0,0,1,.18-.42.58.58,0,0,1,.84,0A.58.58,0,0,1,149.84,24.14Z"/><path class="cls-1" d="M154.26,24a2.86,2.86,0,0,1-.75,1.63A5.21,5.21,0,0,1,151,27.1q-.45.15-.6-.21c-.11-.24-.06-.4.15-.47a6.9,6.9,0,0,0,1.81-1,2,2,0,0,0,.94-1.53v-.51a.43.43,0,0,0,0-.05.06.06,0,0,0-.06,0h-2.41c-.19,0-.29-.13-.29-.39s.09-.39.29-.39h2.91a.44.44,0,0,1,.39.14.53.53,0,0,1,.1.32Zm3.33,4.89c0,.25-.16.37-.47.37s-.46-.12-.46-.37V27.21a.07.07,0,0,0,0-.05s0,0-.06,0h-3.43c-.19,0-.28-.13-.29-.39s.1-.39.29-.39h3.94a.46.46,0,0,1,.38.14.56.56,0,0,1,.11.32Zm-1.42-3c0,.25-.16.37-.46.37s-.47-.12-.47-.37V22.69c0-.25.16-.38.47-.38s.46.13.46.38Zm1.46-1.67a.58.58,0,0,1-.18.43.57.57,0,0,1-.42.17.58.58,0,0,1-.6-.6.57.57,0,0,1,.17-.42.58.58,0,0,1,.43-.18.62.62,0,0,1,.6.6Z"/><path class="cls-1" d="M162.75,81.71c-.19,0-.29-.13-.29-.39s.09-.4.29-.4h5.31c.2,0,.3.13.3.4s-.1.39-.3.39Zm.82-2.4a.46.46,0,0,1-.38-.14.57.57,0,0,1-.11-.33V76.28c0-.25.16-.38.47-.38s.46.13.46.38v2.17a.07.07,0,0,0,0,0s0,0,.06,0h3.43c.2,0,.3.13.29.39s-.11.39-.3.39Z"/><path class="cls-1" d="M173,79.33c0,.25-.15.38-.46.38s-.46-.13-.46-.38V76.87s0,0,0-.05,0,0-.06,0h-.89a.28.28,0,0,1-.18-.06v.94a3.65,3.65,0,0,1-.33,1.37,3.9,3.9,0,0,1-1.4,1.57c-.24.18-.44.16-.59-.06a.36.36,0,0,1,0-.53,5.08,5.08,0,0,0,1-1.12,2.33,2.33,0,0,0,.36-1.32v-.77s0,0-.07,0h-.92c-.2,0-.29-.13-.3-.4s.1-.39.3-.39h1.43a.42.42,0,0,1,.38.15l0,0a.25.25,0,0,1,.27-.18h1.39a.47.47,0,0,1,.39.14.56.56,0,0,1,.1.33Zm2.45,2.92a.53.53,0,0,1-.1.32.44.44,0,0,1-.39.14h-3.64a.42.42,0,0,1-.38-.14.54.54,0,0,1-.11-.32V80.34A.52.52,0,0,1,171,80a.42.42,0,0,1,.38-.15H175a.45.45,0,0,1,.39.15.51.51,0,0,1,.1.32Zm-.92-1.51a.13.13,0,0,0,0-.06s0,0-.06,0h-2.63a.1.1,0,0,0-.07,0V81.9s0,0,.07,0h2.63s.06,0,.06,0a.07.07,0,0,0,0-.05Zm.36-1.41c0,.25-.15.38-.46.38s-.46-.13-.46-.38V76.21c0-.25.15-.37.46-.37s.46.12.46.37Z"/><path class="cls-1" d="M144.6,137.46a.53.53,0,0,1-.1.32.44.44,0,0,1-.39.14h-1.29c-.2,0-.3-.13-.29-.39s.1-.39.29-.39h.78s.06,0,.07,0v-2.48c0-.25.16-.37.47-.37s.46.12.46.37Zm-1.45-3.4c-.19,0-.29-.13-.29-.39s.1-.39.29-.39h3.58q.32,0,.3.39t-.3.39Zm2.52,5.84a.46.46,0,0,1-.38-.14.57.57,0,0,1-.11-.33v-1.84c0-.25.16-.37.47-.37s.46.12.46.37V139a.07.07,0,0,0,0,.05s0,0,.06,0h3.35c.19,0,.29.13.29.39s-.09.39-.29.39Zm.62-3.22c0,.25-.15.37-.46.37s-.47-.12-.47-.37v-2.05c0-.25.16-.37.47-.37s.46.12.46.37Zm2.09.83c0,.25-.15.38-.46.38s-.46-.13-.46-.38v-4c0-.25.15-.38.46-.38s.46.13.46.38Zm1.46-2.25a.58.58,0,0,1-.6.6.57.57,0,0,1-.42-.17.58.58,0,0,1-.18-.43.56.56,0,0,1,.18-.42.54.54,0,0,1,.42-.18.58.58,0,0,1,.43.18A.59.59,0,0,1,149.84,135.26Z"/><path class="cls-1" d="M151.74,134.06s-.06,0-.06,0a.07.07,0,0,0,0,0v2.69a.14.14,0,0,0,0,.06,0,0,0,0,0,.05,0,3.87,3.87,0,0,0,1.31-.47,9.1,9.1,0,0,0,1.24-.78q.26-.21.51.12t-.09.63a9.49,9.49,0,0,1-1.29.81h0c.31,0,.47.12.47.37v1.5s0,0,.07,0h3.5c.19,0,.29.13.29.39s-.09.39-.29.39h-4a.45.45,0,0,1-.38-.14.57.57,0,0,1-.11-.33v-1.84a.78.78,0,0,1,0-.16,5.43,5.43,0,0,1-1.76.52.42.42,0,0,1-.34-.14.46.46,0,0,1-.15-.33v-3.74a.54.54,0,0,1,.11-.32.43.43,0,0,1,.38-.14h2.84c.19,0,.29.13.29.39s-.1.39-.29.39Zm4.43,3.45c0,.25-.15.38-.46.38s-.47-.13-.47-.38v-4c0-.25.16-.38.47-.38s.46.13.46.38Zm1.46-2.25a.58.58,0,0,1-.18.43.61.61,0,0,1-.42.17.58.58,0,0,1-.6-.6.59.59,0,0,1,.17-.42.58.58,0,0,1,.43-.18.58.58,0,0,1,.42.18A.56.56,0,0,1,157.63,135.26Z"/><path class="cls-1" d="M83.47,158.65a.14.14,0,0,0,0,.06s0,0,.05,0a4.87,4.87,0,0,0,1-.25,5.64,5.64,0,0,0,1.06-.5c.22-.13.39-.06.5.21a.42.42,0,0,1-.21.59c-.35.17-.73.34-1.14.5a7,7,0,0,1-1.69.38.38.38,0,0,1-.34-.14.46.46,0,0,1-.15-.33v-4.58c0-.25.15-.37.46-.37s.46.12.46.37Zm3.67,1.65c0,.24-.15.37-.46.37s-.47-.13-.47-.37v-5.87c0-.25.16-.38.47-.38s.46.13.46.38v2.08h.51a.26.26,0,0,1,.26.2v-2.28c0-.25.16-.38.46-.38s.47.13.47.38v5.87c0,.24-.16.37-.47.37s-.46-.13-.46-.37v-3.19a.25.25,0,0,1-.26.19h-.51Z"/><path class="cls-1" d="M90.06,155.66c-.19,0-.29-.13-.29-.39s.09-.39.29-.39h1.35v-.53c0-.25.16-.38.47-.38s.46.13.46.38v.53h1.3q.3,0,.3.39t-.3.39h-.92a1.75,1.75,0,0,1,.42.31,1.49,1.49,0,0,1,.53,1.16,1.56,1.56,0,0,1-.52,1.18,1.92,1.92,0,0,1-2.56,0,1.57,1.57,0,0,1-.53-1.18,1.53,1.53,0,0,1,.53-1.17,2,2,0,0,1,.42-.3Zm2.69,1.43a.9.9,0,0,0-.26-.67.84.84,0,0,0-1.23,0,.9.9,0,0,0-.27.67.92.92,0,0,0,.27.67.84.84,0,0,0,1.23,0A.91.91,0,0,0,92.75,157.09Zm4,2.5a1.5,1.5,0,0,1-.54,1.15,2.06,2.06,0,0,1-2.62,0,1.48,1.48,0,0,1-.54-1.15,1.5,1.5,0,0,1,.54-1.16A2,2,0,0,1,95,158a1.87,1.87,0,0,1,1.3.48A1.48,1.48,0,0,1,96.8,159.59Zm-.92,0a.75.75,0,0,0-.27-.59.91.91,0,0,0-.65-.25.9.9,0,0,0-.65.25.75.75,0,0,0-.27.59.76.76,0,0,0,.27.59.93.93,0,0,0,.65.24,1,1,0,0,0,.65-.24A.76.76,0,0,0,95.88,159.59Zm-.32-2.11c0,.25-.15.38-.46.38s-.46-.13-.46-.38v-3c0-.25.15-.38.46-.38s.46.13.46.38ZM97,155.2a.58.58,0,0,1-.18.42.58.58,0,0,1-.84,0,.58.58,0,0,1-.18-.42.58.58,0,0,1,.18-.43.6.6,0,0,1,.84,0A.58.58,0,0,1,97,155.2Zm0,1.55a.58.58,0,0,1-.18.43.6.6,0,0,1-.84,0,.58.58,0,0,1-.18-.43.58.58,0,0,1,.18-.42.58.58,0,0,1,.84,0A.58.58,0,0,1,97,156.75Z"/><path class="cls-1" d="M139.74,29.48s0-.05-.07-.06l-50-20.73h-.1l-50,20.73h0a.09.09,0,0,0-.06.06l-20.73,50a.17.17,0,0,0,0,.1h0l20.73,50h0a.13.13,0,0,0,.06.07l50,20.72h.1l50-20.72a.1.1,0,0,0,0,0l0,0,20.72-50a.09.09,0,0,0,0-.1Zm-.16,99.91L119.17,109,131.3,79.7h28.86Zm-100-99.64L60,50.16,47.86,79.45H19Zm79.39,79L89.88,79.7H131ZM89.71,38.13l29.09,12L89.71,79.27Zm.17,41.32L119,50.35l12,29.1ZM119,50,89.71,37.86V9L139.4,29.58ZM89.46,121l-29.1-12,29.1-29.1ZM60.19,50.35l29.09,29.1H48.14ZM89.46,79.27,60.36,50.18l29.1-12Zm-.18.43L60.19,108.79l-12-29.09ZM60.17,109.16l29.29,12.13v28.86l-49.7-20.58ZM89.71,79.87,118.8,109,89.71,121Zm70.45-.42H131.3L119.17,50.16l20.41-20.41ZM89.46,9V37.86L60.17,50,39.76,29.58ZM19,79.7H47.86L60,109,39.59,129.39Zm70.71,70.45V121.29L119,109.16l20.41,20.41Z"/><circle class="cls-2" cx="28.65" cy="79.57" r="4.39"/><circle class="cls-2" cx="125.39" cy="79.57" r="1.7"/><circle class="cls-2" cx="114.03" cy="55.15" r="1.42"/><circle class="cls-2" cx="89.58" cy="38.13" r="0.99"/><circle class="cls-2" cx="51.26" cy="41.36" r="0.99"/><circle class="cls-2" cx="43.46" cy="125.66" r="2.98"/><circle class="cls-2" cx="89.58" cy="135.54" r="2.55"/><circle class="cls-2" cx="135.59" cy="125.58" r="2.13"/><path class="cls-2" d="M89.58,135.67h0l-46.19-9.89,0-.07L28.52,79.56l0,0L51.18,41.24h.07L89.6,38l0,0,24.5,17.06,0,0L125.5,79.52l10.24,46.15-.13,0Zm-46-10.12,46,9.86,45.86-9.93L125.26,79.6,113.93,55.23l-24.4-17-38.2,3.25L28.79,79.59Z"/></g></g></svg>