<?xml version="1.0" encoding="UTF-8"?><svg id="Layer_2" xmlns="http://www.w3.org/2000/svg" viewBox="0 0 175.49 161.21"><defs><style>.cls-1{fill:#101010;}</style></defs><g id="Layer_1-2"><path class="cls-1" d="M89.58,135.67h0l-46.19-9.89v-.07l-14.87-46.15h0l22.66-38.32h.07l38.35-3.24h0l24.5,17.06h0l11.4,24.46,10.24,46.15h-.13l-46.03,10Zm-46-10.12l46,9.86,45.86-9.93-10.18-45.88-11.33-24.37-24.4-17-38.2,3.25-22.54,38.11,14.79,45.96Z"/><path d="M85.12,5.29c0,.12-.04,.23-.11,.32-.1,.11-.24,.16-.38,.14h-2.23c-.2,0-.3-.13-.29-.39s.1-.39,.29-.39h1.78s0-.03,0-.05v-1.14c-.37-.08-.72-.25-1-.51-.36-.32-.57-.78-.57-1.27,0-.5,.21-.97,.58-1.3,.8-.71,2-.72,2.81-.03,.39,.33,.62,.82,.61,1.33-.01,.49-.23,.95-.61,1.27-.26,.24-.57,.41-.91,.49l.03,1.53Zm.56-3.29c0-.28-.1-.55-.3-.75-.2-.2-.48-.31-.76-.3-.28-.01-.56,.1-.76,.3-.2,.19-.32,.47-.31,.75,0,.28,.11,.56,.31,.75,.2,.2,.48,.31,.76,.3,.55,.03,1.03-.39,1.06-.94,0-.02,0-.04,0-.06v-.05Zm2.78,4.35c0,.25-.15,.38-.46,.38s-.46-.13-.46-.38V.45c0-.25,.15-.37,.46-.37s.46,.12,.46,.37V6.35Z"/><path d="M89.87,1.69c-.19,0-.29-.13-.29-.39s.1-.4,.29-.4h1.36V.37c0-.25,.15-.37,.46-.37s.46,.12,.46,.37V.9h1.3c.21,0,.31,.13,.3,.4s-.1,.39-.3,.39h-.91c.17,.08,.32,.19,.46,.31,.65,.57,.71,1.56,.14,2.2-.04,.05-.09,.1-.14,.14-.34,.33-.8,.51-1.27,.5-.48,0-.94-.17-1.29-.49-.34-.3-.53-.73-.53-1.18-.01-.44,.17-.87,.49-1.17,.13-.12,.27-.22,.42-.3h-.95Zm2.7,1.41c0-.25-.09-.49-.26-.67-.16-.17-.38-.27-.62-.27-.24,0-.46,.1-.62,.27-.17,.18-.27,.42-.26,.67-.01,.25,.08,.49,.26,.67,.15,.18,.38,.28,.62,.28,.24,0,.46-.1,.62-.28,.17-.18,.27-.42,.26-.67Zm4.05,2.5c0,.45-.2,.87-.54,1.15-.36,.32-.83,.49-1.31,.48-.48,0-.95-.16-1.32-.47-.34-.29-.54-.71-.54-1.16,0-.45,.2-.87,.54-1.15,.37-.31,.84-.48,1.32-.46,.48,0,.94,.16,1.31,.47,.34,.28,.54,.7,.54,1.14Zm-.93,0c0-.23-.09-.46-.27-.61-.37-.32-.93-.32-1.3,0-.17,.15-.27,.36-.27,.59,0,.23,.1,.45,.27,.6,.37,.32,.93,.32,1.3,0,.17-.15,.27-.36,.27-.58Zm-.31-2.1c0,.25-.16,.38-.47,.38s-.46-.13-.46-.38V.45c0-.25,.15-.37,.46-.37s.47,.12,.47,.37V3.51Zm1.45-2.29c0,.16-.06,.31-.17,.43-.12,.11-.27,.17-.43,.17-.16,0-.31-.06-.42-.17-.12-.11-.18-.27-.18-.43,0-.16,.07-.31,.18-.42,.11-.11,.26-.18,.42-.18,.16,0,.32,.06,.43,.18,.11,.11,.17,.26,.17,.42Zm0,1.56c0,.16-.06,.31-.17,.42-.11,.12-.27,.18-.43,.18-.16,0-.31-.07-.42-.18-.12-.11-.19-.26-.18-.42,0-.16,.06-.32,.18-.43,.11-.11,.26-.17,.42-.17,.32-.01,.59,.24,.6,.56,0,.01,0,.03,0,.04Z"/><path d="M27.66,24.42c0,.53-.2,1.03-.56,1.41-.35,.39-.86,.61-1.38,.6-.53,0-1.03-.21-1.39-.59-.75-.8-.75-2.04,0-2.84,.73-.76,1.95-.79,2.71-.06,.02,.02,.04,.04,.06,.06,.37,.38,.57,.89,.56,1.42Zm-.91,0c0-.32-.1-.63-.3-.87-.3-.4-.87-.48-1.27-.18-.07,.05-.12,.11-.18,.18-.4,.51-.4,1.22,0,1.73,.3,.4,.87,.48,1.27,.18,.07-.05,.12-.11,.18-.18,.2-.24,.31-.55,.3-.86Zm-.46,4.69c-.14,.02-.28-.04-.38-.14-.07-.1-.11-.21-.11-.33v-1.84c0-.25,.16-.37,.46-.37s.47,.12,.47,.37v1.45s0,.03,0,.05h3.56c.19,0,.29,.13,.29,.39s-.09,.39-.29,.39l-4,.03Zm3.57-2.39c0,.25-.15,.38-.46,.38s-.46-.13-.46-.38v-4c0-.25,.15-.38,.46-.38s.46,.13,.46,.38v4Z"/><path d="M35.1,25.65c.09,.24,0,.41-.31,.51s-.47,0-.56-.21l-.92-2.83-1.5,4.49c-.08,.24-.27,.31-.56,.21s-.39-.27-.31-.51l1.53-4.59c.08-.24,.27-.31,.56-.2,.11,.03,.21,.09,.28,.18,.07-.09,.17-.15,.28-.18,.29-.11,.47,0,.56,.2l.95,2.93Zm2.72,3.17c0,.25-.15,.38-.46,.38s-.46-.13-.46-.38v-1.61s0-.03,0-.05h-3.57c-.19,0-.29-.13-.29-.39s.09-.39,.29-.39h4c.14-.02,.29,.04,.39,.14,.07,.09,.1,.21,.1,.32v1.98Zm-.55-3c0,.25-.16,.38-.46,.38s-.47-.13-.47-.38v-3.13c0-.25,.16-.38,.47-.38s.46,.13,.46,.38v3.13Z"/><path d="M3.82,79.28c.07,.24,0,.41-.34,.49s-.48,0-.55-.23l-.79-2.84-1.23,4.45c-.07,.24-.25,.32-.55,.24s-.36-.25-.36-.5l1.29-4.66c.07-.25,.26-.32,.55-.23,.11,.02,.21,.08,.28,.16,.09-.08,.19-.13,.31-.16,.3-.09,.48,0,.55,.23l.84,3.05Zm3.32,2.09c0,.44-.19,.86-.53,1.15-.36,.32-.83,.49-1.31,.48-.48,0-.94-.16-1.3-.47-.64-.54-.72-1.49-.18-2.13,.06-.07,.12-.13,.18-.18,.37-.31,.84-.48,1.32-.47,.48-.01,.95,.16,1.31,.48,.33,.29,.51,.7,.51,1.14Zm-2-2.06c0,.25-.15,.38-.46,.38s-.47-.13-.47-.38v-3.1c0-.25,.16-.37,.47-.37s.46,.12,.46,.37v1.08h.55c.07,0,.13,.02,.18,.06v-1.14c0-.25,.16-.37,.47-.37s.46,.12,.46,.37v3.1c0,.25-.16,.38-.46,.38s-.47-.13-.47-.38v-1.31c-.05,.04-.11,.06-.18,.06h-.58l.03,1.25Zm1.11,2c.03-.24-.07-.48-.25-.64-.18-.16-.41-.25-.65-.25-.24,0-.47,.09-.65,.25-.17,.15-.27,.36-.27,.59,0,.23,.1,.44,.27,.59,.18,.16,.41,.25,.65,.24,.24,0,.47-.09,.65-.24,.16-.16,.24-.37,.22-.59l.03,.05Z"/><path d="M11.78,77.47c-.07,.61-.35,1.19-.78,1.63-.66,.73-1.52,1.26-2.47,1.53-.3,.1-.5,0-.6-.22s-.06-.4,.15-.47c.65-.24,1.26-.58,1.81-1,.54-.33,.89-.9,.94-1.53v-.57c0-.05,0,0-.06,0h-2.39c-.19,0-.29-.13-.29-.4s.09-.39,.29-.39h2.91c.14-.02,.29,.04,.39,.14,.07,.1,.1,.21,.1,.33v.95Zm3.33,4.89c0,.25-.16,.38-.47,.38s-.46-.13-.46-.38v-1.62s0-.04,0-.06h-3.49c-.2,0-.29-.13-.3-.39s.1-.4,.3-.4h3.93c.14-.03,.28,.02,.38,.11,.07,.09,.11,.2,.11,.32v2.04Zm-1.42-3c0,.25-.15,.38-.46,.38s-.47-.13-.47-.38v-3.15c0-.25,.16-.37,.47-.37s.46,.12,.46,.37v3.15Zm1.46-1.66c0,.16-.06,.31-.18,.42-.11,.11-.26,.18-.42,.18-.16,0-.32-.06-.43-.18-.11-.11-.17-.26-.17-.42-.01-.32,.24-.59,.56-.6,.01,0,.03,0,.04,0,.16,0,.31,.06,.42,.17,.11,.1,.17,.25,.18,.4v.03Z"/><path d="M28,136.33c.14,.15,.13,.38-.02,.52-.04,.03-.08,.06-.12,.08-.16,.15-.42,.14-.57-.02-.02-.02-.04-.05-.05-.08l-1.24-1.83-1.52,3.4c-.1,.24-.29,.3-.58,.2-.21-.04-.34-.25-.3-.46,0-.04,.02-.07,.04-.11l1.78-4h-1.35c-.2,0-.29-.13-.3-.39s.1-.39,.3-.39h3.64c.2,0,.3,.13,.3,.39,0,.26-.1,.39-.3,.39h-1.27l1.56,2.3Zm2.42,3.3c0,.25-.16,.37-.47,.37s-.46-.12-.46-.37v-1.57s0-.04,0-.06h-3.56c-.19,0-.29-.13-.29-.39s.09-.4,.29-.4h4c.14-.02,.29,.04,.38,.15,.07,.09,.11,.2,.11,.32v1.95Zm-.55-3c0,.25-.16,.37-.47,.37s-.46-.12-.46-.37v-3.17c0-.25,.15-.38,.46-.38s.47,.13,.47,.38v3.17Z"/><path d="M34.87,134.74c-.07,.61-.33,1.18-.75,1.63-.66,.73-1.52,1.26-2.47,1.52-.3,.1-.5,0-.61-.21s-.05-.4,.16-.47c.65-.24,1.26-.58,1.81-1,.54-.33,.89-.9,.94-1.53v-.51h-2.47c-.19,0-.29-.13-.29-.39s.09-.39,.29-.39h2.91c.15-.02,.29,.03,.39,.14,.07,.09,.1,.21,.1,.32v.89Zm3.32,4.69c0,.12-.04,.23-.11,.33-.1,.1-.24,.15-.38,.14h-3.65c-.14,.02-.28-.04-.38-.14-.07-.1-.11-.21-.11-.33v-1.83c0-.12,.04-.23,.11-.32,.1-.1,.24-.16,.38-.14h3.65c.14-.01,.28,.04,.38,.14,.07,.09,.11,.2,.11,.32v1.83Zm-.93-1.43s0-.03,0-.05h-2.76s0,.03,0,.05v1s0,.03,0,.05h2.75s0-.03,0-.05v-1Zm-.48-1.4c0,.25-.16,.37-.46,.37s-.47-.12-.47-.37v-3.12c0-.25,.16-.38,.47-.38s.46,.13,.46,.38v3.12Zm1.45-1.67c.01,.32-.24,.59-.56,.6-.01,0-.03,0-.04,0-.16,0-.31-.06-.42-.17-.11-.11-.18-.27-.17-.43,0-.16,.06-.31,.17-.42,.11-.11,.26-.18,.42-.18,.16,0,.32,.06,.43,.18,.11,.11,.17,.26,.17,.42h0Z"/><path d="M146.48,24c-.07,.61-.34,1.18-.76,1.63-.66,.73-1.52,1.26-2.47,1.52-.29,.1-.49,.03-.6-.21-.11-.24-.06-.4,.15-.47,.65-.24,1.26-.58,1.81-1,.54-.33,.89-.9,.94-1.53v-.51s0-.03,0-.05h-2.47c-.19,0-.29-.13-.29-.39s.1-.39,.29-.39h2.92c.14-.02,.28,.03,.38,.14,.07,.09,.11,.2,.11,.32v.94Zm3.31,4.69c0,.12-.03,.23-.1,.33-.1,.1-.25,.16-.39,.14h-3.64c-.14,.02-.29-.04-.39-.14-.07-.1-.1-.21-.1-.33v-1.88c0-.11,.03-.23,.1-.32,.1-.1,.25-.16,.39-.14h3.64c.14-.02,.29,.04,.39,.14,.07,.09,.1,.21,.1,.32v1.88Zm-.93-1.43v-.05h-2.7s-.04-.01-.06,0c0,.02,0,.03,0,.05v1s0,.03,0,.05c.02,.01,.04,.01,.06,0h2.7v-1.05Zm-.49-1.4c0,.25-.15,.37-.46,.37s-.46-.12-.46-.37v-3.17c0-.25,.15-.38,.46-.38s.46,.13,.46,.38v3.17Zm1.46-1.67c0,.16-.06,.32-.18,.43-.23,.23-.61,.23-.84,0-.12-.11-.18-.27-.18-.43,0-.16,.07-.31,.18-.42,.22-.23,.59-.24,.82-.02,0,0,.01,.01,.02,.02,.1,.1,.17,.23,.18,.37v.05Z"/><path d="M154.26,24c-.07,.61-.33,1.18-.75,1.63-.68,.72-1.55,1.23-2.51,1.47-.3,.1-.5,.03-.6-.21-.11-.24-.06-.4,.15-.47,.65-.24,1.26-.58,1.81-1,.54-.33,.89-.9,.94-1.53v-.51s0-.03,0-.05c-.02-.01-.04-.01-.06,0h-2.41c-.19,0-.29-.13-.29-.39s.09-.39,.29-.39h2.91c.15-.02,.29,.03,.39,.14,.07,.09,.1,.21,.1,.32l.03,.99Zm3.33,4.89c0,.25-.16,.37-.47,.37s-.46-.12-.46-.37v-1.68s0-.03,0-.05h-3.49c-.19,0-.28-.13-.29-.39s.1-.39,.29-.39h3.94c.14-.01,.28,.04,.38,.14,.07,.09,.11,.2,.11,.32v2.05Zm-1.43-3c0,.25-.16,.37-.46,.37s-.47-.12-.47-.37v-3.2c0-.25,.16-.38,.47-.38s.46,.13,.46,.38v3.2Zm1.46-1.67c0,.16-.06,.32-.18,.43-.11,.11-.26,.17-.42,.17-.32,.01-.59-.24-.6-.56,0-.01,0-.03,0-.04,0-.16,.06-.31,.17-.42,.11-.12,.27-.18,.43-.18,.33,.01,.59,.27,.6,.6Z"/><path d="M162.75,81.71c-.19,0-.29-.13-.29-.39s.09-.4,.29-.4h5.31c.2,0,.3,.13,.3,.4s-.1,.39-.3,.39h-5.31Zm.82-2.4c-.14,.01-.28-.04-.38-.14-.07-.1-.11-.21-.11-.33v-2.56c0-.25,.16-.38,.47-.38s.46,.13,.46,.38v2.17h3.49c.2,0,.3,.13,.29,.39s-.11,.39-.3,.39l-3.92,.08Z"/><path d="M173,79.33c0,.25-.15,.38-.46,.38s-.46-.13-.46-.38v-2.51c0-.05,0,0-.06,0h-.89c-.07,0-.13-.02-.18-.06v.94c-.02,.47-.13,.94-.33,1.37-.31,.64-.8,1.18-1.4,1.57-.24,.18-.44,.16-.59-.06-.15-.13-.16-.36-.02-.51,0,0,.01-.01,.02-.02,.39-.32,.72-.7,1-1.12,.25-.39,.37-.85,.36-1.32v-.77h-.99c-.2,0-.29-.13-.3-.4s.1-.39,.3-.39h1.43c.14-.02,.29,.04,.38,.15h0c.03-.12,.15-.19,.27-.18h1.39c.14-.02,.29,.04,.39,.14,.07,.1,.1,.21,.1,.33l.04,2.84Zm2.45,2.92c0,.11-.03,.23-.1,.32-.1,.11-.24,.16-.39,.14h-3.64c-.14,.02-.29-.03-.38-.14-.07-.09-.11-.2-.11-.32v-1.91c.01-.13,.07-.25,.17-.34,.09-.11,.24-.17,.38-.15h3.62c.15-.02,.29,.04,.39,.15,.07,.09,.1,.21,.1,.32l-.04,1.93Zm-.92-1.51s0-.04,0-.06h-2.69s-.05,0-.07,0v1.22h2.76s0-.03,0-.05v-1.11Zm.36-1.41c0,.25-.15,.38-.46,.38s-.46-.13-.46-.38v-3.12c0-.25,.15-.37,.46-.37s.46,.12,.46,.37v3.12Z"/><path d="M144.6,137.46c0,.11-.03,.23-.1,.32-.1,.11-.24,.16-.39,.14h-1.29c-.2,0-.3-.13-.29-.39s.1-.39,.29-.39h.85v-2.48c0-.25,.16-.37,.47-.37s.46,.12,.46,.37v2.8Zm-1.45-3.4c-.19,0-.29-.13-.29-.39s.1-.39,.29-.39h3.58c.21,0,.31,.13,.3,.39s-.11,.39-.3,.39h-3.58Zm2.52,5.84c-.14,.01-.28-.04-.38-.14-.07-.1-.11-.21-.11-.33v-1.84c0-.25,.16-.37,.47-.37s.46,.12,.46,.37v1.41s0,.03,0,.05h3.41c.19,0,.29,.13,.29,.39s-.09,.39-.29,.39l-3.85,.07Zm.62-3.22c0,.25-.15,.37-.46,.37s-.47-.12-.47-.37v-2.05c0-.25,.16-.37,.47-.37s.46,.12,.46,.37v2.05Zm2.09,.83c0,.25-.15,.38-.46,.38s-.46-.13-.46-.38v-4c0-.25,.15-.38,.46-.38s.46,.13,.46,.38v4Zm1.46-2.25c.01,.32-.24,.59-.56,.6-.01,0-.03,0-.04,0-.16,0-.31-.06-.42-.17-.12-.11-.18-.27-.18-.43,0-.16,.06-.31,.18-.42,.11-.12,.26-.19,.42-.18,.16,0,.32,.06,.43,.18,.11,.11,.17,.26,.17,.42h0Z"/><path d="M151.55,136.81c.46-.08,1.08-.24,1.49-.47,.43-.23,.85-.49,1.24-.78,.17-.14,.34-.1,.51,.12s.14,.43-.09,.63c-.41,.3-.84,.57-1.29,.81h0c.31,0,.47,.12,.47,.37v1.5h3.57c.19,0,.29,.13,.29,.39s-.09,.39-.29,.39h-4c-.14,.02-.28-.04-.38-.14-.07-.1-.11-.21-.11-.33v-1.84c0-.05,0-.11,0-.16-.55,.27-1.15,.45-1.76,.52-.13,0-.25-.04-.34-.14-.09-.08-.15-.2-.15-.33v-3.74c0-.12,.04-.23,.11-.32,.1-.11,.24-.16,.38-.14h2.84c.19,0,.29,.13,.29,.39,0,.56-2.57,.39-2.76,.39v2.88Zm4.6,.7c0,.25-.15,.38-.46,.38s-.47-.13-.47-.38v-4c0-.25,.16-.38,.47-.38s.46,.13,.46,.38v4Zm1.46-2.25c0,.16-.06,.32-.18,.43-.11,.11-.26,.17-.42,.17-.32,.01-.59-.24-.6-.56,0-.01,0-.03,0-.04,0-.16,.06-.31,.17-.42,.11-.12,.27-.18,.43-.18,.16,0,.31,.07,.42,.18,.12,.11,.18,.26,.18,.42Z"/><path d="M83.47,158.65s0,.04,0,.06h.05c.34-.05,.68-.13,1-.25,.37-.13,.72-.3,1.06-.5,.22-.13,.39-.06,.5,.21,.11,.2,.04,.46-.17,.57-.01,0-.03,.01-.04,.02-.35,.17-.73,.34-1.14,.5-.55,.2-1.11,.32-1.69,.38-.13,.01-.26-.04-.34-.14-.09-.08-.15-.2-.15-.33v-4.58c0-.25,.15-.37,.46-.37s.46,.12,.46,.37v4.06Zm3.67,1.65c0,.24-.15,.37-.46,.37s-.47-.13-.47-.37v-5.87c0-.25,.16-.38,.47-.38s.46,.13,.46,.38v2.08h.51c.12,0,.23,.08,.26,.2v-2.28c0-.25,.16-.38,.46-.38s.47,.13,.47,.38v5.87c0,.24-.16,.37-.47,.37s-.46-.13-.46-.37v-3.19c-.03,.12-.14,.2-.26,.19h-.51v3Z"/><path d="M90.06,155.66c-.19,0-.29-.13-.29-.39s.09-.39,.29-.39h1.35v-.53c0-.25,.16-.38,.47-.38s.46,.13,.46,.38v.53h1.3c.2,0,.3,.13,.3,.39s-.1,.39-.3,.39h-.92c.15,.08,.3,.19,.42,.31,.34,.29,.54,.71,.53,1.16,0,.45-.18,.88-.52,1.18-.73,.65-1.83,.65-2.56,0-.34-.3-.53-.73-.53-1.18,0-.45,.19-.88,.53-1.17,.13-.12,.27-.22,.42-.3h-.95Zm2.69,1.43c.01-.25-.08-.49-.26-.67-.32-.34-.85-.36-1.19-.04-.01,.01-.03,.03-.04,.04-.18,.18-.28,.42-.27,.67,0,.25,.09,.49,.27,.67,.32,.34,.85,.36,1.19,.04,.01-.01,.03-.03,.04-.04,.17-.18,.27-.42,.26-.67Zm4,2.5c0,.44-.2,.87-.54,1.15-.76,.63-1.86,.63-2.62,0-.34-.28-.54-.7-.54-1.15,0-.45,.2-.87,.54-1.16,.4-.32,.9-.47,1.41-.43,.48-.01,.94,.16,1.3,.48,.32,.28,.5,.69,.5,1.11h-.05Zm-.92,0c0-.23-.1-.44-.27-.59-.17-.17-.41-.26-.65-.25-.24,0-.48,.08-.65,.25-.17,.15-.27,.36-.27,.59,0,.23,.1,.44,.27,.59,.18,.16,.41,.25,.65,.24,.24,0,.47-.09,.65-.24,.19-.14,.31-.35,.32-.59h-.05Zm-.32-2.11c0,.25-.15,.38-.46,.38s-.46-.13-.46-.38v-3c0-.25,.15-.38,.46-.38s.46,.13,.46,.38v3Zm1.49-2.28c0,.16-.07,.31-.18,.42-.22,.23-.59,.24-.82,.02,0,0-.01-.01-.02-.02-.11-.11-.18-.26-.18-.42,0-.16,.06-.32,.18-.43,.23-.23,.61-.23,.84,0,.12,.11,.18,.27,.18,.43Zm0,1.55c0,.16-.06,.32-.18,.43-.23,.23-.61,.23-.84,0-.12-.11-.18-.27-.18-.43,0-.16,.07-.31,.18-.42,.22-.23,.59-.24,.82-.02,0,0,.01,.01,.02,.02,.11,.11,.18,.26,.18,.42Z"/><path d="M139.74,29.48s0-.05-.07-.06L89.67,8.69h-.1L39.57,29.42h0s-.05,.03-.06,.06l-20.73,50s-.01,.07,0,.1h0l20.73,50h0s.03,.05,.06,.07l50,20.72h.1l50-20.72h0l20.72-50s.02-.07,0-.1l-20.65-50.07Zm-.16,99.91l-20.41-20.39,12.13-29.3h28.86l-20.58,49.69ZM39.58,29.75l20.42,20.41-12.14,29.29H19L39.58,29.75ZM118.97,108.75l-29.09-29.05h41.12l-12.03,29.05Zm-29.26-70.62l29.09,12-29.09,29.14V38.13Zm.17,41.32l29.12-29.1,12,29.1h-41.12Zm29.12-29.45l-29.29-12.14V9l49.69,20.58-20.4,20.42Zm-29.54,71l-29.1-12,29.1-29.1v41.1ZM60.19,50.35l29.09,29.1H48.14l12.05-29.1Zm29.27,28.92l-29.1-29.09,29.1-12v41.09Zm-.18,.43l-29.09,29.09-12-29.09h41.09Zm-29.11,29.46l29.29,12.13v28.86l-49.7-20.58,20.41-20.41Zm29.54-29.29l29.09,29.13-29.09,12v-41.13Zm70.45-.42h-28.86l-12.13-29.29,20.41-20.41,20.58,49.7ZM89.46,9v28.86l-29.29,12.14-20.41-20.42L89.46,9ZM19,79.7h28.86l12.14,29.3-20.41,20.39-20.59-49.69Zm70.71,70.45v-28.86l29.29-12.13,20.41,20.41-49.7,20.58Z"/><circle cx="28.79" cy="79.53" r="2.13"/><circle cx="125.39" cy="79.57" r="2.13"/><circle cx="114.03" cy="55.15" r="2.13"/><circle cx="89.58" cy="38.13" r="2.13"/><circle cx="51.26" cy="41.36" r="2.13"/><circle cx="43.46" cy="125.66" r="2.13"/><circle cx="89.58" cy="135.54" r="2.13"/><circle cx="135.59" cy="125.58" r="2.13"/></g></svg>