<svg xmlns="http://www.w3.org/2000/svg" viewBox="0 0 19.36 19.44"><defs><style>.cls-1{fill:#fff;}.cls-2{fill:#1d333d;}</style></defs><title>html_1</title><g id="Layer_2" data-name="Layer 2"><g id="Layer_1-2" data-name="Layer 1"><rect class="cls-1" width="19.36" height="19.44" rx="5.47"/><path class="cls-2" d="M9.68.55l9.13,9.17L9.68,18.9.54,9.72,9.68.55m0-.55L0,9.72l9.68,9.72,9.68-9.72L9.68,0Z"/><path class="cls-2" d="M3.59,8.17h1V9.26h1V8.17h1v3.11h-1V10h-1v1.26h-1Z"/><path class="cls-2" d="M7,8.17H9.91v.77h-1v2.34H8V8.94H7Z"/><path class="cls-2" d="M10.33,8.17h1.26l.49,1.89.48-1.89h1.27v3.11H13V8.91l-.61,2.37h-.71l-.6-2.37v2.37h-.79Z"/><path class="cls-2" d="M14.44,8.17h1v2.34h1.5v.77H14.44Z"/></g></g></svg>