<svg xmlns="http://www.w3.org/2000/svg" viewBox="0 0 19.36 19.44"><defs><style>.cls-1{fill:#fff;}.cls-2{fill:#1d333d;}</style></defs><title>id</title><g id="Layer_2" data-name="Layer 2"><g id="Layer_2-2" data-name="Layer 2"><rect class="cls-1" width="19.36" height="19.44" rx="5.47"/><path class="cls-2" d="M9.68.55l9.14,9.17L9.68,18.9.54,9.72,9.68.55m0-.55L0,9.72l9.68,9.72,9.68-9.72L9.68,0Z"/><path class="cls-2" d="M7.72,13.12H6.34V6.23H7.72Z"/><path class="cls-2" d="M9.22,10.4a3.34,3.34,0,0,1,.42-1.87,1.41,1.41,0,0,1,1.24-.62,1.21,1.21,0,0,1,1,.51V5.85H13.2v7.27H12l-.06-.52a1.24,1.24,0,0,1-1.06.61,1.39,1.39,0,0,1-1.22-.61,3.31,3.31,0,0,1-.43-1.81Zm1.34.34a2.46,2.46,0,0,0,.16,1.06.55.55,0,0,0,.54.3.66.66,0,0,0,.6-.36V9.4a.64.64,0,0,0-.6-.37.57.57,0,0,0-.53.29,2.26,2.26,0,0,0-.17,1.06Z"/></g></g></svg>