<?xml version="1.0" encoding="UTF-8"?><svg id="Layer_2" xmlns="http://www.w3.org/2000/svg" viewBox="0 0 47.24 47.24"><defs><style>.cls-1{fill:#fff;}</style></defs><g id="Layer_1-2"><circle cx="23.62" cy="23.62" r="23.62"/><path class="cls-1" d="m23.62,11.43c3.97,0,4.44.02,6.01.09,1.45.07,2.24.31,2.76.51.69.27,1.19.59,1.71,1.11.52.52.84,1.02,1.11,1.71.2.52.45,1.31.51,2.76.07,1.57.09,2.04.09,6.01s-.02,4.44-.09,6.01c-.07,1.45-.31,2.24-.51,2.76-.27.69-.59,1.19-1.11,1.71-.52.52-1.02.84-1.71,1.11-.52.2-1.31.45-2.76.51-1.57.07-2.04.09-6.01.09s-4.44-.02-6.01-.09c-1.45-.07-2.24-.31-2.76-.51-.69-.27-1.19-.59-1.71-1.11-.52-.52-.84-1.02-1.11-1.71-.2-.52-.45-1.31-.51-2.76-.07-1.57-.09-2.04-.09-6.01s.02-4.44.09-6.01c.07-1.45.31-2.24.51-2.76.27-.69.59-1.19,1.11-1.71.52-.52,1.02-.84,1.71-1.11.52-.2,1.31-.45,2.76-.51,1.57-.07,2.04-.09,6.01-.09m0-2.68c-4.04,0-4.55.02-6.13.09-1.58.07-2.66.32-3.61.69-.98.38-1.81.89-2.63,1.72-.83.83-1.34,1.66-1.72,2.63-.37.95-.62,2.03-.69,3.61-.07,1.59-.09,2.09-.09,6.13s.02,4.55.09,6.13c.07,1.58.32,2.66.69,3.61.38.98.89,1.81,1.72,2.63.83.83,1.66,1.34,2.63,1.72.95.37,2.03.62,3.61.69,1.59.07,2.09.09,6.13.09s4.55-.02,6.13-.09c1.58-.07,2.66-.32,3.61-.69.98-.38,1.81-.89,2.63-1.72.83-.83,1.34-1.66,1.72-2.63.37-.95.62-2.03.69-3.61.07-1.59.09-2.09.09-6.13s-.02-4.55-.09-6.13c-.07-1.58-.32-2.66-.69-3.61-.38-.98-.89-1.81-1.72-2.63-.83-.83-1.66-1.34-2.63-1.72-.95-.37-2.03-.62-3.61-.69-1.59-.07-2.09-.09-6.13-.09h0Z"/><path class="cls-1" d="m23.62,15.98c-4.22,0-7.64,3.42-7.64,7.64s3.42,7.64,7.64,7.64,7.64-3.42,7.64-7.64-3.42-7.64-7.64-7.64Zm0,12.59c-2.74,0-4.96-2.22-4.96-4.96s2.22-4.96,4.96-4.96,4.96,2.22,4.96,4.96-2.22,4.96-4.96,4.96Z"/><circle class="cls-1" cx="31.56" cy="15.68" r="1.78"/></g></svg>