<svg xmlns="http://www.w3.org/2000/svg" viewBox="0 0 19.36 19.44"><defs><style>.cls-1{fill:#fff;}.cls-2{fill:#1d333d;}</style></defs><title>jq</title><g id="Layer_2" data-name="Layer 2"><g id="Layer_1-2" data-name="Layer 1"><rect class="cls-1" width="19.36" height="19.44" rx="5.47"/><path class="cls-2" d="M9.68.55l9.13,9.17L9.68,18.9.54,9.72,9.68.55m0-.55L0,9.72l9.68,9.72,9.68-9.72L9.68,0Z"/><path class="cls-2" d="M6.5,6.42H8.36V9.7a5.15,5.15,0,0,1-.18,1.56,1.75,1.75,0,0,1-.74.91A2.45,2.45,0,0,1,6,12.55a3.15,3.15,0,0,1-1.41-.25,1.7,1.7,0,0,1-.78-.72,2.73,2.73,0,0,1-.32-1.17l1.78-.24a1.78,1.78,0,0,0,.07.59.63.63,0,0,0,.22.31.58.58,0,0,0,.76-.15,1.55,1.55,0,0,0,.15-.79Z"/><path class="cls-2" d="M15,11.57l.45.3.44.21-.52,1a4.67,4.67,0,0,1-.77-.45,4.93,4.93,0,0,1-.54-.39,3.83,3.83,0,0,1-1.54.27,3.11,3.11,0,0,1-2.17-.72,3,3,0,0,1-.93-2.37,3.09,3.09,0,0,1,.82-2.31,3.08,3.08,0,0,1,2.29-.83,3.13,3.13,0,0,1,2.31.81,3.09,3.09,0,0,1,.82,2.3A3.28,3.28,0,0,1,15,11.57Zm-1.43-1a2.45,2.45,0,0,0,.23-1.19,2,2,0,0,0-.34-1.3,1.19,1.19,0,0,0-.94-.39,1.12,1.12,0,0,0-.9.4,1.86,1.86,0,0,0-.34,1.24,2.23,2.23,0,0,0,.33,1.39,1.19,1.19,0,0,0,.93.4,2.2,2.2,0,0,0,.36,0,2.57,2.57,0,0,0-.74-.43L12.4,10a1.77,1.77,0,0,1,.38.11c.09,0,.27.16.54.35Z"/></g></g></svg>