<svg xmlns="http://www.w3.org/2000/svg" viewBox="0 0 19.36 19.44"><defs><style>.cls-1{fill:#fff;}.cls-2{fill:#1d333d;}</style></defs><title>js</title><g id="Layer_2" data-name="Layer 2"><g id="Layer_1-2" data-name="Layer 1"><rect class="cls-1" width="19.36" height="19.44" rx="5.47"/><path class="cls-2" d="M9.68.55l9.13,9.17L9.68,18.9.54,9.72,9.68.55m0-.55L0,9.72l9.68,9.72,9.68-9.72L9.68,0Z"/><path class="cls-2" d="M7,6.66H8.9V10a5.27,5.27,0,0,1-.19,1.59,1.76,1.76,0,0,1-.75.93,2.45,2.45,0,0,1-1.44.38,3.29,3.29,0,0,1-1.44-.25,1.86,1.86,0,0,1-.79-.73A2.93,2.93,0,0,1,4,10.71l1.82-.24a1.81,1.81,0,0,0,.07.6.66.66,0,0,0,.22.32.54.54,0,0,0,.31.08.52.52,0,0,0,.47-.24,1.57,1.57,0,0,0,.15-.8Z"/><path class="cls-2" d="M9.83,10.76l1.8-.11a1.43,1.43,0,0,0,.24.67,1,1,0,0,0,.84.37,1,1,0,0,0,.62-.19.55.55,0,0,0,0-.87,2.45,2.45,0,0,0-1-.36,4.09,4.09,0,0,1-1.78-.74,1.51,1.51,0,0,1-.53-1.18,1.63,1.63,0,0,1,.27-.9,1.8,1.8,0,0,1,.83-.66,3.82,3.82,0,0,1,1.5-.24,3.13,3.13,0,0,1,1.8.44,1.88,1.88,0,0,1,.73,1.39l-1.79.1a.91.91,0,0,0-.3-.6,1,1,0,0,0-.62-.19.78.78,0,0,0-.5.14.45.45,0,0,0-.17.34.36.36,0,0,0,.14.27,1.59,1.59,0,0,0,.63.22,7.42,7.42,0,0,1,1.78.55,1.85,1.85,0,0,1,.79.68,1.73,1.73,0,0,1,.24.9,1.92,1.92,0,0,1-.33,1.09,2.07,2.07,0,0,1-.91.76,3.7,3.7,0,0,1-1.47.25,3,3,0,0,1-2.17-.6A2.36,2.36,0,0,1,9.83,10.76Z"/></g></g></svg>