<?xml version="1.0" encoding="UTF-8"?><svg id="Layer_2" xmlns="http://www.w3.org/2000/svg" viewBox="0 0 47.24 47.24"><defs><style>.cls-1{fill:#fff;}</style></defs><g id="Layer_1-2"><circle cx="23.62" cy="23.62" r="23.62"/><path class="cls-1" d="m23.84,35.68c-1,0-2-.04-2.99-.18-.15-.02-.27,0-.4.1-1.97,1.38-3.93,2.76-5.96,4.05-.25.16-.5.29-.76.44-.09.05-.19.09-.29.1-.32.04-.51-.15-.45-.47.12-.57.29-1.12.45-1.68.4-1.4.8-2.81,1.21-4.21.04-.12.02-.18-.1-.25-1.91-.97-3.6-2.23-4.98-3.89-1.36-1.64-2.28-3.49-2.61-5.6-.37-2.42.05-4.7,1.22-6.85,1.14-2.1,2.79-3.73,4.78-5.02,2.12-1.38,4.45-2.24,6.94-2.69,1.85-.33,3.72-.41,5.59-.24,3.52.32,6.77,1.41,9.64,3.52,1.9,1.4,3.43,3.13,4.36,5.33,1.49,3.51,1.18,6.91-.8,10.14-1.27,2.08-3.05,3.63-5.15,4.84-2,1.16-4.15,1.89-6.43,2.27-1.08.18-2.17.28-3.27.29Z"/><path d="m31.64,21.53c.04-.05.07-.11.11-.15.83-.83,1.65-1.66,2.48-2.48.31-.31.69-.36,1.06-.13.37.22.56.66.45,1.05-.04.15-.13.26-.24.37-.68.68-1.35,1.36-2.04,2.03-.09.09-.09.15-.01.25.76,1,1.51,1.99,2.26,2.99.33.44.28,1-.1,1.34-.43.38-1.07.32-1.43-.15-.67-.88-1.34-1.77-2.01-2.66-.02-.02-.03-.05-.05-.07-.08-.08-.1-.22-.22-.23-.09,0-.32.34-.32.45,0,.67,0,1.33,0,2,0,.46-.33.83-.8.92-.42.08-.86-.15-1.04-.55-.06-.13-.09-.27-.09-.42,0-2.2,0-4.4,0-6.59,0-.55.43-.98.96-.98.53,0,.96.42.97.98,0,.63,0,1.26,0,1.89v.13s.04.03.06.04Z"/><path d="m13.37,23.33c0-.92,0-1.84,0-2.75,0-.14-.03-.2-.19-.19-.43.01-.86,0-1.29,0-.56,0-.98-.4-.98-.93,0-.54.41-.96.97-.96,1.63,0,3.27,0,4.9,0,.52,0,.92.36.97.84.05.47-.24.9-.71,1.03-.1.03-.19.03-.29.03-.43,0-.86,0-1.29,0-.14,0-.17.04-.17.17,0,1.83,0,3.66,0,5.49,0,.49-.24.84-.67.97-.64.2-1.27-.24-1.27-.92,0-.92,0-1.85,0-2.77Z"/><path d="m24.31,22.73c0-1.09,0-2.18,0-3.27,0-.51.37-.9.89-.97.47-.06.93.26,1.05.73.03.12.03.24.03.36,0,1.8,0,3.59,0,5.39,0,.15.04.19.19.19.63,0,1.26,0,1.89,0,.49,0,.89.38.91.83.02.48-.36.92-.85.93-1.09.01-2.18.01-3.27,0-.47,0-.84-.41-.84-.89,0-1.1,0-2.19,0-3.29Z"/><path d="m23.64,25.46c-.4-1.07-.81-2.13-1.21-3.19-.36-.95-.72-1.9-1.08-2.84-.24-.63-.89-1.03-1.49-.9-.54.11-.89.45-1.09.95-.66,1.73-1.31,3.46-1.97,5.18-.16.41-.34.81-.43,1.25-.14.69.09,1.04.77,1.14.52.08.86-.12,1.05-.6.12-.32.25-.63.36-.95.04-.1.08-.13.19-.13.45,0,.9,0,1.34,0,.44,0,.88,0,1.33,0,.12,0,.17.04.2.15.12.32.26.64.36.96.13.4.42.55.8.58.21.01.41-.03.61-.1.27-.1.4-.29.42-.57.03-.32-.04-.63-.15-.92Zm-3.83-1.8c-.19,0-.38,0-.57,0-.12,0-.14-.03-.1-.14.25-.69.49-1.39.74-2.09.06-.16.11-.31.18-.52.33.94.65,1.83.97,2.75h-1.22Z"/></g></svg>