<?xml version="1.0" encoding="UTF-8"?><svg id="Layer_2" xmlns="http://www.w3.org/2000/svg" viewBox="0 0 262.07 262.07"><defs><style>.cls-1{fill:rgba(255,255,255,.55);}.cls-2{fill:#fff;}.cls-3{fill:rgba(255,255,255,.85);}.cls-4{fill:rgba(255,255,255,.1);}.cls-5{fill:rgba(255,255,255,.4);}.cls-6{fill:rgba(255,255,255,.7);}.cls-7{fill:rgba(255,255,255,.25);}.cls-8{fill:rgba(255,255,255,.05);}</style></defs><g id="Layer_1-2"><rect class="cls-2" x="117.86" y="0" width="26.36" height="91" rx="13.18" ry="13.18"/><rect class="cls-3" x="57.38" y="25.05" width="26.36" height="91" rx="13.18" ry="13.18" transform="translate(-29.22 70.55) rotate(-45)"/><rect class="cls-6" x="32.32" y="85.53" width="26.36" height="91" rx="13.18" ry="13.18" transform="translate(-85.53 176.54) rotate(-90)"/><rect class="cls-1" x="57.38" y="146.02" width="26.36" height="91" rx="13.18" ry="13.18" transform="translate(-14.98 376.83) rotate(-135)"/><rect class="cls-5" x="117.86" y="171.07" width="26.36" height="91" rx="13.18" ry="13.18" transform="translate(262.07 433.14) rotate(-180)"/><rect class="cls-7" x="178.34" y="146.02" width="26.36" height="91" rx="13.18" ry="13.18" transform="translate(462.37 191.52) rotate(135)"/><rect class="cls-4" x="203.39" y="85.53" width="26.36" height="91" rx="13.18" ry="13.18" transform="translate(347.61 -85.53) rotate(90)"/><rect class="cls-8" x="178.34" y="25.05" width="26.36" height="91" rx="13.18" ry="13.18" transform="translate(105.98 -114.76) rotate(45)"/></g></svg>