<?xml version="1.0" encoding="UTF-8"?><svg id="Layer_2" xmlns="http://www.w3.org/2000/svg" viewBox="0 0 155.16 186.48"><defs><style>.cls-1{fill:#fff;}.cls-2{fill:#f08ba5;}</style></defs><g id="Layer_1-2"><g id="Layer_2-2"><g id="Layer_1-2"><path class="cls-2" d="M29.1,.09l-.15,63.39c0,11.76,9.53,21.29,21.29,21.29s21.29-9.53,21.29-21.29l.07-61.09V.09h31.41V44.64c0,9.74,.26,19.48,.21,29.25-.09,19.39,.5,39.84-12.42,55.78-5.83,6.99-13.39,12.34-21.92,15.52-12.57,4.81-39.93,3.81-39.93,3.81,0,0,.09-10.57,0-15.68,0,.13,12.8,.11,14,.07,4.83-.05,9.62-.91,14.16-2.56,8.11-3.17,13.63-10.36,16-18.6,.32-1.06,.59-2.14,.8-3.23,.59-2.5,.81-5.08,.63-7.65-.78,.3-1.91,.68-2.71,1-1,.36-2,.68-3,1-2.02,.57-4.07,1.01-6.14,1.32-4.25,.61-8.55,.89-12.84,.81-14.17-.21-27.84-3.48-37.75-14.27-3.73-4.03-6.61-8.77-8.47-13.94C-.99,64.33,.25,50.27,.09,36.79-.03,26.38-.03,15.97,.1,5.56,.1,5.28,.15,.09,.17,.09H29.1Z"/><path class="cls-1" d="M154.78,0l-27.21,.09V83.9c0,15.72-2,32.36-9.16,46.71-8.13,16.39-22.14,24.91-38.6,31.49-15.91,6.37-31.62,8.46-50.86,8.5v15.68c0,.63,21.25-.44,23-.53,33.65-1.74,69.58-12.83,89.35-42,11.32-16.73,13.47-36.15,13.4-55.91-.06-18.46,.68-36.93,.4-55.39-.03-1.77-.17-32.45-.32-32.45Z"/></g></g></g></svg>