<svg xmlns="http://www.w3.org/2000/svg" viewBox="0 0 313.7 446.09"><defs><style>.cls-1,.cls-5,.cls-8{fill:#fff;}.cls-1,.cls-2,.cls-3{stroke:#1a2f5f;stroke-linecap:round;stroke-linejoin:round;stroke-width:0.75px;}.cls-2{fill:#68161e;}.cls-3{fill:none;}.cls-10,.cls-4,.cls-7,.cls-9{fill:#1a2f5f;}.cls-10,.cls-6,.cls-7,.cls-8,.cls-9{isolation:isolate;}.cls-7,.cls-8{font-size:6px;}.cls-7,.cls-8,.cls-9{font-family:ArialMT, Arial;}.cls-9{font-size:4px;}.cls-10{font-size:10px;font-family:Arial-BoldMT, Arial;font-weight:700;}.cls-11{letter-spacing:-0.02em;}.cls-12{letter-spacing:-0.06em;}</style></defs><title>map</title><g id="Layer_2" data-name="Layer 2"><g id="Layer_2-2" data-name="Layer 2"><path class="cls-1" d="M83.13,71.7a3.42,3.42,0,0,1-1.23.77,2.32,2.32,0,0,1-1.3-.09,2,2,0,0,0-.72-.14c-.76.05-1.11,1-1.82,1.31a1.38,1.38,0,0,1-1.63-.67A2.34,2.34,0,0,1,76.34,71a4.33,4.33,0,0,1,1.78-2.24A2.4,2.4,0,0,1,80,68.33c.53.14,1,.55,1.52.64a3.29,3.29,0,0,0,1.24-.14c2.71-.61,1.76,1.61.38,2.88Z"/><path class="cls-1" d="M75.83,81.07a1.25,1.25,0,0,1-1.41,0,2.23,2.23,0,0,0-.41-.27,2,2,0,0,0-.7,0,.59.59,0,0,1-.58-.32.54.54,0,0,1,.18-.52,1.05,1.05,0,0,1,.63-.29c.65-.07,1.13-.89,1.74-.68s1.24,1.64.54,2.16Z"/><path class="cls-1" d="M79.82,83.88A1.35,1.35,0,0,0,79,82.17c-.44-.1-2-.31-2,.47,0,.33.32.57.63.67a2,2,0,0,1,.9.39c.16.17.23.4.42.54a.66.66,0,0,0,.92-.34Z"/><path class="cls-1" d="M84.54,78a3.76,3.76,0,0,0,1.47.69,1.84,1.84,0,0,1,1.22,1,1.71,1.71,0,0,1-.09,1.07A2.55,2.55,0,0,1,86,82.23a1.31,1.31,0,0,1-1.71-.41c-.27-.49-.12-1.15-.43-1.61s-.82-.53-1.24-.79a2.6,2.6,0,0,1-1.1-2c-.07-.59-.5-2.2.2-2.57.27-.15.62-.19.8-.44.7-1,1.22-1.77,1.54-.14.17.89-.19,3,.52,3.67Z"/><path class="cls-1" d="M88.92,92.65c-.06-.63-3.28-1.34-3.87-2.07a1.32,1.32,0,0,0-1.29-.5.89.89,0,0,0-.63,1.13c.26.59,1.15.62,1.48,1.17s.08,1.16.45,1.56a1.13,1.13,0,0,0,1.27.09,7.31,7.31,0,0,1,1.22-.61c.28-.07.58-.06.86-.15a.68.68,0,0,0,.52-.62Z"/><path class="cls-1" d="M94,92.18c0-.55-.62-.86-1.16-.93a2.37,2.37,0,0,0-1.42.17,1.07,1.07,0,0,0-.57,1.21c.07.22.24.4.33.62.29.76-.44,1.49-1.1,2L88,96.7c-.68.5-1.43,1.15-1.37,2s.86,1.34,1.63,1.55a14.92,14.92,0,0,1,2.33.55c.9.42,1.65,1.34,2.64,1.27s1.72-1.34,1.84-2.44a6,6,0,0,1,.21-1.34,1.25,1.25,0,0,1,.95-.87c.62-.07,1.17.52,1.8.47A1.77,1.77,0,0,0,99,97.4a6,6,0,0,0,1.36-1.31,2,2,0,0,0,.3-1.8,1.56,1.56,0,0,0-2.24-.69,1.21,1.21,0,0,1-.54.3.93.93,0,0,1-.63-.33c-.64-.57-1.7-.92-2.31-.32a3.07,3.07,0,0,0-.58,1.44c-.34,1.17-1.83,1.29-2,0s1.56-1.48,1.64-2.5Z"/><path class="cls-1" d="M90.12,106a1.09,1.09,0,0,0,1,.48c.65-.14,1-1.7.71-2.23-.21-.34-.81-.53-1.09-.87s-.18-.8-.69-.94a1.17,1.17,0,0,0-1.2.7c-.12.33.27.85.56,1.27s.31,1.1.65,1.59Z"/><path class="cls-1" d="M81.49,113.78a.68.68,0,0,0-.2.18,1.39,1.39,0,0,0-.2,1.73c.53.59,1.53.2,2.28.47s1.31,1.17,2.07.7a1.26,1.26,0,0,0,.16-1.78c-.5-.59-1.35-.44-2-.52-.49-.06-1.78-.94-2.1-.78Z"/><path class="cls-1" d="M91.77,113.56a1.37,1.37,0,0,1,1.5-.58c.18.08.33.22.51.31a2.54,2.54,0,0,0,1.17.14,1.16,1.16,0,0,1,1,.44,1,1,0,0,1-.29,1.2c-.31.32-.72.53-1,.86s-.55,1-1,1.23c-2.51,1.44-3-2.22-1.89-3.62Z"/><path class="cls-1" d="M70.48,115.9c-.23-.32-.47-.64-.7-1a1.38,1.38,0,0,0-.73-.62,1.05,1.05,0,0,0-1,.56,1.88,1.88,0,0,0,.17,2.36c.36.32.87.46,1.19.83a3.56,3.56,0,0,1,.45.84,1.07,1.07,0,0,0,.69.61c.44.07.8-.32,1.08-.66s.67-.71,1.1-.61.54.44.72.75.45.64.81.61a.66.66,0,0,0,.53-.52,1.48,1.48,0,0,0,0-.78,1.27,1.27,0,0,0-.27-.56c-.32-.33-.87-.27-1.28-.49s-.57-.64-.88-.94c-.66-.65-1.26.33-1.8-.42Z"/><path class="cls-1" d="M69.42,121.09c.49.49,1.39.82.73,1.61a1.57,1.57,0,0,1-1.7.23,1.7,1.7,0,0,1-.87-1,1.21,1.21,0,0,1,.29-1.23.94.94,0,0,1,1.22,0c.13.12.21.27.34.4Z"/><path class="cls-1" d="M66.34,128.64c-.24-2.62,4.81-1.15,1.48.74a1.17,1.17,0,0,1-1.3-.26.85.85,0,0,1-.17-.48Z"/><path class="cls-1" d="M98,81.94c.32.62.74,1.31.49,2-.19.49-.71.78-.9,1.27s.11,1.37-.29,1.87A1.17,1.17,0,0,1,96,87.3c-.44-.14-.82-.41-1.24-.59a6.5,6.5,0,0,0-3.34-.09,4.77,4.77,0,0,1-3.28-.39c-1-.61-1.3-2.19-.38-2.84.32-.23.73-.31,1-.55a1.69,1.69,0,0,0,.54-1.56,5.19,5.19,0,0,0-.61-1.6,3.08,3.08,0,0,0-1.34-1.56c-.42-.18-.92-.17-1.28-.45a2,2,0,0,1-.56-1.47c-.1-1.17-.2-2.35-.31-3.52s0-2.37,1-2.69c.29-.09.6-.07.89-.18.54-.21.81-.81,1.2-1.23a3.1,3.1,0,0,1,3.06-.67,9.09,9.09,0,0,1,2.86,1.6c1.77,1.29,3.15,2.91,3,5.2-.17,2.46-.45,4.93.72,7.23Z"/><path class="cls-1" d="M81.37,122.65a2.72,2.72,0,0,0-2.68-1.28,1.07,1.07,0,0,0-.19,1.8,1.9,1.9,0,0,0,.69.28l1.28.35a1.51,1.51,0,0,0,.36.06c.53,0,.78-.74.55-1.22Z"/><path class="cls-1" d="M91,130.51c.89.18,2.22,1.1,1.77,2.11s-1.76.56-2.34-.16a1.17,1.17,0,0,1,.15-1.84.56.56,0,0,1,.41-.11Z"/><path class="cls-1" d="M88.52,188.29a.68.68,0,0,0-.32.28.67.67,0,0,0,0,.73,1.39,1.39,0,0,0,.6.47,5.43,5.43,0,0,0,1.48.36A2.53,2.53,0,0,0,91.9,190c1.49-.83.22-3-1.23-2.46-.34.12-.55.45-.84.66C89.36,188.57,88.92,188.14,88.52,188.29Z"/><path class="cls-1" d="M86.28,190c1.56-.11.93,2.78-.32,2.66S85.24,190,86.28,190Z"/><path class="cls-2" d="M80,254.7a.89.89,0,0,1-.34.13.62.62,0,0,1-.57-.38,1.9,1.9,0,0,1-.13-.71,2.44,2.44,0,0,1,.11-1,2.56,2.56,0,0,1,.55-.72l1-1c.58-.58,2.37-1.1,2.54.16s-2.25,3-3.2,3.57Z"/><path class="cls-1" d="M64.84,272.22a.93.93,0,0,1-.5,1.51,1.38,1.38,0,0,1-1.65-.8.89.89,0,0,1-.06-.85,1,1,0,0,1,.75-.44,1.68,1.68,0,0,1,1.47.58Z"/><path class="cls-1" d="M69.9,294.67a2.49,2.49,0,0,1-.59,2,1,1,0,0,1-.36.37,1,1,0,0,1-.63,0,3.21,3.21,0,0,1-1-.27,1.11,1.11,0,0,1-.62-.81,1.16,1.16,0,0,0-.06-.42.52.52,0,0,0-.57-.18,2.7,2.7,0,0,1-.63.12.86.86,0,0,1-.68-.95,2.42,2.42,0,0,1,.56-1.16c.57-.75,1.22-.63,1.88-1.1s.82-1.38,1.36-1.94a2.38,2.38,0,0,1,2.31-.74.56.56,0,0,1,.25.14.54.54,0,0,1,.05.48,6.77,6.77,0,0,1-1,1.95,2.11,2.11,0,0,0-.3,2.14c0,.11.05.21.07.31Z"/><path class="cls-1" d="M73.24,298a2.45,2.45,0,0,0-.72-.28c-.46-.07-.94.29-1.38.13a.77.77,0,0,1-.39-1,1.18,1.18,0,0,1,.82-.71,3,3,0,0,1,1.12-.06,3.15,3.15,0,0,1,1.9.64c.58.52.68,1.57-.34,1.58A2.18,2.18,0,0,1,73.24,298Z"/><path class="cls-1" d="M70.41,300.85c-.48-.05-1-.24-1.14-.7a.83.83,0,0,1,.36-.8,1.78,1.78,0,0,1,.87-.27c1.25-.13,4.58,1.18,3.11,3a1.06,1.06,0,0,1-1.56,0c-.71-.66-.47-1.1-1.65-1.23Z"/><path class="cls-1" d="M80,300.75a.92.92,0,0,1-.17,1.81C77.89,302.88,78.58,300.35,80,300.75Z"/><path class="cls-1" d="M6.65,324.48c.36-.51,1.42-1.13,2-.66s.32,1.36.19,1.9c-.23.93-.91,3-2.1,1.85a1.9,1.9,0,0,1-.49-1,2.66,2.66,0,0,1,.36-2.1Z"/><path class="cls-1" d="M20.87,327.09a9.67,9.67,0,0,1-.71,1.85,2.55,2.55,0,0,0-.15,1.93,1.18,1.18,0,0,0,1.61.65,2,2,0,0,0,.56-.76A6.17,6.17,0,0,1,23.46,329c.52-.46,1.18-.82,1.46-1.45.55-1.26-.72-2.18-1.83-2.33-1.51-.2-2,.53-2.22,1.86Z"/><path class="cls-1" d="M51.45,333.13a3.2,3.2,0,0,1-1.64.06,1.37,1.37,0,0,1-.62-.29.83.83,0,0,1,0-1.06,1.23,1.23,0,0,1,1.05-.39c.65.05,2.64-1.59,2.61.27,0,.74-.66,1.19-1.4,1.4Z"/><path class="cls-1" d="M60.23,319.94c-.64.4-1.49.25-2.19.53a.78.78,0,0,0-.41.3.9.9,0,0,0-.09.4c0,.48,0,1,0,1.43a1.49,1.49,0,0,1-.71,1.17,1.31,1.31,0,0,1-1.36-.21,2.54,2.54,0,0,1-.75-1.22,3.11,3.11,0,0,1-.07-1.81,1.8,1.8,0,0,1,1.24-1.25c.63-.15,1.32.13,1.91-.13s.8-.83,1.13-1.31a3.81,3.81,0,0,1,1.28-1.15.87.87,0,0,1,.58-.14c1.14.27.09,3-.53,3.4Z"/><path class="cls-1" d="M58.74,324.89a1.36,1.36,0,0,1-.58.31c-.38.12-.78,0-1.14.19a1.52,1.52,0,0,0-.53,1.22c0,.6.06,1.35.62,1.57a1.55,1.55,0,0,0,.68.05l1.76-.12a1.86,1.86,0,0,0,.74-.16,1.69,1.69,0,0,0,.66-1c.25-.7.83-2.17.28-2.86s-1.57-.16-2.08.35c-.18.17-.28.3-.4.41Z"/><path class="cls-1" d="M64.14,335.83a1.22,1.22,0,0,1-.6,0,1.33,1.33,0,0,1-.62-.68c-.58-1.14-.81-3.34.31-4.2a.69.69,0,0,1,.31-.15c.34,0,.57.36.56.7,0,.54-.26,1,.13,1.5s.85.26,1.16.64c.83,1-.27,2.1-1.26,2.24Z"/><path class="cls-1" d="M67,333.83a4.78,4.78,0,0,1-.17,2.09.8.8,0,0,1-.39.55c-.24.11-.52,0-.77,0-.46.08-.68.63-.64,1.09s.29.86.69.85.66-.79,1.08-1.13.93-.22,1.35-.43a1.63,1.63,0,0,0,.65-.7,3.59,3.59,0,0,0,.36-2.43,1.19,1.19,0,0,0-.74-1c-.3-.07-.64.06-.91-.08-.63-.34-.48-2.56-1.47-1.45S66.89,333,67,333.83Z"/><path class="cls-1" d="M71.29,329c-.16.25-.5.3-.74.48a1.31,1.31,0,0,0-.41,1.12c0,.49.26,1.09.76,1.12a1.46,1.46,0,0,0,.83-.37.79.79,0,0,1,.86-.13c.18.12.25.36.43.49a.65.65,0,0,0,.81-.19,2.12,2.12,0,0,0,.32-1.49,1.13,1.13,0,0,0-.08-.48,3.89,3.89,0,0,0-1.66-1.48c-.74-.11-.82.47-1.12.95Z"/><path class="cls-1" d="M67,310.9a1.88,1.88,0,0,1-.27.69,1.77,1.77,0,0,1-1.69.54,1.14,1.14,0,0,1-1-.51c-.15-.31,0-.68-.07-1a2.84,2.84,0,0,0-.42-.9,1.05,1.05,0,0,1-.12-.95,1.06,1.06,0,0,1,.82-.46,2.55,2.55,0,0,0,1-.23,2.34,2.34,0,0,0,.72-1c.2-.36.51-.74.92-.74a.93.93,0,0,1,.82.76c.25,1.16-.42,2.72-.7,3.82Z"/><path class="cls-1" d="M72.35,310.64c.93.44-.15,1.79-.72,2-1,.34-2.31-.68-2-1.75a1.14,1.14,0,0,1,1.41-.74,7.54,7.54,0,0,0,.75.38,3.35,3.35,0,0,1,.55.11Z"/><path class="cls-1" d="M68.74,313.31a1.13,1.13,0,0,1-1-.14,2,2,0,0,0-.41-.26.65.65,0,0,0-.62.22,1.89,1.89,0,0,0-.33.61c-.2.5-.35,1.17.08,1.48a5.81,5.81,0,0,0,2.09.08c1.65-.1,1.47-2.39.16-2Z"/><path class="cls-1" d="M70,319a4.82,4.82,0,0,0-.5.27.47.47,0,0,1-.53-.05.56.56,0,0,1-.12-.31,1,1,0,0,1,0-.59c.2-.39.78-.3,1.21-.42a2.62,2.62,0,0,0,1.08-.83c2.06-2.1,2.89,2.13,1,2.48-.76.14-1.35-.84-2.17-.55Z"/><path class="cls-1" d="M67.73,322.86a1.26,1.26,0,0,0,.84.77c.8.18,1.69-.63,2.39-.21.54.33.6,1.22,1.2,1.41,1.62.52,1.62-2.05,1.23-2.94-.47-1.08-1-.67-1.94-.88s-1.51-.78-2.39-.72a1.82,1.82,0,0,0-1.34,2.57Z"/><path class="cls-1" d="M78.68,306.66a.85.85,0,0,1,.26.95c-.21.46-.83.54-1.33.48a2,2,0,0,1-1.58-.88c-.18-.31-.35-1.74.35-1.62.46.08.42.66.79.84s1-.19,1.52.24Z"/><path class="cls-1" d="M81.48,304.69c-.14-.5-.43-.93-.88-1a.71.71,0,0,0-.71.44.7.7,0,0,0,.26.79c.59.39.69,2.43,1.3,1.06a2.14,2.14,0,0,0,0-1.31Z"/><path class="cls-1" d="M82.72,308a1.06,1.06,0,0,0-.75.64,3.21,3.21,0,0,0,0,.82A2,2,0,0,1,81,311a4.69,4.69,0,0,1-1.71.66,3.58,3.58,0,0,0-1.36.49,1.05,1.05,0,0,0-.4,1.27,1,1,0,0,0,.89.47,3.27,3.27,0,0,0,1-.22l2.37-.8c1.21-.41,2.56-1,3-2.14.54-1.4-.54-3.14-2.11-2.7Z"/><path class="cls-1" d="M86.33,314.53c.11-.65.17-1.24.23-1.4a1.56,1.56,0,0,0,0-1.29c-1.06-1.63-2.17,2-2.21,2.58A2.29,2.29,0,0,0,84.6,316c1.05,1.42,1.51-.13,1.74-1.44Z"/><path class="cls-1" d="M82.55,319.23c.15-1.14,2.07-.75,1.87.31S82.41,320.28,82.55,319.23Z"/><path class="cls-1" d="M82,296.7a4,4,0,0,1-2.57.05c-.46.59,0,1.76-.72,2-.52.18-1-.45-1-1s-.12-1.19-.59-1.47a2.57,2.57,0,0,0-1.18-.14,3.68,3.68,0,0,1-1.65-.71,2.55,2.55,0,0,1-1.19-1.24,1.65,1.65,0,0,1,1.29-1.9,3.61,3.61,0,0,1,2.47.46,1.57,1.57,0,0,0,1.06.27c.54-.13.76-.77.79-1.33a3,3,0,0,1,.29-1.6,2.24,2.24,0,0,1,1.31-.69,2.18,2.18,0,0,1,1.61,0,3,3,0,0,0,.71.41c.63.14,1.16-.67,1.8-.56.49.09.72.68.7,1.18a5.78,5.78,0,0,0-.07,1.49c.12.5.8,1.56.06,2-.46.25-.73-.35-1.16-.3-.85.1-.47.77-.55,1.38A2.21,2.21,0,0,1,82,296.71Z"/><path class="cls-1" d="M1,376.82c.23.56.62,1.15,1.23,1.2a1.5,1.5,0,0,0,.66-.13,1,1,0,0,0,.66-.54.89.89,0,0,0-.41-.85,1.92,1.92,0,0,1-.68-.71c-.19-.49.18-1.05,0-1.55-.32-1.1-1.8-.52-2.06.28s.32,1.69.58,2.29Z"/><path class="cls-1" d="M61.53,354.82a.76.76,0,0,0-.18.25c-.12.31.15.64.45.77a4,4,0,0,0,1.3.16,1.25,1.25,0,0,1,1.1.6c.21.48-.12,1-.11,1.54a1.19,1.19,0,0,0,.92,1.12,2.32,2.32,0,0,0,.83,0,9.57,9.57,0,0,0,1.88-.53,1.57,1.57,0,0,0,1.07-.93,1.07,1.07,0,0,0-.5-1.09,2.13,2.13,0,0,0-1.22-.3c-1.64,0-1.67-.73-2.77-1.61a2.16,2.16,0,0,0-2.76.06Z"/><path class="cls-1" d="M82.25,336.67a2.46,2.46,0,0,0-3-1.53,1,1,0,0,0-.51.34c-.42.62.49,1.36.48,2.12a1.34,1.34,0,0,1-.87,1.1c-.45.2-1,.27-1.4.45a3.2,3.2,0,0,0-1.56,1.3,8.78,8.78,0,0,1-.69,1.19,4.23,4.23,0,0,1-1.35.91,13,13,0,0,0-4,3.35,4.94,4.94,0,0,0-1.07,2,3.17,3.17,0,0,0,2.42,3.62c.63.12,1.35.07,1.79.53a6.42,6.42,0,0,1,.38.53c.68.85,2.15.56,2.84-.29.2-.24.37-.53.67-.63.48-.16,1.13.22,1.45-.16.82.24,1.4-.19,2.22-.44a.83.83,0,0,1,.64,0c.36.21.29.79.61,1a1,1,0,0,0,.94,0c.36-.13.77-.3.89-.66a1.88,1.88,0,0,0,0-.71,1.75,1.75,0,0,1,.5-1.3c.46-.47,1.4-.17,1.55-.81,0-.17,0-.36,0-.53.11-.6.93-.72,1.36-1.16a1.76,1.76,0,0,0,.33-1.52,6.66,6.66,0,0,1-.2-1.59,4.38,4.38,0,0,1,.63-1.56,2.92,2.92,0,0,0,.47-1.6,1.14,1.14,0,0,0-1.08-1.08,1.77,1.77,0,0,1-.32,0c-.24-.05-.35-.31-.45-.53C85.26,337.66,83.73,337.19,82.25,336.67Z"/><path class="cls-1" d="M84.4,384.88a2.09,2.09,0,0,0-1.84-.28c-.43.14-.88.51-.77.95.19.73,1.55.48,1.81,1.19.1.27,0,.61.14.85a.62.62,0,0,0,.65.23,1.82,1.82,0,0,0,.65-.33c.36-.25.76-.6.69-1a1.1,1.1,0,0,0-.18-.4,4.17,4.17,0,0,0-1.15-1.18Z"/><path class="cls-1" d="M102.13,366.38c.55-.43,1.12.46,1.63-.53a2,2,0,0,0-.47-2.22,2.71,2.71,0,0,0-2.56-.52,1.93,1.93,0,0,0-1.31,1,2.42,2.42,0,0,0-.09,1.07,2.65,2.65,0,0,0,.76,2c.55.46,1.39.62,1.69-.21a1.44,1.44,0,0,1,.26-.56l.08-.07Z"/><path class="cls-1" d="M98.69,371.75a4,4,0,0,1-1.63-.2,1.67,1.67,0,0,1-.74-.34,1.26,1.26,0,0,1-.28-1.08,1.88,1.88,0,0,1,.58-1.19,1.13,1.13,0,0,1,1.26-.15,1.17,1.17,0,0,1,.42-.92,1.07,1.07,0,0,1,1.07.19,3,3,0,0,1,1,1c.71,1.27-.48,2.48-1.73,2.69Z"/><path class="cls-1" d="M106.53,366.91a1.38,1.38,0,0,0-.65,1.1,3,3,0,0,1,0,1c-.15.37-.59.54-.84.85a1.5,1.5,0,0,0-.09,1.57,4.43,4.43,0,0,0,1.07,1.26.88.88,0,0,0,.39.24.58.58,0,0,0,.34-.05,1.19,1.19,0,0,0,.72-1.25,3.19,3.19,0,0,1-.18-1c.06-.37.41-.61.63-.91.74-1,.45-3.94-1.34-2.85Z"/><path class="cls-1" d="M115,366.36c-.33.26-1,.07-1.08.44s.08,1.58-.74.63a2.3,2.3,0,0,1-.41-1.53,1.36,1.36,0,0,1,.82-1.32,1.48,1.48,0,0,1,1.61,1.31A.56.56,0,0,1,115,366.36Z"/><path class="cls-1" d="M123.25,364.89a2.7,2.7,0,0,0-.94-.12,2,2,0,0,0-1.59.47,2.62,2.62,0,0,0-.33.59,6.14,6.14,0,0,0-.69,1.76,1.24,1.24,0,0,0,.94,1.42c.47,0,1-.3,1.38,0s.32.6.61.75a.9.9,0,0,0,.73-.07c.7-.28,1.48-.65,1.68-1.38a1.92,1.92,0,0,0-.31-1.46c-.35-.59-.79-1.69-1.48-1.94Z"/><path class="cls-1" d="M125.26,382.09c1.67.74-.35,3.78-1.75,1.69a1,1,0,0,1,.3-1.53A1.57,1.57,0,0,1,125.26,382.09Z"/><path class="cls-2" d="M127.75,420.81c.22.63,0,2.05-1,1.88-.72-.13-.39-.9-.92-1.2-.27-.15-.67-.12-.79-.4a.44.44,0,0,1,0-.3,1.34,1.34,0,0,1,1.32-1,1.52,1.52,0,0,1,1.34,1Z"/><path class="cls-1" d="M115.7,416.67c-1.17.12-2.23.74-3.39.92-1.39.2-2.8-.26-4.2-.13-1.69.15-3.17,1.13-4.71,1.85a6,6,0,0,1-2.79.7,14.24,14.24,0,0,1-1.59-.26,7.83,7.83,0,0,0-5.91,1.44,4.23,4.23,0,0,1-2.24,1.2c-.47,0-.92-.18-1.39-.15-1,.07-1.71,1.15-2.67,1.58-1.23.54-2.86,0-3.88.84-.49.42-.71,1.09-1.23,1.46a12.47,12.47,0,0,1-1.5.63,4.65,4.65,0,0,0-1.56,1.88A13.12,13.12,0,0,1,75,432.52,4.54,4.54,0,0,0,73.43,434a3.93,3.93,0,0,0-.28,2c.06,1.73.18,3.62,1.36,4.87a23.21,23.21,0,0,0,2.26,1.68c1.22,1,2,2.59,3.52,3.13a1.43,1.43,0,0,0,.79.09c.84-.18,1-1.28,1.3-2.09.45-1.22,2-2.15,3.05-1.36a3.81,3.81,0,0,0,.77.62c1,.43,2-1.33,3.06-1.07.54.13.91.74,1.47.75s.82-.36,1.26-.37c.86,0,1.33,1.32,2.17,1.2a1.92,1.92,0,0,0,.81-.47c2.45-1.78,6.44,1.18,8.76-.76,1-.82,1.49-2.42,2.76-2.47.78,0,1.51.6,2.28.47s1.43-1.22,2.33-1.23c.7,0,1.44.66,2,.27s.39-1.12.79-1.56c.6-.66,1.66,0,2.54,0a2,2,0,0,0,1.8-.89,3.87,3.87,0,0,1,.41-.64,4,4,0,0,1,1-.52c1.48-.82,1.17-3.12,2.27-4.4.92-1.06,2.82-1.5,2.83-2.9,0-.44-.21-.86-.25-1.29-.06-.69.31-1.37.2-2a7.23,7.23,0,0,0-1-1.82c-.54-1.11-.34-2.66-1.35-3.37a4.22,4.22,0,0,0-2.3-.37c-2.3-.07-1.82-3-4.39-2.77Z"/><path class="cls-1" d="M149.16,379.48a3.4,3.4,0,0,1-.26-2c0-.3.23-.68.53-.61s.33.47.58.61c.4.22.78-.37,1.24-.42a.85.85,0,0,1,.73.41,2,2,0,0,1,.16,1.92,1.55,1.55,0,0,1-3,.07Z"/><path class="cls-1" d="M147.86,362.86c-.22.17-.53.25-.69.5s0,.87-.3,1.12c-.71.71-1.7-.2-1.76-1-.11-1.31,2-3.14,2.89-1.57a.73.73,0,0,1,0,.74.66.66,0,0,1-.18.19Z"/><path class="cls-1" d="M109.29,357.28c-1.45-.72-3-1.56-3.58-3.08a6.2,6.2,0,0,1-.3-1.77,3.81,3.81,0,0,1,.32-2.32,2.45,2.45,0,0,1,1.87-1,5.39,5.39,0,0,1,2.17.36,2.84,2.84,0,0,1,1.76,1.26c.48,1-.15,2.21.16,3.27a3.71,3.71,0,0,0,1,1.41c.62.66,1.78,2.2.67,3s-3.12-.63-4-1.07Z"/><path class="cls-1" d="M114.14,354.83c-.2.38.25.78.66.93a4,4,0,0,0,2.18.16,4.61,4.61,0,0,1,1-.17.88.88,0,0,1,.84.53c.12.35-.09.76.07,1.1a.74.74,0,0,0,.74.35,2,2,0,0,0,.8-.32,1.41,1.41,0,0,0,.47-.4c.24-.4.07-1,.43-1.3s1-.06,1.33-.42,0-.84-.4-1a1.75,1.75,0,0,1-.5-.23,1.48,1.48,0,0,1-.25-.35,1.52,1.52,0,0,0-2.35-.07,4.78,4.78,0,0,1-.41.59c-1.1,1.17-3.8-1.06-4.65.61Z"/><path class="cls-1" d="M118.12,351.56a4.07,4.07,0,0,1-1.57-.25,6.86,6.86,0,0,0-2.63-.15,1.4,1.4,0,0,1-.61,0,.81.81,0,0,1-.47-.81,2.33,2.33,0,0,1,.32-1,.77.77,0,0,1,.24-.32c.26-.16.6.05.9,0s.61-.36.75-.69a4.08,4.08,0,0,1,.42-1,1.17,1.17,0,0,1,.92-.47,5.74,5.74,0,0,0,.71,0,2.38,2.38,0,0,0,.91-.46,1,1,0,0,1,1-.14c.4.24.34.84.25,1.3s0,1.1.43,1.21a1.16,1.16,0,0,1,.31.07c1.26.69-1.31,2.51-1.86,2.59Z"/><path class="cls-1" d="M121.19,351.35a1,1,0,0,0,.24.35c.34.27.87.08,1.23.31s.41.95.85,1.18.86-.1,1.16-.42.63-.71,1.07-.72a2.83,2.83,0,0,0,.5,0,.64.64,0,0,0,.45-.7,1.33,1.33,0,0,0-.45-.78,1.14,1.14,0,0,0-.7-.36c-.42,0-.87.34-1.22.12s-.28-.45-.42-.69c-.75-1.31-3.3.32-2.73,1.68Z"/><path class="cls-1" d="M130.91,356.05c-.44-1.83-3.55-2.31-3.77-.07,0,.49,0,1.08.41,1.33.68.4,1.5-.52,2.27-.36a3.06,3.06,0,0,0,.41.1c.47,0,.78-.54.67-1Z"/><path class="cls-1" d="M135.06,353.72c-.2-1.27-1.53-.61-2.35-1.08-.28-.16-.22-.59-.49-.8a.9.9,0,0,0-.91,0,1.25,1.25,0,0,0,.64,2.37c.28,0,.54-.13.82-.16a.74.74,0,0,1,.74.27c.17.28,0,.71.3.91s.54,0,.74-.16a1.55,1.55,0,0,0,.51-1.32Z"/><path class="cls-1" d="M134,345c1,.4,1,1.62.76,2.5-.1.35-.62,1-1,.66a1,1,0,0,1-.27-.45,1.48,1.48,0,0,0-.89-.79,2.06,2.06,0,0,1-.35-.12c-.39-.22-.35-.82-.09-1.2A1.61,1.61,0,0,1,134,345Z"/><path class="cls-1" d="M144,347c-1,.3-2.09-.35-3.1-.09-.57.14-1.09.57-1.68.49a1.91,1.91,0,0,1-.83-.41,3.94,3.94,0,0,1-1.86-2.8.63.63,0,0,1,.06-.33c.24-.4.91,0,1.32-.22s.32-.53.47-.81a1.11,1.11,0,0,1,1.47-.44c.33.19.58.56,1,.59a1.3,1.3,0,0,0,.85-.38c3.85-2.84,5.53,3.44,2.33,4.39Z"/><path class="cls-1" d="M164.36,344.71c1.58.36,3.1,1.33,2.74,2.94a2,2,0,0,1-1.1,1.29,4.12,4.12,0,0,1-1.7.36,1.48,1.48,0,0,1-1.37-.48,1.41,1.41,0,0,1-.16-.6,3,3,0,0,0-.53-1.93c-.22-.26-.91-.5-1-.86C161.08,344.59,162.75,344.34,164.36,344.71Z"/><path class="cls-1" d="M160.74,338.67c.18-.21.46-.42.72-.3a.61.61,0,0,1,.28.33,1.84,1.84,0,0,1-.15,1.72c-.11.17-.27.35-.22.55a.41.41,0,0,0,.39.28,1.81,1.81,0,0,0,.51-.08,3.58,3.58,0,0,1,1.22-.09,1.33,1.33,0,0,1,.7.23.57.57,0,0,1,.19.66.87.87,0,0,1-.65.35c-1.14.24-2.78.8-3.49-.53a3.28,3.28,0,0,1,.51-3.13Z"/><path class="cls-1" d="M179.66,340.6a2.93,2.93,0,0,1-1-1,1.9,1.9,0,0,1,1.78-2.84.91.91,0,0,1,.52.16c.61.45.09,1.56.61,2.12.28.31.76.31,1.13.51a1.22,1.22,0,0,1,0,2.12c-.88.4-2.35-.64-3-1.1Z"/><path class="cls-1" d="M185.18,345.81a2.54,2.54,0,0,1-.4,2.52.7.7,0,0,1-1,.08c-.23-.28-.17-.9-.17-1.25a2.05,2.05,0,0,1,.68-1.7.72.72,0,0,1,.35-.14c.26,0,.45.25.56.49Z"/><path class="cls-1" d="M178.76,309.2c1.87,0,1.22,1.91-.28,1.92a.94.94,0,0,1-.36-1.79,1.55,1.55,0,0,1,.64-.12Z"/><path class="cls-1" d="M178.49,306.82a.75.75,0,0,0,.39.86c.44.16,1-.24,1.35.07s.19.52.36.74.77.22,1.11,0a1.31,1.31,0,0,0,.56-.71.78.78,0,0,0-.25-.83,1.54,1.54,0,0,0-.93-.15.8.8,0,0,1-.8-.4c-.42-1.18-1.59-.65-1.8.44Z"/><path class="cls-1" d="M181.55,326.52a1.51,1.51,0,0,1-.83,1.08,10,10,0,0,0-1.23.7,4.29,4.29,0,0,0-1.19,3c-.07.58,0,1.34.53,1.52s1-.24,1.41,0,.31.53.4.84a2.37,2.37,0,0,0,1.87,1.66,1.35,1.35,0,0,0,1.09-.24,1.54,1.54,0,0,0,.42-1,4.62,4.62,0,0,0,0-1.34,2.74,2.74,0,0,1-.08-1.06,2.33,2.33,0,0,1,.46-.81,2.69,2.69,0,0,0,.57-1.36,1.21,1.21,0,0,0-.69-1.21,7.37,7.37,0,0,1-.81-.2c-.4-.21-1.65-4.14-1.89-1.6Z"/><path class="cls-1" d="M181.64,324.17c.28,0,.6-.08.85.07s.29.68.57.92a.62.62,0,0,0,.9-.22.93.93,0,0,0-.14-1,1.78,1.78,0,0,0-.89-.54,1.26,1.26,0,0,1-.52-.25c-.18-.18-.22-.47-.4-.65-.73-.69-1.7,1.49-.36,1.66Z"/><path class="cls-1" d="M216.38,331.88c1.33-.32.87-2-.25-2.18-.77-.15-1.93-1.17-2.68-.68-.55.36-.49,1.18-.31,1.81a1.24,1.24,0,0,0,.52.84,1.19,1.19,0,0,0,.49.1l1.61.12a1.84,1.84,0,0,0,.62,0Z"/><path class="cls-1" d="M211.42,324a1.07,1.07,0,0,1-.38,2c-.66.12-1.83-.73-1.66-1.5a.54.54,0,0,1,.16-.24,1.61,1.61,0,0,1,1.09-.48,1.68,1.68,0,0,1,.79.2Z"/><path class="cls-1" d="M210.37,311.94c2.26-.7,1.27,3.72-.78,2.25C208.54,313.44,209.46,312.22,210.37,311.94Z"/><path class="cls-1" d="M212.25,315a3.12,3.12,0,0,0,.29,1.41.93.93,0,0,0,.44.51c.19.07.41,0,.6.06s.44.42.73.49a.87.87,0,0,0,.7-.29,2,2,0,0,0,.68-.82.7.7,0,0,0-.37-.9c-.55-.16-.84.23-1.27-.22s.08-.89-.66-1.06-1.1.26-1.14.82Z"/><path class="cls-1" d="M199.43,309a1.28,1.28,0,0,0-.5-1.58c-.61-.25-1.24.28-1.67.79s-.74.89-1.1,1.36a3.89,3.89,0,0,0-1,2,3.36,3.36,0,0,0,.46,1.74,2.32,2.32,0,0,0,1.67,1.44c1,.08,1.87-.93,2.84-.73a4.59,4.59,0,0,1,1.12.58,1.73,1.73,0,0,0,1.86,0,1,1,0,0,0-.11-1.64c-.35-.15-.83-.06-1-.37s0-.76.18-1.14a1.34,1.34,0,0,0-.34-1.36,1.22,1.22,0,0,0-1.37-.2,1.71,1.71,0,0,0-.78,1.12c-.17.67-.66.93-1,.18s.52-1.56.7-2.16Z"/><path class="cls-1" d="M191.76,310.23c.2-.14.44-.22.64-.37.8-.59.64-1.82.39-2.78a2.33,2.33,0,0,0-.64-1.29,1.81,1.81,0,0,0-1.54-.23,4,4,0,0,0-2.94,2.73,3.85,3.85,0,0,1-.56,1.47,4.08,4.08,0,0,1-1,.69,3.68,3.68,0,0,0-1.51,4.06c.43,1.44,1.69,2.45,2.62,3.64a1.17,1.17,0,0,1,.3.62,1.56,1.56,0,0,1-.23.74,2.94,2.94,0,0,0,.15,2.76,2.44,2.44,0,0,0,2.48,1.08,2.08,2.08,0,0,0,1.62-2.09c0-.38-.16-.8.07-1.1a1.12,1.12,0,0,1,.56-.32,1.69,1.69,0,0,1,1.52,0,1.29,1.29,0,0,1,.36,1.21c-.06.44-.23.86-.25,1.3a2.08,2.08,0,0,0,2.5,2c.71-.19,1.49-.76,2.08-.33.29.21.39.6.6.89a1.3,1.3,0,1,0,2.06-1.6c-.16-.2-.39-.37-.43-.62s.37-.67.69-.93c1-.82,1.1-2.31,1.11-3.61a3.25,3.25,0,0,0-.29-1.67,2.84,2.84,0,0,0-2.2-1.12c-2.07-.26-3.2,1-5,1.58-.49.16-1.15.05-1.3-.44a2.72,2.72,0,0,1,0-.85,1.3,1.3,0,0,0-1.08-1.32c-1.66-.23-2.25-3.11-.81-4.1Z"/><path class="cls-1" d="M222,314.16a1,1,0,0,1,.43,1.59c-.78.84-2.67-.44-1.85-1.21a1.47,1.47,0,0,1,1.42-.38Z"/><path class="cls-1" d="M224,313.72c.26.41,1,.42,1.11.88s-.19.66-.5.8-.67.18-1,.35a1.26,1.26,0,0,0-.44,1.68c.27.45.81.68,1.12,1.11s.36,1.13.79,1.52a1,1,0,0,0,1.53-.23c.34-.55.08-1.27.21-1.91a5.29,5.29,0,0,1,.88-1.61,1.53,1.53,0,0,0,.1-1.73c-.17-.2-.43-.35-.48-.6-.09-.59,1-.64,1.23-1.18s-.29-1.37.23-1.62a1.69,1.69,0,0,1,.39-.08c.68-.14.79-1.14.41-1.72a.89.89,0,0,0-.48-.4c-.5-.14-.92.39-1.09.88s-.28,1.07-.73,1.32a4,4,0,0,1-.67.2c-.89.25-.94,1.11-1.75,1.44-.48.2-1.42.07-.9.89Z"/><path class="cls-1" d="M231.52,316.77a.54.54,0,0,0-.68-.33.79.79,0,0,0-.32.61l-.18,1a.41.41,0,0,1-.11.24c-.19.16-.43-.14-.67-.21a.53.53,0,0,0-.57.26,1.57,1.57,0,0,0-.18.64c-.05.4-.05.9.31,1.09a5.63,5.63,0,0,0,.59.14.93.93,0,0,1,.51.88c0,.36-.07.72-.05,1.08a.93.93,0,0,0,.54.86.77.77,0,0,0,.86-.42,1.36,1.36,0,0,0,0-1c-.11-.35-.28-.78,0-1.06s.54-.19.81-.29c1-.37.33-1.24-.1-1.65-.26-.24-.51-.23-.68-.59s.08-.84-.09-1.24Z"/><path class="cls-1" d="M232.27,304.07a1.9,1.9,0,0,1,1.12-1.22.64.64,0,0,1,.4-.11c.32,0,.41.48.29.78-.34.84-.26.39,0,1.13.15.4.38.64.34,1.11a.65.65,0,0,1-.12.36c-.67.83-2.13-1.43-2-2.05Z"/><path class="cls-1" d="M253.74,301.08c0-.51.11-1,.16-1.52a.82.82,0,0,0,0-.27c0-.15-.2-.23-.33-.31a2.25,2.25,0,0,1-1-2.18,1.3,1.3,0,0,1,.23-.6,1.35,1.35,0,0,1,.62-.42,2,2,0,0,1,1.76.07,1.29,1.29,0,0,1,.56,1.57c-.11.23-.3.42-.42.65a2.22,2.22,0,0,0,0,1.42,2.4,2.4,0,0,1,0,1.43c-.21.46-1.58,1-1.49.17Z"/><path class="cls-1" d="M245.58,300.76c.14-.13.3-.23.44-.36a1.46,1.46,0,1,0-2.24-1.81c-.48.82-.09,1.93-.55,2.76-.3.53-.9.83-1.22,1.35s-.41,1.28-1,1.49a2,2,0,0,1-1-.06,1.73,1.73,0,0,0-1.59.55,1.14,1.14,0,0,0,.15,1.57,6.24,6.24,0,0,0,.88.36,1.42,1.42,0,0,1,.39,2.17,3.68,3.68,0,0,0-1.19-1,1.28,1.28,0,0,0-1.45.2c-.29.32-.39.86-.8,1-.58.15-.87-.67-1.33-1.05-.73-.6-1.8,0-2.51.6-1.42,1.22-2.82,2.94-2.39,4.77a1.64,1.64,0,0,0,1.38,1.37c.34,0,.71-.13,1,0,.57.33.27,1.45.89,1.67.46.17.86-.38,1-.86s.18-1.06.63-1.27c.26-.12.57-.07.83-.18s.58-.63,1-.8a1,1,0,0,1,1.18.55,2.8,2.8,0,0,1,.18,1.41c0,.63-.19,1.38-.78,1.59a2.7,2.7,0,0,1-.75.08,1.78,1.78,0,0,0-1.7,1.65c0,.87,1.17,1.56,1.85,1,.21-.17.38-.42.64-.46s.67.45.58.84a3.72,3.72,0,0,1-.59,1,1,1,0,0,0-.06,1.12c.37.43,1.3.29,1.38.85s-.52.67-.83,1a1.2,1.2,0,0,0,.62,1.86c1.37.38,1.72-1,2.22-1.85s1.57-1.32,1.59-2.44c0-.47-.15-.93-.11-1.39.08-1.1,1.11-1.25,1.11-2.43,0-.45.15-1,.59-1.1a1.31,1.31,0,0,1,.77.23,1.8,1.8,0,0,0,1.47.11,1.1,1.1,0,0,0,.69-1.21,3.2,3.2,0,0,0-.62-.94c-.22-.31-.32-.79,0-1a1.08,1.08,0,0,1,.43-.17,2,2,0,0,0,1.56-1.52c.09-.77-.8-1.55-1.46-1.16-.2.11-.35.31-.56.38-.56.19-1-.59-.84-1.15a5.56,5.56,0,0,1,1-1.43,3.77,3.77,0,0,0-.12-4.15c-.61-1-1.83-2.66-.69-3.77Z"/><path class="cls-1" d="M115.22,98.69a4.11,4.11,0,0,0,.28-2c-.23-1.17-1.43-1.92-1.86-3a6.31,6.31,0,0,1,.14-3.41c.21-1.13.18-2.49-.72-3.21a3,3,0,0,0-1.3-.52,7.84,7.84,0,0,0-6.24,1.5c-.83.65-1.53,1.47-2.4,2a4.06,4.06,0,0,1-1.18.54,58.86,58.86,0,0,1,.2,7.41,2.44,2.44,0,0,0,.21,1.14c.58,1.12,2.62,1.34,2.5,2.59a2.58,2.58,0,0,1-.44,1,2.3,2.3,0,0,0-.1,2.2,1.46,1.46,0,0,0,2,.58c.44-.29.65-.85,1.11-1.11a2.13,2.13,0,0,1,1.59,0,2.75,2.75,0,0,1,1.12.52,10.81,10.81,0,0,0,1.84-.81c1.86-1.13,2.64-3.39,3.3-5.46Z"/><path class="cls-1" d="M136.72,140.7c1.57-.72,3.65-1.5,4.82-.23.52.57.7,1.45,1.36,1.84a4.19,4.19,0,0,0,1.78.27c1.81.18,3.12,1.73,4.23,3.17,1.06-.09,1.11-1.63,1.7-2.52s1.88-1.09,3-1.3,2.37-.74,2.53-1.84c.11-.73-.31-1.55.09-2.17.55-.85,1.87-.35,2.86-.57,2-.44,2.17-3.58,4.09-4.14,1.34-.38,3.17.61,4-.53a11.44,11.44,0,0,0,.48-1.14c.61-1.08,2.18-.89,3.37-1.22a3.59,3.59,0,0,0,2.44-4.17c-.25-1-.8-2.28.08-2.78a5.65,5.65,0,0,0,2.76,1.61c2.05.29,2.38-1.86,3-3.26.1-.21,1.55-5.48.28-4.87,2.13-1,3.09-3.68,2.69-6-.27-1.59-1.05-3.28-.33-4.72a9.28,9.28,0,0,1,1.57-1.81,5.57,5.57,0,0,0,.92-5.77c-.39-.89-1-1.67-1.37-2.58a2.61,2.61,0,0,1,.28-2.75c.89-.9,2.62-.68,3.3-1.76s-.31-2.44-1.44-2.94c-1.49-.67-3.21-.51-4.84-.58s-2.61-.2-3.69-1.42a13.33,13.33,0,0,0-3.13-2.87,4.6,4.6,0,0,0-4.08-.47c-.87.38-2.57,2-3.25.67-.38-.73,1.29-4.2,1.56-5a2.2,2.2,0,0,0,.11-1.49,1.5,1.5,0,0,0-1.27-.83,4.38,4.38,0,0,0-1.56.23c-1.3-1.4,1.85-4,1.77-5.73-.08-1.55-1.36-3-1-4.47l3.48-2.17c1.27-.8,2.66-1.74,3-3.2.46-2-1.46-3.95-3.51-4.25a1.88,1.88,0,0,1-.93-.28c-.81-.64.16-1.94-.08-2.94s-1.29-1.22-2.19-1.16a9.35,9.35,0,0,1-2.68.16,3.4,3.4,0,0,1-2.3-2.89,15.49,15.49,0,0,1,.17-3.9,2.21,2.21,0,0,0-.12-1.2,1.66,1.66,0,0,0-2-.68,4.81,4.81,0,0,0-1.85,1.32,3.49,3.49,0,0,0-.46-1.59,1.2,1.2,0,0,0-1.44-.51c-.88.43-.83,2.14-1.81,2.12a1.33,1.33,0,0,1-.67-.26l-2.56-1.57a1.74,1.74,0,0,1-.73-.66,1.83,1.83,0,0,1,.06-1.32l.88-2.89c-.84-.42-1.79.3-2.4,1s-1.35,1.56-2.27,1.43c-1.61-.23-1.75-3-3.36-3.25-1.45,1.71,1.59,5.46-1.54,5.79a2.71,2.71,0,0,1-2.2-.92c-1-1.07-1.38-2.62-2.57-3.56-.75-.6-2.1-.62-2.39-1.71a18.26,18.26,0,0,0-.83-3,5.18,5.18,0,0,0-1-1.5l-1.87,1.57a11.58,11.58,0,0,0-2,1.91,1.47,1.47,0,0,0-.23.47,2,2,0,0,0,0,.76,12.45,12.45,0,0,1,.15,3.11c-1,.82-2,1.35-3,2.18A9.81,9.81,0,0,0,122,45.63a16,16,0,0,0-1.1,3.18,10.86,10.86,0,0,1-4.67,6c-2.27,1.35-5,1.73-7.6,2.09,0,2.32,0,4.68,0,7a2.09,2.09,0,0,0,.3,1.35c.42.51,1.4.81,1.17,1.43-.17.47-.86.42-1.26.71a1.61,1.61,0,0,0-.43,1.34L108.31,79a2,2,0,0,0,.23,1.18,2.3,2.3,0,0,0,1.2.69,6.69,6.69,0,0,1,3.63,3.31A9.4,9.4,0,0,1,109.09,82a4.63,4.63,0,0,1-1.47-1.55,5.06,5.06,0,0,1-.32-2,28.68,28.68,0,0,0-.65-5.14c-.11-.49-.4-1.1-.9-1-.29,0-.46.33-.66.54-1.15,1.3-3.23.77-5,.59a1.44,1.44,0,0,0-.92.13,1.5,1.5,0,0,0-.47,1.15c-.35,3.4-.66,7,.8,10.1.45.94,1,1.8,1.49,2.75a11.21,11.21,0,0,1,.88,3.1,4.37,4.37,0,0,0,1.18-.54c.88-.58,1.57-1.4,2.4-2a7.84,7.84,0,0,1,6.24-1.5,3,3,0,0,1,1.3.52c.9.72.93,2.07.72,3.21a6.3,6.3,0,0,0-.14,3.41c.43,1.12,1.63,1.86,1.86,3a4,4,0,0,1-.28,2c-.65,2.08-1.44,4.33-3.3,5.46a10.81,10.81,0,0,1-1.84.81.87.87,0,0,1,.31.62c0,.56-.54,1-1.06,1.15a2.79,2.79,0,0,0-1.43.81c-.49.72.08,1.75.85,2.14a10.2,10.2,0,0,0,2.54.57,5.78,5.78,0,0,1,2.48,1.19,1.06,1.06,0,0,1,.41.55c.12.61-.69.92-1.31,1l-3.11.33c-.67.07-1.65-.19-1.48-.84-.35-.61-1.35-.07-1.74.52a3.42,3.42,0,0,0-.28,2.06,2.77,2.77,0,0,1-.42,2c-1.16-.22-.1-2.58-1.19-3-.43-.18-1,.09-1.38-.09s-.56-.73-.86-1.1a1.7,1.7,0,0,0-2.41,0,2.88,2.88,0,0,0-.67,2.52,2.68,2.68,0,0,1,0,1.79c-.18.32-.52.52-.74.81a1.37,1.37,0,1,0,2.22,1.59,1.37,1.37,0,0,1,.39-.49c.4-.21.87.24,1.31.15s.62-1,1.11-1.28,1.35.21,1.72.82a7.59,7.59,0,0,1,1.11,3.47c0,.72.28,1.72,1,1.63.57-.08,1.09-.91,1.53-.54s-.09.86-.42,1.22a2.44,2.44,0,0,0-.15,3,.79.79,0,0,0,.48.34c.33.06.62-.23.82-.51.74-1,1.19-2.27,1.91-3.33a3.73,3.73,0,0,1,3.15-1.88c1.28.1,2.35,1.68,1.6,2.72-.59.81-1.87.87-2.44,1.7-.91,1.33.79,3.28,0,4.7-.44.79-1.58,1.24-1.54,2.14s1.4,1.22,2.37,1.09,2.28-.14,2.59.79a6.61,6.61,0,0,1-2.21.92c-.42.47.31,1.16.94,1.15s1.3-.3,1.85,0,.71,1.26,1,2a5.21,5.21,0,0,0,1.65,1.88,8.43,8.43,0,0,0,3.24,1.91,2.86,2.86,0,0,0,3.26-1.29c.45-1,.3-2.44,1.32-2.8a4.09,4.09,0,0,1-.38,3.82c1.15-.21,2.45-.2,3.43-.42a26.44,26.44,0,0,0,5.26-1.76Z"/><path class="cls-1" d="M183,125.13c1.89.82,4.83-.41,6.73-.79a5.63,5.63,0,0,0,3.08-1.3c1-1,1.06-2.57,1.33-4s1.07-3,2.48-3.06,2.52,1.44,3.26,2.75,2,2.78,3.46,2.33c1-.31,1.48-1.37,2.1-2.2s1.88-1.49,2.63-.77c.28.26.44.68.8.78.74.21,1-1,1.5-1.53.68-.77,2-.43,2.78.2a8,8,0,0,0,2.47,1.78c1.28.35,2.57-.45,3.66-1.21,1,.42.52,2-.32,2.69s-2,1.36-2,2.45c0,1.43,2,1.83,3.43,1.45s3-1,4.14-.2c.86.62,1.14,1.88,2.07,2.38,1.34.72,2.87-.56,4.39-.64,2.2-.11,3.66,2.24,5.68,3.1,1.82.78,4,.3,5.78,1.23a13.9,13.9,0,0,1,2.78,2.54,3.62,3.62,0,0,0,3.38,1.23,6.84,6.84,0,0,0,1.77-5.56,3.88,3.88,0,0,1,0-2.24,2.31,2.31,0,0,1,2.26-1,4.57,4.57,0,0,1,4.09,3.69,3.62,3.62,0,0,0,.61,2.05c1.14,1.14,2.83-.55,4.31-1.19,2.47-1.08,5.38,1.07,8,.3,1.57-.47,2.85-2,4.49-1.88,2.77.16,3.95,4.67,6.7,4.38,1.88-.2,2.63-2.44,3.49-4.12a9.82,9.82,0,0,1,5.56-4.72l-.12-.16c-1.62-2.53.58-6.23-1-8.78a12.56,12.56,0,0,1-.94-1.39c-.21-.46-.27-1-.5-1.44-.47-.94-1.55-1.39-2.32-2.1a4.05,4.05,0,0,1-1.25-2.35c-.17-1.09.07-2.34-.63-3.18a5.74,5.74,0,0,0-1.85-1.11,4.5,4.5,0,0,1-2.18-2.71,11.47,11.47,0,0,0-.35-1.31c-.44-1.14-1.54-1.85-2.41-2.71A8.21,8.21,0,0,1,274,90.57a4.84,4.84,0,0,0,0-1.37,3.86,3.86,0,0,0-1.88-2.11A7.31,7.31,0,0,1,270,84.62a2.53,2.53,0,0,1-.54-1.77c.08-.39.32-.72.42-1.11.32-1.22-.66-2-1.37-2.72-.86-.92-1.51-2-2.45-2.83s-1.76-1.39-2.57-2.16c-2.21-2.1-3.4-5.06-5.47-7.29-1.09-1.17-2.48-2.25-2.77-3.82a10.27,10.27,0,0,0-.25-1.57,3.81,3.81,0,0,0-.8-1.17c-2.73-3.1-5.32-6.32-7.91-9.54a11.76,11.76,0,0,1-2.11-3.32,14,14,0,0,0-.95-2.82,9.51,9.51,0,0,0-2.08-2c-2.21-1.88-1.43-4.69-2.25-7.18a18.47,18.47,0,0,0-1.9-3.56C234.78,28,233.64,23.73,231.4,20a17.49,17.49,0,0,1-2-3.79c-.29-1-.35-2-.73-3-.45-1.13-1.34-2-1.84-3.16-.71-1.59-.59-3.49-1.44-5-.6-1.08-1.65-1.9-2-3.07a2.92,2.92,0,0,0-.61-1.4,1.4,1.4,0,0,0-1.57,0c-1.33.75-1.65,2.53-1.56,4.06s.43,3.12-.11,4.55c-1,2.49-.94,5-2.5,7.14a27.84,27.84,0,0,1-5.75,5.51,14.46,14.46,0,0,1-2.47,1.63,26,26,0,0,0-3.7,1.6,15.53,15.53,0,0,1-1.43,1,5.57,5.57,0,0,1-2,.51,23.41,23.41,0,0,1-6.31-.22,13.09,13.09,0,0,0-3.93-.38,18.93,18.93,0,0,0-2.93.87,4.3,4.3,0,0,1-3,0c-.5-.23-.92-.61-1.4-.86a6.68,6.68,0,0,0-3.69-.4l-2.9.24c-2.63-.29-5-.31-7.66-.6a5.22,5.22,0,0,0-2.86.22c-1.12.54-2,1.89-3.22,1.66a3.16,3.16,0,0,1-1.1-.55,10.57,10.57,0,0,0-8.88-1.11,9.19,9.19,0,0,1-1.75.51c-1.89.24-3.86-1.19-5.62-.45-1,.42-1.68,1.48-2.74,1.69-.9.18-1.8-.31-2.71-.41-1.77-.2-3.35,1-4.72,2.17L131.55,33a5.18,5.18,0,0,1,1,1.5,18.26,18.26,0,0,1,.83,3c.29,1.09,1.63,1.11,2.39,1.71,1.18.94,1.56,2.48,2.57,3.56a2.71,2.71,0,0,0,2.2.92c3.13-.33.09-4.07,1.54-5.79,1.61.22,1.76,3,3.36,3.25.93.13,1.67-.72,2.27-1.43s1.56-1.44,2.4-1l-.88,2.89a1.83,1.83,0,0,0-.06,1.32,1.79,1.79,0,0,0,.73.66l2.56,1.57a1.33,1.33,0,0,0,.67.26c1,0,.93-1.69,1.81-2.12a1.2,1.2,0,0,1,1.44.51,3.62,3.62,0,0,1,.46,1.59A4.89,4.89,0,0,1,158.67,44a1.67,1.67,0,0,1,2,.68,2.23,2.23,0,0,1,.12,1.2,15.49,15.49,0,0,0-.17,3.9,3.41,3.41,0,0,0,2.3,2.89,9.35,9.35,0,0,0,2.68-.16c.9-.06,2,.29,2.19,1.16s-.72,2.3.08,2.94a2,2,0,0,0,.93.28c2,.3,4,2.24,3.51,4.25-.34,1.46-1.72,2.41-3,3.2l-3.48,2.17c-.4,1.49.88,2.93,1,4.47.08,1.71-3.08,4.33-1.77,5.73a4.41,4.41,0,0,1,1.56-.23,1.5,1.5,0,0,1,1.27.83,2.27,2.27,0,0,1-.11,1.49c-.27.84-1.94,4.3-1.56,5,.68,1.31,2.38-.29,3.25-.67a4.6,4.6,0,0,1,4.08.47,13.54,13.54,0,0,1,3.13,2.87c1.08,1.23,2.05,1.35,3.69,1.42s3.35-.08,4.84.58c1.13.51,2.1,1.89,1.44,2.94s-2.41.86-3.3,1.76a2.61,2.61,0,0,0-.28,2.75c.36.9,1,1.68,1.37,2.58a5.57,5.57,0,0,1-.92,5.77,9.58,9.58,0,0,0-1.57,1.81c-.72,1.44.06,3.13.33,4.72.4,2.32-.56,5-2.69,6,.63-.3.59.83.38,2.07,1,1.89,1.25,5.39,3.09,6.19Z"/><path class="cls-1" d="M182.48,297.34c-.9-2.09-4-2.53-4.87-4.63-.23-.55-.27-1.17-.5-1.73-.81-2-3.49-2.47-5.13-3.91-2-1.8-2.22-4.83-2.72-7.51s-1.6-5.43-3.83-7-5.79-1.44-7.28.85c-.5.77-1,1.85-1.87,1.84s-1.33-.84-2.09-.88c-1.12-.05-1.63,1.55-2.71,1.84a2.29,2.29,0,0,1-1.16-.07c-1.87-.47-3.89-1.47-5.61-.58-.52.27-1.12.7-1.61.38s-.38-.95-.74-1.32c-.57-.59-1.53,0-2.23.43a5.5,5.5,0,0,1-6.14-.31,1,1,0,0,1-.43-.55c-.09-.41.26-.77.56-1.08.77-.79,1.28-2.17.49-2.94s-2.44-.44-2.88-1.46c-.35-.81.44-1.63.7-2.48a2.07,2.07,0,0,0-3.38-2.13c-1.22,1.11-1.09,3.55-2.69,4s-2.47-1.63-3.31-3a6,6,0,0,0-5.27-2.87,5.3,5.3,0,0,0-4.72,3.57c-.23.75-.28,1.55-.56,2.28-.67,1.76-2.62,3-2.7,4.89a2.15,2.15,0,0,0-2.41.15,6.2,6.2,0,0,0-1.62,2,4.33,4.33,0,0,0-1.22-1.74,1.52,1.52,0,0,0-2,0c-.81.89.09,2.42-1,3.2-.77.58-2.61.16-3.35-.38-2-1.47-.8-4.31-2.71-6.05-1.21-1.11-.53-2.61-2.09-3.62a6,6,0,0,0-2.51-.82l-.22.55c-1.07,2.56-2.67,4.94-3.21,7.71-.22,1.16-.42,2.58-1.51,3-.34.13-.71.15-1,.28-.92.38-1.19,1.53-1.25,2.52a1.61,1.61,0,0,1-.2.84A2.86,2.86,0,0,1,83,281a1.67,1.67,0,0,0,.06,2.47,3.82,3.82,0,0,1,.64.48c.38.44.26,1.14.58,1.63.44.67,1.41.62,2.15.93,1.84.79,1.71,3.58,3.18,5,.82.76,2.1,1,2.66,2s.12,2.29-.48,3.28a3,3,0,0,1-.91,1,1.2,1.2,0,0,1-1.32,0c-.71-.53-.3-1.69-.65-2.51a1.82,1.82,0,0,0-1.27-1,2.07,2.07,0,0,0-2.4,1,1.41,1.41,0,0,0,1.26,1.95c.5-.06,1.06-.42,1.43-.09a1,1,0,0,1,.18.93c0,.33-.09.66-.14,1a.81.81,0,0,1-.21.53c-.2.17-.5.1-.77.09a1.74,1.74,0,0,0-1.76,1.58,1.8,1.8,0,0,1-.08.7c-.18.38-.68.45-1.07.6a2.07,2.07,0,1,0,2.77,2.28c.09-.51,0-1,.1-1.54s.61-1,1.1-.81c.49-.24,1.1.37,1.15.92a3.3,3.3,0,0,1-.45,1.57,7.63,7.63,0,0,0-.54,4c.18,1.32.71,2.64.41,3.94-.34,1.5-1.74,2.63-1.93,4.16a1.17,1.17,0,0,0,.15.84,1.14,1.14,0,0,0,.54.37,2.46,2.46,0,0,0,1.79,0,12.43,12.43,0,0,0,1.23-.69c1.47-.76,3.25-.47,4.87-.09a2.8,2.8,0,0,1,1.22.5,1,1,0,0,1,.3,1.19,1.09,1.09,0,0,1-1.22.37c-.44-.11-.83-.38-1.26-.53-1.69-.61-3.45.56-5.21,1-.64.15-1.37.24-1.74.79-.48.71.08,1.73.85,2.09a6.12,6.12,0,0,0,2.53.29,7.65,7.65,0,0,1,6.24,2.9c.39.57.66,1.38.21,1.9a1.8,1.8,0,0,1-1.56.37c-1-.09-2.17-.32-2.6-1.23a13.61,13.61,0,0,1-.36-1.59,3.16,3.16,0,0,0-2.8-1.77,1.6,1.6,0,0,0-.87.08c-.62.28-.73,1.09-1,1.74-.34,1-1.14,1.8-1.14,2.83,0,1.32,1.27,2.24,2.46,2.82s2.54,1.15,3,2.38A4.43,4.43,0,0,1,87,331c-.36-1-.35-2.17-1-3-.24-.35-.57-.63-.81-1a4.41,4.41,0,0,1-.56-2.43,6.15,6.15,0,0,0-.36-2.49,1.87,1.87,0,0,0-2-1.18A2.3,2.3,0,0,0,81,322a6.24,6.24,0,0,0-1.11,3.62,17.11,17.11,0,0,0,.4,3.56,22.54,22.54,0,0,0,2.34,5.41,3.66,3.66,0,0,0,.9,1.22,5.12,5.12,0,0,0,2.37.61,12.56,12.56,0,0,1,4.65,2.15c1.7,1.09,3.46,2.38,3.2,4.65a9.28,9.28,0,0,0-.22,2.45c.12.82.77,1.65,1.59,1.59.38,0,.75-.25,1.13-.19a.86.86,0,0,1,.49,1.37c-.32.34-.87.37-1.19.71s-.29.92-.43,1.4a12.08,12.08,0,0,1-1,1.66c-.28.58-.18,1.46.44,1.62,1,.27,1.73-1.52,2.65-1.1.6.27.47,1.15.24,1.76a6.43,6.43,0,0,0-.64,2.52,1.06,1.06,0,0,0,.16.6c.33.49,1.14.34,1.56-.09a12.32,12.32,0,0,0,1-1.5,1,1,0,0,1,.67-.44c.33,0,.59.28.88.44a2,2,0,0,0,2.59-1.18,8,8,0,0,0,.33-3.17,3.81,3.81,0,0,1,1-2.95c1.09-.94,2.93-.66,3.89-1.73,2.7-3,5.46-5.71,5.46-9.74,0-1.33-.52-3.25-.09-4.51a.55.55,0,0,1,.54-.4c.37,0,.49.51.5.88,0,.93,0,1.87,0,2.79,0,2.18.08,4.37.22,6.54a2.8,2.8,0,0,0,.29,1.28c.52.87,1.75.92,2.6,1.47.55.36.94.93,1.5,1.28s1.45.36,1.74-.23c.15-.31.1-.73.34-1s.9-.13,1.29.13.86.58,1.29.39c.81-.35.3-1.88,1.09-2.3a1.8,1.8,0,0,1,.61-.13,2.45,2.45,0,0,0,2-2.68,6.26,6.26,0,0,1-.3-1.7c.13-1,1.21-1.5,1.61-2.39.62-1.38-.53-3.19.33-4.42a7.67,7.67,0,0,1,3.44-2.42,11,11,0,0,0,4.38-3.8c.27-.41.83-.88,1.15-.5.09.1.12.24.21.34a.73.73,0,0,0,.58.14c1.36-.06,2.86-.19,3.81-1.17s1.05-2.76,1.93-3.95a.73.73,0,0,1,.47-.34.65.65,0,0,1,.61.49c.1.26.11.55.23.81.34.71,1.3.8,2.1.79a1.44,1.44,0,0,0,1.29-.47c.14-.22.14-.5.28-.73a1,1,0,0,1,1.49,0,2.41,2.41,0,0,1,.52,1.6,9.52,9.52,0,0,1-.32,2.86,3,3,0,0,1-.66,1.34,1.33,1.33,0,0,1-1.37.41c-1.29-.46-.78-2.88-2.07-3.32a1.23,1.23,0,0,0-1.49,1c-.07.49.11,1,0,1.47-.15.77-.95,1.27-1.15,2-.1.39,0,.8-.1,1.19s-.4.8-.79.74-.48-.34-.72-.52a1.37,1.37,0,0,0-1.64,0,1.83,1.83,0,0,0-.66,1.56c0,.51.24,1.08,0,1.51s-.84.46-1.3.64a4.16,4.16,0,0,0-1.79,1.85,2,2,0,0,0-.44,1.57c.22.69,1.15,1,1.35,1.67a1.61,1.61,0,0,0,.19.62.79.79,0,0,0,.6.21,14.58,14.58,0,0,0,2.09,0,9.1,9.1,0,0,0,1.8,0,5.29,5.29,0,0,0,.74-.4c1.08-.53,2.33.19,3.32.88a1.19,1.19,0,0,1,.55.62c.1.43-.29.89-.11,1.3s.81.41,1.18.69c.71.54.43,2.05,1.31,2.18.54.08.92-.53,1-1.07s.15-1.15.58-1.49,1.3-.13,2-.13a2.23,2.23,0,0,0,1.93-1.17,3.31,3.31,0,0,1,.36-.64,2.9,2.9,0,0,1,1-.51,2.26,2.26,0,0,0,1.21-2.43,1,1,0,0,0-.48-.74c-.55-.28-1.37.22-1.77-.26-.23-.28-.13-.7-.28-1a.94.94,0,0,0-1-.4,2.8,2.8,0,0,0-1,.6.94.94,0,0,1-.45.24.7.7,0,0,1-.66-.47,1.59,1.59,0,0,1,.94-2,2.64,2.64,0,0,1,2.35.34,1.38,1.38,0,0,0,.77.32c.24,0,.45-.16.68-.18.43,0,.73.4,1,.74s.79.63,1.11.33.2-.51.4-.69.71-.07,1.07,0a2.07,2.07,0,0,0,1.93-3.53c-.53-.48-1.33-.7-1.64-1.35-.1-.21-.14-.45-.23-.66a3.06,3.06,0,0,0-1-1.13,42.32,42.32,0,0,1-4.17-4c-.54-.59-1.1-1.37-.84-2.12s1.05-1.11,1-1.81-.95-1.19-.71-1.83c.09-.24.33-.4.44-.64.26-.53-.24-1.1-.64-1.53s-.76-1.16-.31-1.55a1,1,0,0,1,1.09,0,4.26,4.26,0,0,0,1,.58c.38.1.88-.09.9-.48a2.58,2.58,0,0,1,1.94-.72,7.59,7.59,0,0,0,2,0,1.47,1.47,0,0,0,1.23-1.39,2.17,2.17,0,0,1-.07-.71c.14-.54,1-.45,1.33,0a3.58,3.58,0,0,1,.29,1.64,7,7,0,0,0,.81,2.33,5,5,0,0,0,.63,1,11.91,11.91,0,0,0,1.5,1.22,4.43,4.43,0,0,1,1.61,3.09,3.79,3.79,0,0,1-1.38,3.16,3.53,3.53,0,0,0-1.06,1,2.27,2.27,0,0,0-.16,1.1c0,1.25.26,2.8,1.44,3.19.57.19,1.22,0,1.76.28.91.4,1.37,1.8,2.35,1.65.83-.13,1-1.25.87-2.08a9.45,9.45,0,0,0-1-2.83,3.77,3.77,0,0,1-.5-1.19,1.05,1.05,0,0,1,.48-1.12,2.62,2.62,0,0,1,.73-.14,1.69,1.69,0,0,0,1.31-1.22c.11-.45,0-.93.14-1.38s.58-.88,1-.69c.58.26.29,1.14.48,1.75s1,.95,1.72,1.11a1.64,1.64,0,0,0,.79.05c.86-.24.83-1.63,1.62-2,.19-.1.42-.13.6-.24.58-.34.5-1.2.29-1.84s-.46-1.41,0-1.93a3.93,3.93,0,0,1,.81-.57,2.19,2.19,0,0,0,.86-1.51,3.1,3.1,0,0,0-1.72-3.12,3.59,3.59,0,0,0-3.61.37,16.09,16.09,0,0,1-2.08,1.72,2.73,2.73,0,0,1-3.44-1,2.43,2.43,0,0,0-.6-.84c-.19-.13-.42-.17-.6-.31-.72-.54,0-1.7-.26-2.56-.18-.64-.89-1.17-.7-1.8s1-.69,1.5-.45a15.81,15.81,0,0,1,1.45,1,2.73,2.73,0,0,0,3.84-1.5,5.78,5.78,0,0,1,.35-1.25c.46-.83,1.57-1,2.52-1,.63,0,1.3-.19,1.94-.25-.23-2.25,2-5.1,1-7.39Z"/><path class="cls-1" d="M172.58,274.72a5.09,5.09,0,0,0,.2-3.49c-.16-.74-.36-1.61.15-2.17a3.12,3.12,0,0,1,1.1-.61c1.21-.53,2.06-2.33,1-3.11-.51-.37-1.31-.38-1.6-.93a1.88,1.88,0,0,1,.09-1.37,6,6,0,0,0-1.45-5.73,7.32,7.32,0,0,1-1.2-1.29c-.63-1.09-.23-2.46.19-3.65l2.64-7.46a10.31,10.31,0,0,1,.83-1.93,6.59,6.59,0,0,0,.95-1.77c.3-1.32-.61-3.06.47-3.88.53-.4,1.28-.3,1.91-.52,1.5-.52,1.87-2.59,3.23-3.4.72-.43,1.65-.46,2.34-.93s1.2-1.69,2.1-2.14c1.17-.57,3,.1,3.62-1,.5-.86-.26-2,.09-2.93.25-.68,1-1,1.5-1.55a3.54,3.54,0,0,0,.3-4,10.28,10.28,0,0,0-2.89-3.1,2.75,2.75,0,0,0-1.73-.82c-1.36.06-2.23,2.07-3.55,1.73-1-.24-1.25-1.57-2.18-1.88-1.18-.4-2.95.92-3.49-.21-.21-.43,0-1-.28-1.38-.46-.68-1.5-.1-2.1.46a17.12,17.12,0,0,1-10,4.49c-2.35.22-5-.15-6.58-1.85-1.11-1.15-1.69-2.82-3-3.67-.89-.56-2.09-.76-2.62-1.66-.67-1.12,0-2.82-.94-3.7-.79-.15-1.46.52-2.1,1-1.7,1.29-4,1.44-6.1,1.55-2.58.13-5.77-.09-6.84-2.43-.34-.75-.47-1.72-1.2-2.12s-1.46,0-2.2.09c-2.71.49-5.58-1.63-8.13-.59-2.13.87-2.86,3.43-4,5.43a11.45,11.45,0,0,1-4.14,4.21s0,0,.07,0a.49.49,0,0,1,.16.65.68.68,0,0,1-.46.21c-1.19.16-2.67-.13-3.37.84-.27.37-.34.84-.59,1.22-.59.89-1.86.92-2.93.92a10.39,10.39,0,0,0-4.07.65,6.29,6.29,0,0,1-1.37.51,8.49,8.49,0,0,1-2.06-.18,6.41,6.41,0,0,0-2.3.28c-.26.07-1.65.18-1.71.24-.9,1,2.2,2.19,2.73,2.18.89,0,2-.25,2.45.54a1.73,1.73,0,0,1,.07,1,6.09,6.09,0,0,0-.06,1.95,2,2,0,0,0,1.1,1.52c1.66.66,3.29-1.92,5-1.35.74.25,1,.33,1.78.53a4.12,4.12,0,0,0,2.3.14c1.16-.39,1.84-1.77,3-2,.52-.09,1.19.24,1.12.76s-.84.64-1.29,1c-.88.63-.7,2.28-1.72,2.66a1.83,1.83,0,0,1-.84.05l-2.43-.19a2.36,2.36,0,0,0-1.78.34,1.59,1.59,0,0,0-.07,2,4.65,4.65,0,0,0,1.76,1.32l3.1,1.63c.42.22.39.44.43.91s-.34,1-.81,1-.66-.45-1-.74a3.75,3.75,0,0,0-2.48-.74c-1,0-2.1-.08-3.14-.08a3.54,3.54,0,0,0-2.88.9c-.72.91-.39,2.24-.63,3.37a3.29,3.29,0,0,1-1.71,2.2,15.08,15.08,0,0,0-2.62,1,5.32,5.32,0,0,0-.87,1,13.7,13.7,0,0,1-5.25,4,2.58,2.58,0,0,0-.76.43,1.49,1.49,0,0,0-.2,1.63,4.19,4.19,0,0,0,1.12,1.33c.43.37.86.74,1.3,1.09a2.34,2.34,0,0,0,.83.49,2.37,2.37,0,0,0,1.2-.16,18.16,18.16,0,0,1,8.22-.59c.56.09,1.29.48,1.08,1s-.74.41-1.18.43a3,3,0,0,0-2.14,1.11,4.63,4.63,0,0,1-1,1.22,3.23,3.23,0,0,1-1.78.22,8.22,8.22,0,0,0-5.71,2.35c-1.94,1.83-2.64,4.06-3.58,6.4a6.15,6.15,0,0,1,2.51.82c1.56,1,.88,2.52,2.09,3.62,1.91,1.74.69,4.58,2.71,6.05.74.54,2.59,1,3.35.38,1-.78.14-2.3,1-3.2a1.51,1.51,0,0,1,2,0,4.4,4.4,0,0,1,1.22,1.74,6.34,6.34,0,0,1,1.62-2,2.15,2.15,0,0,1,2.41-.15c.07-1.88,2-3.13,2.7-4.89.28-.73.33-1.53.56-2.28a5.3,5.3,0,0,1,4.72-3.57A6,6,0,0,1,123.1,265c.84,1.38,1.75,3.4,3.31,3s1.47-2.84,2.69-3.95a2.07,2.07,0,0,1,3.38,2.13c-.25.85-1,1.67-.7,2.48.44,1,2.09.68,2.88,1.46s.28,2.15-.49,2.94c-.3.3-.65.66-.56,1.08a1,1,0,0,0,.43.55,5.5,5.5,0,0,0,6.14.31c.7-.44,1.65-1,2.23-.43.35.37.31,1,.74,1.32s1.09-.11,1.61-.38c1.71-.89,3.74.11,5.61.58a2.29,2.29,0,0,0,1.16.07c1.08-.29,1.59-1.89,2.71-1.84.77,0,1.33.87,2.09.88.92,0,1.37-1.07,1.87-1.84,1.49-2.29,5.05-2.42,7.28-.85a9.1,9.1,0,0,1,3.16,4.53c1.63-.48,3.22-.94,4-2.37Z"/><path class="cls-1" d="M192.22,215.63a8.33,8.33,0,0,1,1.33-.13,2.92,2.92,0,0,0,2-2.3,21.88,21.88,0,0,1,.74-3.15,26.52,26.52,0,0,0,1.38-2.57,4.52,4.52,0,0,0,0-2.42c-.16-.65-.35-1.49.21-1.87s1.12,0,1.69.08A2.35,2.35,0,0,0,202,202c-.92-.47-1.18-1.62-1.49-2.61s-1-2.08-2.05-2c-.81.08-1.4.91-2.21,1s-1.38-.57-1.87-1.15a7.18,7.18,0,0,0-1.77-1.71,2.16,2.16,0,0,0-2.33,0c-.37.28-.61.73-1,.93-1.06.49-2-1.06-1.72-2.18s1.27-1.95,1.72-3a8,8,0,0,0,.4-3,46.84,46.84,0,0,1,1.42-10.54c.29-1.15.49-2.66-.53-3.26-.44-.26-1-.26-1.43-.56-.58-.44-.62-1.31-1.09-1.87-.92-1.13-3.24-.77-3.61-2.19-.28-1.07,1-1.9,2-2.13s2.37-.34,3-1.29c.75-1.24-.09-3.41,1.26-3.94a3.22,3.22,0,0,1,1.35,0,3.3,3.3,0,0,0,3.29-3.08c.24.94,1.54,1.09,2.48.83s2-.69,2.83-.22,1.67,1.4,2.14.7c.36-.54-.35-1.12-.82-1.55-1.14-1-1.73-4.4-.65-5.68.75-.89,4.13-1.89,5.25-1.88a15.05,15.05,0,0,0,2.84.13c2.56-.5,3.9-3.49,6.64-3a4.56,4.56,0,0,1,3.38,3.13,2.33,2.33,0,0,0,.67,1.3,1.81,1.81,0,0,0,1.22.19,14.68,14.68,0,0,0,4.74-1.27,4,4,0,0,0,1.51-1.05c1.46-1.85-.54-4.55-.11-6.86.4-2.14,2.7-3.28,4.71-4.12s4.29-2.07,4.57-4.24a7.55,7.55,0,0,1,.17-1.43c.52-1.59,2.7-1.6,4.27-2.16a4.56,4.56,0,0,0,1.86-1.26,5.91,5.91,0,0,0-.52-.35c-1.75-.93-4-.46-5.78-1.23-2-.86-3.49-3.21-5.68-3.1-1.51.08-3.05,1.36-4.39.64-.94-.5-1.21-1.76-2.07-2.38-1.17-.84-2.75-.17-4.14.2s-3.39,0-3.43-1.45c0-1.09,1.12-1.75,2-2.45s1.32-2.27.32-2.69c-1.09.76-2.38,1.56-3.66,1.21a7.74,7.74,0,0,1-2.47-1.78c-.81-.63-2.1-1-2.78-.2-.51.58-.75,1.74-1.5,1.53-.37-.1-.53-.52-.8-.78-.75-.71-2,0-2.63.77s-1.11,1.89-2.1,2.2c-1.44.45-2.72-1-3.46-2.33s-1.76-2.87-3.26-2.75-2.21,1.67-2.48,3.06-.35,2.94-1.33,4a5.78,5.78,0,0,1-3.08,1.3c-1.89.38-4.84,1.61-6.73.79s-2-4.3-3.09-6.19a22.2,22.2,0,0,1-.66,2.8c-.65,1.4-1,3.55-3,3.26a5.65,5.65,0,0,1-2.76-1.61c-.87.5-.32,1.8-.08,2.78A3.59,3.59,0,0,1,171,130.3c-1.19.33-2.76.14-3.37,1.22-.21.36-.24.8-.48,1.14-.79,1.14-2.62.15-4,.53-1.92.55-2.14,3.7-4.09,4.14-1,.22-2.31-.28-2.86.57-.4.62,0,1.44-.09,2.17-.16,1.1-1.43,1.64-2.53,1.84s-2.36.37-3,1.3c-.52.78-.62,2.06-1.36,2.42a4.12,4.12,0,0,0,2,2.9,4.68,4.68,0,0,1,1.3.71,8.27,8.27,0,0,1,.76,1.41,5.91,5.91,0,0,0,2.16,1.52,5.63,5.63,0,0,1,2.69,4.62c0,.78-.33,1.76-1.11,1.79s-1.28-1.07-2.08-1.34c-1-.36-1.94.8-2.44,1.79-1,2-1.91,4-2.83,6.05a3.45,3.45,0,0,0-.41,2.7c.29.68,1,1.12,1.29,1.79.51,1.12-.16,2.63.64,3.56,1,1.18,3.56.35,4.1,1.82-1,.33-1,1.75-.53,2.67s1.31,1.68,1.47,2.71c.07.44,0,.95.36,1.25.68.63,1.63-.44,2.54-.61s1.73.7,2.09,1.58a10,10,0,0,0,1.08,2.61c.59.74,1.93,1,2.4.16s.17-2,1-2a1,1,0,0,1,.78.57c.74,1.32.32,3-.37,4.35a17.62,17.62,0,0,0-1.95,4.09c-.17.78-.15,1.6-.39,2.37a3.5,3.5,0,0,0-.38,1.82c.36,1.43,2.72,1.08,3.63,2.24.62.79.4,2.09,1.17,2.73.49.41,1.21.39,1.77.7,1.05.59,1.15,2.07.91,3.25s-.7,2.42-.28,3.55c.56,1.53,2.54,2.34,2.7,4a6.12,6.12,0,0,0,.07,1.66,3.29,3.29,0,0,0,1.12,1.2l.07.07.27-.23c.6-.56,1.64-1.14,2.1-.46.27.39.07,1,.28,1.38.54,1.12,2.31-.2,3.49.21.93.31,1.23,1.64,2.18,1.88,1.32.34,2.19-1.67,3.55-1.73a2.73,2.73,0,0,1,1.73.82c.39.32.78.65,1.16,1a24.57,24.57,0,0,1,1.94-2.38,2.48,2.48,0,0,1,.95-.72Z"/><path class="cls-1" d="M153.18,183.72c-.87.68-2.16.43-3.14.94-1.2.63-1.54,2.14-1.77,3.47l-.69,4.17a3.94,3.94,0,0,0,.33,3c.28.36.68.62,1,1a5.46,5.46,0,0,1,.68,2.65,7,7,0,0,0,3.54,5.05c.91-1.07.84-2.64.84-4.05s.25-3,1.47-3.76a17.74,17.74,0,0,1,2.81,6.06c.13.51.31,1.12.82,1.27s1.09-.39,1.31-.94a4.29,4.29,0,0,1,.73-1.59,8.29,8.29,0,0,1,1.38-.74c1-.61,1.18-1.88,1.45-3.08a1.31,1.31,0,0,1-.5-.71,3.5,3.5,0,0,1,.38-1.82c.24-.76.22-1.58.39-2.37a17.62,17.62,0,0,1,2-4.09c.69-1.35,1.12-3,.37-4.35a.93.93,0,0,0-.78-.57c-.82,0-.58,1.34-1,2.05s-1.81.57-2.4-.16a9.71,9.71,0,0,1-1.08-2.61c-.36-.88-1.16-1.74-2.09-1.58s-1.86,1.23-2.54.61c-.33-.3-.29-.81-.36-1.25a4.12,4.12,0,0,0-.75-1.6,8.45,8.45,0,0,0-1.18,2.48,4.47,4.47,0,0,1-1.15,2.49Z"/><path class="cls-1" d="M142.18,159.15a2.57,2.57,0,0,0-2.26,2.52,10.47,10.47,0,0,0,.75,3.63,17.4,17.4,0,0,1,.25,8.86c-.4,1.69-1,3.54-.22,5.08a10.4,10.4,0,0,0,1.75,2,7.37,7.37,0,0,1,1.92,4.76c0,1.71-.47,3.62.53,5a4.83,4.83,0,0,0,2.63,1.56,2.5,2.5,0,0,1,.05-.29l.69-4.17c.22-1.33.57-2.85,1.77-3.47,1-.51,2.27-.26,3.14-.94a4.57,4.57,0,0,0,1.15-2.49,8.45,8.45,0,0,1,1.18-2.48,11.71,11.71,0,0,1-.72-1.11c-.49-.91-.45-2.34.53-2.67-.54-1.47-3.08-.64-4.1-1.82-.8-.93-.13-2.44-.64-3.56-.31-.67-1-1.11-1.29-1.79a3.48,3.48,0,0,1,.41-2.7l1-2.28a15.61,15.61,0,0,1-6.4-2.64,4.07,4.07,0,0,0-2.16-1Z"/><path class="cls-1" d="M174.49,215.79a3.29,3.29,0,0,1-1.12-1.2,7,7,0,0,1-.07-1.66c-.16-1.62-2.14-2.44-2.7-4-.42-1.13,0-2.37.28-3.55s.15-2.66-.91-3.25c-.56-.31-1.28-.29-1.77-.7-.77-.64-.55-1.94-1.17-2.73s-2.29-.9-3.13-1.53c-.27,1.19-.49,2.47-1.45,3.08a8.29,8.29,0,0,0-1.38.74,4,4,0,0,0-.73,1.59c-.22.55-.74,1.1-1.31.94s-.69-.76-.82-1.27a17.57,17.57,0,0,0-2.81-6.06c-1.22.71-1.47,2.34-1.47,3.76s.07,3-.84,4a7,7,0,0,1-3.54-5,5.49,5.49,0,0,0-.68-2.65c-.28-.36-.68-.62-1-1a3.58,3.58,0,0,1-.38-2.76A4.87,4.87,0,0,1,144.9,191c-1-1.39-.49-3.3-.53-5a7.35,7.35,0,0,0-1.92-4.76,10.4,10.4,0,0,1-1.75-2c-.81-1.54-.17-3.39.22-5.08a17.5,17.5,0,0,0-.25-8.86,10.47,10.47,0,0,1-.75-3.63,2.56,2.56,0,0,1,2.26-2.52,4.07,4.07,0,0,1,2.16,1,15.56,15.56,0,0,0,6.4,2.64c.58-1.26,1.17-2.53,1.79-3.77.49-1,1.39-2.15,2.44-1.79.8.28,1.23,1.38,2.08,1.34s1.13-1,1.11-1.79a5.68,5.68,0,0,0-2.69-4.62,5.91,5.91,0,0,1-2.16-1.52,8.67,8.67,0,0,0-.76-1.41,4.68,4.68,0,0,0-1.3-.71,4.12,4.12,0,0,1-2-2.9.9.9,0,0,1-.34.09c-1.11-1.44-2.43-3-4.23-3.17a4.22,4.22,0,0,1-1.78-.27c-.66-.39-.84-1.27-1.36-1.84-1.17-1.28-3.24-.49-4.82.23a26.44,26.44,0,0,1-5.26,1.76c-1,.22-2.28.21-3.43.42a3.73,3.73,0,0,1-1,1c-1.21.84-2.77.93-4.19,1.34s-2.91,1.42-2.94,2.89c0,.46.12.91.08,1.37s-.37.95-.83.93c-.62,0-.82-.84-.83-1.46a20.75,20.75,0,0,0-.83-6.81c-.8-2.15-2.64-4.09-4.93-4.27-.92-.07-2,.09-2.63-.59-.27-.3-.43-.74-.82-.87s-.81.15-1.19.36a3.48,3.48,0,0,1-4.12-.66c-.68-.73-1.1-1.82-2.06-2.12-.73-.23-1.59.09-2.27-.27s-.88-1.17-1.4-1.7C97,131,95,131.64,94.35,133a4.21,4.21,0,0,0,.89,4.24,3.7,3.7,0,0,1,.73,1.07.91.91,0,0,1-.37,1.13c-.76.34-1.25-.79-1.59-1.55a4.42,4.42,0,0,0-3.25-2.34,11.78,11.78,0,0,0-4.14.13,3.86,3.86,0,0,0-1.6.51,1.33,1.33,0,0,0-.59,1.46c.29.82,1.44.89,2,1.5.78.77.55,2.24,1.42,2.92.72.57,1.81.27,2.63.68a1.74,1.74,0,0,1-.18,3,6.57,6.57,0,0,1-1.78.12c-.6,0-1.28.34-1.38.93-.06.33.08.66,0,1-.11,1.36-2.51,1.26-3,2.54-.17.44-.1,1.05-.52,1.28a.77.77,0,0,1-.58,0c-1-.32-1.12-1.78-.66-2.76s1.25-1.82,1.38-2.88a5.41,5.41,0,0,0-.41-2.23,19.52,19.52,0,0,1-.86-5.31c-.65-.38-1.2.64-1.29,1.39l-.57,5.17a4.81,4.81,0,0,1-.48,1.91,1.66,1.66,0,0,1-1.63.9c-1.34-.25-1.28-2.22-2.06-3.34a.81.81,0,0,0-.5-.37c-.48-.06-.69.59-.72,1.07l-.27,4.15a2.05,2.05,0,0,0,.09,1c.26.56,1,1,.88,1.56s-1.29.43-1.78-.11-1.09-1.28-1.78-1-.64,1.34-.52,2.12-.32,1.92-1.07,1.65c-.58,0-.87.36-1.1.89a1.55,1.55,0,0,0,.26,1.61,2.43,2.43,0,0,1,.43.48c.27.48,0,1.07-.3,1.56s-.45,1.17,0,1.53,1.35-.2,1.55-.88.2-1.49.73-2c.69-.59,1.76-.2,2.48.35s1.22,1.27.91,2c-.54,1.25-2.89.6-3.44,1.85-.38.87.67,1.82,1.62,1.72a4.19,4.19,0,0,0,2.36-1.5l2-2.08c.27-.27.61-.57,1-.46s.51.64.45,1.06-.34,1.06-.44,1.61a1.42,1.42,0,0,0,.5,1.49,3.28,3.28,0,0,0,.75.24,2.24,2.24,0,0,1,1.49,2.57,8.54,8.54,0,0,1-.83,1.69,1.74,1.74,0,0,0,0,1.79c.42.55,1.25.58,1.81,1,.91.67.81,2,.75,3.14a27.65,27.65,0,0,0,1.36,8.48,5.16,5.16,0,0,0,1,2.15c1,1.11,2.67,1.15,4.15,1.11a1.13,1.13,0,0,0,.55-.1,1,1,0,0,0,.38-.39c.86-1.35.54-3.12,0-4.64-1-3-2.59-5.77-3.25-8.85a20.42,20.42,0,0,0-.5-2.19,18.66,18.66,0,0,0-1.13-2.34,15.83,15.83,0,0,1-1.62-5.41c-.05-.44.13-1.08.56-1a.66.66,0,0,1,.37.33,8.74,8.74,0,0,1,.73,3.72c.13,1.27.64,2.69,1.83,3.13.77.28,1.74.12,2.3.72.15.16.28.38.49.41a.61.61,0,0,0,.45-.19,3,3,0,0,0,.6-2.73,6.26,6.26,0,0,1-.1-2.88,1,1,0,0,1,.34-.51.77.77,0,0,1,.93.16,1.81,1.81,0,0,1,.42.92,14.72,14.72,0,0,1-.32,5.4,8.49,8.49,0,0,0,.43,5.33,12.63,12.63,0,0,1,1.13,2c.43,1.4-.34,3,.19,4.35.31.79,1,1.41,1.16,2.25.21,1.43-1.37,2.76-.91,4.13s2.82,1.44,3.59,2.79c.31.54-.12.64-.71.84s-1.29.18-1.75.59a1.82,1.82,0,0,0,.1,2.41c.55.7,1.35,1.17,1.9,1.87a1.81,1.81,0,0,1,.07,2.41c-.17.14-.37.23-.55.37a1.58,1.58,0,0,0-.34,2.08,10.79,10.79,0,0,0,.82.84,1,1,0,0,1,.23,1.08c-.24.41-.85.43-1.18.77-.54.55-.13,1.65-.74,2.12-.26.2-.63.21-.92.37a1,1,0,0,0-.12,1.61c1,.73,2.34-.7,3.48-.31.88.3,1.27,1.6,2.2,1.6.26,0,.51-.11.77-.09.88.07,1,1.32,1.56,2,.4.47,1.09.69,1.32,1.26s-.27,1.43-.15,2.14,1,1.29,1.36,2.06c.15.37.16.78.31,1.15a2.56,2.56,0,0,0,2.41,1.2,7.5,7.5,0,0,0,2.26-.29,7.09,7.09,0,0,1,5-2.27,1.28,1.28,0,0,1,.64.14,11.45,11.45,0,0,0,4.14-4.21c1.13-2,1.86-4.56,4-5.43,2.55-1,5.42,1.07,8.13.59.74-.13,1.54-.45,2.2-.09s.85,1.36,1.2,2.12c1.07,2.35,4.27,2.57,6.84,2.43,2.13-.11,4.4-.27,6.1-1.55.64-.48,1.31-1.15,2.1-1,1,.88.28,2.58.94,3.7.54.9,1.74,1.1,2.62,1.66,1.35.85,1.93,2.52,3,3.67,1.64,1.7,4.23,2.07,6.58,1.85a17.06,17.06,0,0,0,9.72-4.26l-.07-.07Z"/><path class="cls-2" d="M252.94,290.17c-.05-.64.76-1,1.41-1a4.63,4.63,0,0,0,1.92.06c1.66-.63.72-3.6,2.19-4.59a3.56,3.56,0,0,1,2.52-.12,4.35,4.35,0,0,0,4-1.15c.49-.59.73-1.36,1.18-2,1.85-2.58,6.79-2.21,7.54-5.3.36-1.47-.25-3.6,1.18-4.11a3.32,3.32,0,0,1,1.37,0,4.32,4.32,0,0,0,4.26-2.47,3.48,3.48,0,0,0-1.69-4.42c-.77-.32-1.65-.32-2.38-.71-1-.52-1.47-1.6-2.23-2.4-1.93-2-5.29-2-7.41-3.88a1.43,1.43,0,0,1-.63-1.35,2.06,2.06,0,0,1,.68-.85,3.79,3.79,0,0,0,1.24-3.2,2.86,2.86,0,0,0-2.27-2.43,18.5,18.5,0,0,0-2.1.07c-1.93-.07-4-1.79-5.57-.73-1.13.74-1.35,2.53-2.61,3-.83.32-1.8-.1-2.65.17-1.2.37-1.76,1.94-3,2.2a3.7,3.7,0,0,1-2.32-.66,12.72,12.72,0,0,0-9.7-.72c-1.39-2.29-2.19-5.55-5.08-5.58-1.62,0-4.56,0-6,.85-1.07.67-1.84,2.1-3.11,2-.88-.06-1.49-.86-2.2-1.39-3.08-2.27-8.22.64-11-2,1.1-3.37-.63-6.94-2.31-10.06a1.64,1.64,0,0,0-.65-.77c-.52-.26-1.2,0-1.7-.27-1-.62.2-2.46-.64-3.28-.49-.48-1.3-.24-1.95,0-2.2.81-5.2.93-6.34-1.11-.5-.9-.69-2.21-1.69-2.43s-2.17,1.15-3.18.68a2.47,2.47,0,0,1-.81-.8,3.72,3.72,0,0,0-1.92-1.18,1.61,1.61,0,0,1-.16,1c-.65,1.13-2.45.45-3.62,1-.9.44-1.27,1.57-2.1,2.14s-1.62.5-2.34.93c-1.36.82-1.73,2.89-3.23,3.4-.63.22-1.38.12-1.91.52-1.08.82-.17,2.56-.47,3.88a6.59,6.59,0,0,1-.95,1.77,11,11,0,0,0-.83,1.93l-2.64,7.46c-.42,1.19-.83,2.56-.19,3.65a7,7,0,0,0,1.2,1.29,6,6,0,0,1,1.45,5.73,1.87,1.87,0,0,0-.09,1.37c.3.56,1.1.56,1.6.93,1.06.79.21,2.58-1,3.11a2.89,2.89,0,0,0-1.1.61c-.51.56-.32,1.43-.15,2.17a5.09,5.09,0,0,1-.2,3.49c-.77,1.43-2.35,1.89-4,2.37a16.52,16.52,0,0,1,.67,2.48c.5,2.67.68,5.71,2.72,7.51,1.64,1.45,4.31,1.88,5.13,3.91.22.56.27,1.17.5,1.73.87,2.1,4,2.54,4.87,4.63,1,2.29-1.23,5.14-1,7.39a2.25,2.25,0,0,1,1.71.4c.42.33.88.74,1.4.66s.79-.5,1.22-.71a3.72,3.72,0,0,1,2.11.08c1.78.28,3.83-.75,4.2-2.51.12-.57.07-1.16.16-1.74a1.69,1.69,0,0,1,.93-1.38.52.52,0,0,1,.3,0c.46.1.32.77.29,1.24a1.79,1.79,0,0,0,1.14,1.64,4,4,0,0,0,2.09.2,1.77,1.77,0,0,0,.79-.23,1.83,1.83,0,0,0,.59-1.1,4.48,4.48,0,0,0,.23-1.66,1.49,1.49,0,0,0-.95-1.28c-.41-.12-1.06-.19-1-.62a.51.51,0,0,1,.26-.32,1.2,1.2,0,0,1,1.72,1,1.85,1.85,0,0,0,1.26-1.46c.09-.6.06-1.46.66-1.53s.78.77.73,1.36a16.3,16.3,0,0,1-.73,4.34,3.4,3.4,0,0,0-.32,1.24c0,.28.09.56.08.84,0,.6-.46,1.11-.5,1.71-.06,1.09,1.25,1.76,2.34,1.72.82,0,1.82-.21,2.32.45s.2,1.75.9,2.1a1.36,1.36,0,0,0,.69.1l2.92,0a3.7,3.7,0,0,0,1.48-.22,1.31,1.31,0,0,0,.84-1.14c0-.35-.21-.69-.16-1.05.1-.73,1.08-.87,1.81-.83l1.35.08c1.17.07.79.78,1.3,1.49a1.46,1.46,0,0,0,2.31.11c.85-1.19-.5-3.29,1.66-3.67a.9.9,0,0,1,1.08.74,5.93,5.93,0,0,1-.19.81c-.09.7.63,1.35.46,2s-1.14.85-1.72,1.32c-1.89,1.55.75,2.88,2.16,2.72.75-.09,1.48-.35,2.23-.43s2,0,2.47-.78-.2-2.07.23-3c.28-.6,1-.94,1.17-1.58.21-.85-.65-1.93,0-2.51.13-.12.31-.19.4-.34.23-.42-.44-.75-.91-.69s-1.11.11-1.25-.34a1,1,0,0,1,1-.57,5.22,5.22,0,0,1,1.16.2,3,3,0,0,0,2.4-.35,2.44,2.44,0,0,0,.27-3.52,2.94,2.94,0,0,0-3.66-.32c-.89.54-2.54,2.64-3.67,1.69-.55-.47-.07-1.62.26-2.12a3,3,0,0,1,2.36-1.17,20.11,20.11,0,0,1,3.6.56,1.32,1.32,0,0,0,1.3-.33,1,1,0,0,0-.09-1.08,2.77,2.77,0,0,0-.91-.71l-2-1.14a1.82,1.82,0,0,1,2.18-.56,9.5,9.5,0,0,0,1.42.64,1.74,1.74,0,0,0,1.64-.25,3.59,3.59,0,0,1,.61-.56,1.25,1.25,0,0,1,1.28.24,9.91,9.91,0,0,0,1.07.87c.21.11.46.21.52.44.12.43-.51.61-.9.82a1.13,1.13,0,0,0,.56,2.12c.58,0,1.07-.44,1.64-.55s1.26.16,1.81-.1c.75-.35.8-1.39.74-2.22-.1-1.25-.3-2.69-1.38-3.33-.29-.17-.62-.27-.91-.44a1.84,1.84,0,0,1-.81-2.27,1.42,1.42,0,0,1,2.2-.42c.52.57.43,1.57,1,2,1,.8,2.62-.73,3.76-.09.74.42.75,1.45,1,2.25a3,3,0,0,0,3.8,1.67c.68-.28,1.41-.83,2.06-.48a3.33,3.33,0,0,1,.62.57c.78.71,2,.55,3,.35.11,0,.22,0,.32,0-.64-1-1.29-2-1.93-3a1.49,1.49,0,0,1-.27-.62Z"/><path class="cls-2" d="M304.23,212.89c-.12-.29-.3-.6-.61-.66a1,1,0,0,0-.8.38,23.72,23.72,0,0,0-3.69,4.55,7.07,7.07,0,0,1-1.49,1.93,2,2,0,0,1-2.28.24,3.78,3.78,0,0,1-1-1.79c-.27-.65-.8-1.32-1.5-1.27a1.76,1.76,0,0,1-.68,0,.75.75,0,0,1-.44-.76c.05-1,1.06-1.52,1.86-2a2.91,2.91,0,0,0,.84-4.18c-.51-.72-1.32-1.23-1.63-2.05a8.91,8.91,0,0,1-.15-2.43,19.36,19.36,0,0,0-1.07-3.34,11.06,11.06,0,0,1-.12-3.81c.14-1.67.29-3.34.43-5a7.55,7.55,0,0,1,1.36-4.46c.38-.44.87-.79,1.25-1.23a6.15,6.15,0,0,0,1.19-2.84,35.92,35.92,0,0,0,.45-7.11,9.17,9.17,0,0,0-.33-3c-.35-1-1.06-1.92-1.48-2.93a2.83,2.83,0,0,1,.29-3.07c.12-1.37.12-2.51,1-3.59.58-.73,1.42-1.22,2-2a6.37,6.37,0,0,0,.79-4.05,15.24,15.24,0,0,0-1.2-6.25c-.53-1-1.28-2-1.71-3.08a11.77,11.77,0,0,1-.6-2.64,48.17,48.17,0,0,1-.68-6.67c0-2.47.11-4.92.26-7.38a3.48,3.48,0,0,0-.09-1.33c-.17-.51-.6-.75-1-1a5,5,0,0,1-2-2.59,11.91,11.91,0,0,0-.67-2.39,11.62,11.62,0,0,0-.72-1,9.86,9.86,0,0,0-5.56,4.72c-.86,1.68-1.61,3.92-3.49,4.12-2.75.29-3.94-4.22-6.7-4.38-1.64-.1-2.91,1.41-4.49,1.88-2.59.77-5.49-1.39-8-.3-1.48.65-3.16,2.33-4.31,1.19-.52-.51-.49-1.33-.61-2a4.57,4.57,0,0,0-4.09-3.69,2.28,2.28,0,0,0-2.26,1,3.88,3.88,0,0,0,0,2.24,6.85,6.85,0,0,1-1.77,5.56,3.64,3.64,0,0,1-3.38-1.23A22.12,22.12,0,0,0,243,131a4.73,4.73,0,0,1-1.86,1.26c-1.57.55-3.75.57-4.27,2.16a8.47,8.47,0,0,0-.17,1.43c-.28,2.16-2.56,3.39-4.57,4.24s-4.31,2-4.71,4.12c-.44,2.31,1.56,5,.11,6.86a3.92,3.92,0,0,1-1.51,1.05,14.81,14.81,0,0,1-4.74,1.27,1.81,1.81,0,0,1-1.22-.19,2.33,2.33,0,0,1-.67-1.3,4.58,4.58,0,0,0-3.38-3.13c-2.74-.5-4.07,2.49-6.64,3a14.3,14.3,0,0,1-2.84-.13c-1.12,0-4.5,1-5.25,1.88-1.08,1.27-.49,4.64.65,5.68.48.44,1.18,1,.82,1.55-.47.7-1.4-.29-2.14-.7s-1.89,0-2.83.22-2.24.11-2.48-.83a3.31,3.31,0,0,1-3.29,3.08,3.22,3.22,0,0,0-1.35,0c-1.35.53-.51,2.7-1.26,3.94-.57,1-1.86,1.06-2.95,1.29s-2.33,1.06-2.05,2.13c.37,1.41,2.68,1.06,3.61,2.19.46.57.5,1.44,1.09,1.87.41.31,1,.3,1.43.56,1,.6.82,2.11.53,3.26a46.84,46.84,0,0,0-1.42,10.54,8,8,0,0,1-.4,3c-.45,1.07-1.41,1.9-1.72,3s.67,2.67,1.72,2.18c.42-.2.66-.64,1-.93a2.14,2.14,0,0,1,2.33,0,6.69,6.69,0,0,1,1.77,1.71,2.44,2.44,0,0,0,1.87,1.15c.81-.06,1.4-.89,2.21-1,1-.1,1.74,1,2,2s.57,2.14,1.49,2.61a2.35,2.35,0,0,1-2.46,1.28c-.57-.1-1.21-.41-1.69-.08s-.37,1.22-.21,1.87a4.52,4.52,0,0,1,0,2.42,24.51,24.51,0,0,1-1.38,2.57,21.88,21.88,0,0,0-.74,3.15,2.93,2.93,0,0,1-2,2.3,8.44,8.44,0,0,0-1.33.13,2.48,2.48,0,0,0-.95.72,23.41,23.41,0,0,0-1.94,2.38,7.42,7.42,0,0,1,1.72,2.11,3.54,3.54,0,0,1-.3,4c-.5.52-1.25.87-1.5,1.55a4.19,4.19,0,0,0,.07,1.89,3.74,3.74,0,0,1,1.92,1.18,2.8,2.8,0,0,0,.81.8c1,.47,2.09-.92,3.18-.68s1.19,1.54,1.69,2.43c1.14,2,4.14,1.92,6.34,1.11.64-.24,1.45-.48,1.95,0,.84.82-.35,2.66.64,3.28.49.31,1.18,0,1.7.27a1.82,1.82,0,0,1,.65.77c1.68,3.12,3.42,6.69,2.31,10.06,2.77,2.64,7.91-.27,11,2,.71.52,1.32,1.32,2.2,1.39,1.26.09,2-1.33,3.11-2,1.43-.89,4.37-.87,6-.85,2.89,0,3.69,3.29,5.08,5.58a12.72,12.72,0,0,1,9.7.72,3.68,3.68,0,0,0,2.32.66c1.23-.26,1.79-1.83,3-2.2.85-.27,1.82.15,2.65-.17,1.26-.48,1.48-2.27,2.61-3,1.62-1.06,3.64.65,5.57.73.7,0,1.4-.17,2.1-.07a2.36,2.36,0,0,1,.95.37,4.47,4.47,0,0,1,2.34-1.32,3,3,0,0,0,1.25-.38c.8-.61.42-1.85.48-2.85a4,4,0,0,1,2.76-3.28,11.3,11.3,0,0,1,4.49-.41c2.12.1,4.7.55,5.39,2.55a8.18,8.18,0,0,0,.62,2.11,2.49,2.49,0,0,0,2.66.73c1-.23,1.81-.76,2.75-1a8.92,8.92,0,0,1,4.08-.05,22,22,0,0,1,3,.77l.33-.76a33.63,33.63,0,0,0,1.48-4.52q1.3-4.71,2.62-9.42a12.52,12.52,0,0,0,.68-4.48,11.33,11.33,0,0,1-.16-1.84c.11-1.79,1.73-3.23,1.79-5,0-.49-.07-1,.25-1.41a5.35,5.35,0,0,1,.71-.51,2.24,2.24,0,0,0,.65-1.46,9.79,9.79,0,0,0-.68-5.16Z"/><path class="cls-2" d="M283.79,269.78a6.18,6.18,0,0,0-3.1-.86,3,3,0,0,1-.18.6,4.32,4.32,0,0,1-4.26,2.47,3.5,3.5,0,0,0-1.37,0c-1.43.51-.82,2.63-1.18,4.11-.75,3.09-5.69,2.72-7.54,5.3-.45.63-.68,1.39-1.18,2a4.35,4.35,0,0,1-4,1.15,3.56,3.56,0,0,0-2.52.12c-1.47,1-.53,4-2.19,4.59a4.63,4.63,0,0,1-1.92-.06c-.65,0-1.46.32-1.41,1a1.44,1.44,0,0,0,.27.62c.64,1,1.29,2,1.93,3a2.92,2.92,0,0,1,2,.77c.72-.31.11-1.76.83-2.06.38-.16.8.21.92.61a8.53,8.53,0,0,1,.11,1.24c.07.41.35.85.77.84.76,0,.78-1.33,1.49-1.6.52-.2,1.06.3,1.22.83s.08,1.11.21,1.65a2.17,2.17,0,0,0,4.19.07c.2-.72.19-1.72.91-1.91s1.07.45,1.41.95.88,1.07,1.44.85.54-1.18.12-1.68-1.06-.81-1.42-1.36-.19-1.53.47-1.55a1.37,1.37,0,0,1,.91.51,3.53,3.53,0,0,0,2.32,1.12,1.62,1.62,0,0,0,1.67-1.63c0-.33-.22-.7,0-1a1,1,0,0,1,.62-.35c1.45-.44,1.64-1.7,3-2.21a10.36,10.36,0,0,0,2.14-.8,5.35,5.35,0,0,0,1.84-3.27,19,19,0,0,0,1-6.78,4,4,0,0,1,0-1.2A1,1,0,0,1,284,275a2.24,2.24,0,0,1,.8.13H285a13.12,13.12,0,0,1-.09-1.77c0-1.31-.13-2.79-1.14-3.62Z"/><path class="cls-2" d="M297.25,251.14c-.16-.15-.35-.26-.52-.4a2.19,2.19,0,0,1-.57-2,5.45,5.45,0,0,1,.41-1.28,22,22,0,0,0-3-.77,8.92,8.92,0,0,0-4.08.05c-.94.28-1.8.81-2.75,1a2.49,2.49,0,0,1-2.66-.73,8.59,8.59,0,0,1-.62-2.11c-.69-2-3.28-2.46-5.39-2.55a11.3,11.3,0,0,0-4.49.41,4,4,0,0,0-2.76,3.28c-.05,1,.32,2.24-.48,2.85a2.81,2.81,0,0,1-1.25.38,4.51,4.51,0,0,0-2.34,1.32,3,3,0,0,1,1.33,2.06,3.79,3.79,0,0,1-1.24,3.2,2,2,0,0,0-.68.85,1.42,1.42,0,0,0,.63,1.35c2.12,1.85,5.48,1.84,7.41,3.88.76.8,1.26,1.89,2.23,2.4.73.39,1.62.39,2.38.71a3.45,3.45,0,0,1,1.87,3.82,6.39,6.39,0,0,1,3.1.86c1,.83,1.14,2.31,1.14,3.62a11.67,11.67,0,0,0,.09,1.77,2.25,2.25,0,0,0,2.15-.95c.38-.58.53-1.37,1.15-1.68.39-.19.85-.13,1.25-.29a1.64,1.64,0,0,0,.89-1.41,6.11,6.11,0,0,0-.22-1.74,13.16,13.16,0,0,1-.13-4.2,1.66,1.66,0,0,1,.27-.81,3.41,3.41,0,0,1,.71-.54c.94-.72.86-2.13.69-3.3a1,1,0,0,1,0-.57c.2-.4.88-.27,1.1.12a2.07,2.07,0,0,1,.07,1.33,1.73,1.73,0,0,0,.13,1.31,1.25,1.25,0,0,0,1.93-.19,3.6,3.6,0,0,0,.47-2.18,27,27,0,0,1,.76-4.34,4.3,4.3,0,0,1,.48-2c.2-.27.49-.47.69-.75a1.47,1.47,0,0,0-.19-1.87Z"/><path class="cls-2" d="M118.91,86.51a4,4,0,0,0-1.2,0c-1.54.3-1.84,2.5-1.11,3.89s2.07,2.39,2.77,3.79c.38.76.55,1.61,1,2.34.87,1.47,2.57,2.18,4.17,2.8,1.12.43,2.51.83,3.41,0s.92-2,1.88-2.27c1.3-.4,2.07,1.43,3.24,2.12a3.07,3.07,0,0,0,2.11.26,11.31,11.31,0,0,0,4.33-2.19,9.48,9.48,0,0,0,1.43-1.17,4.33,4.33,0,0,0-2.28-7.17c-.78-.17-1.77-.25-2-1a1.9,1.9,0,0,1,0-1,9.94,9.94,0,0,0-.19-4c-.17-.83,0-2.76-.29-3.42-.88-1.84-4.25-1.25-5.63-.27-2.05,1.46-2.63,4.27-4.85,5.67a10.76,10.76,0,0,1-6.79,1.63Z"/><path class="cls-2" d="M236.86,220.7l-1.93,1.05a3.26,3.26,0,0,0-1.49,1.27c-.59,1.21.34,3-.7,3.85-.85.7-2.11,0-2.9-.78s-1.78-1.69-2.82-1.34a2.58,2.58,0,0,0-1.14,1,5.67,5.67,0,0,0-1.33,3,2.66,2.66,0,0,0,1.56,2.69c1,.37,2.42,0,3.07.85s-.29,2.22-1.34,2.71-2.34.74-2.92,1.74c-1.27,2.16,2.08,5.16.58,7.17-.93-.87-2.59,0-2.88,1.28a5.47,5.47,0,0,0,.88,3.62,2,2,0,0,0,2.2,1.33c2.42.06,5.22-.06,6.68-2a8.11,8.11,0,0,0,1.21-3.42,6.47,6.47,0,0,1,1.4-3.33,2.42,2.42,0,0,1,3.27-.36,9.28,9.28,0,0,1,.67.85,2.81,2.81,0,0,0,3.06.82,2.84,2.84,0,0,0,1.81-2.61c1.31,0,2.89-.62,3-1.93a7.16,7.16,0,0,0-.25-1.65,5.42,5.42,0,0,1,.51-2.55l2.07-5.6c.39-1.06.78-2.29.24-3.29s-1.54-1.28-2.32-1.93c-1.46-1.24-1-3.47-2.85-4.28-2.25-1-5.47.8-7.38,1.85Z"/><path class="cls-1" d="M121,281.13c-1.52.48-2.65,2-4.24,2.11-1.35.09-2.55-.88-3.89-1.05a4.48,4.48,0,0,0-3.47,1.32,13.53,13.53,0,0,0-2.25,3.09,7.13,7.13,0,0,0-1.11,2.64,2.46,2.46,0,0,0,1.08,2.49c1,.52,2.18,0,3.29,0a3.71,3.71,0,0,1,3.4,2.53,5.84,5.84,0,0,0,.65,1.91,2.47,2.47,0,0,0,2.92.38c1-.43,1.77-1.18,2.74-1.61,2.41-1.06,5.27,0,7.82-.65,2.35-.62,1.94-2.22,2.15-4.17.11-1.09.66-2.56-.14-3.45-.5-.56-1.82-.21-2.47-1.34-1.31-2.28-3.25-5.29-6.5-4.26Z"/><path class="cls-3" d="M238.89,35.38a18.47,18.47,0,0,0-1.9-3.56c-2.21-3.75-3.35-8.06-5.59-11.79a17.49,17.49,0,0,1-2-3.79c-.29-1-.35-2-.73-2.95-.45-1.13-1.34-2-1.84-3.16-.71-1.59-.59-3.49-1.44-5-.6-1.08-1.65-1.9-2-3.07a2.92,2.92,0,0,0-.61-1.4,1.4,1.4,0,0,0-1.57,0c-1.33.76-1.65,2.53-1.56,4.06s.43,3.12-.11,4.55c-1,2.49-.94,5-2.5,7.14a27.84,27.84,0,0,1-5.75,5.51,14.46,14.46,0,0,1-2.47,1.63,26,26,0,0,0-3.7,1.6,15.53,15.53,0,0,1-1.43,1,5.57,5.57,0,0,1-2,.51,23.41,23.41,0,0,1-6.31-.22,13.09,13.09,0,0,0-3.93-.38,18.93,18.93,0,0,0-2.93.87,4.3,4.3,0,0,1-3,0c-.5-.23-.92-.61-1.4-.86a6.68,6.68,0,0,0-3.69-.4l-2.9.24c-2.63-.29-5-.31-7.66-.6a5.22,5.22,0,0,0-2.86.22c-1.12.54-2,1.89-3.22,1.66a3.16,3.16,0,0,1-1.1-.55,10.57,10.57,0,0,0-8.88-1.11,9.08,9.08,0,0,1-1.76.51c-1.89.24-3.86-1.19-5.62-.45-1,.42-1.68,1.48-2.74,1.69-.9.18-1.8-.31-2.71-.41-1.77-.2-3.35,1-4.72,2.17l-6.52,5.5a11.58,11.58,0,0,0-2,1.91,1.47,1.47,0,0,0-.23.47,2,2,0,0,0,0,.76,12.45,12.45,0,0,1,.15,3.11c-1,.82-2,1.35-3,2.18A9.81,9.81,0,0,0,122,45.64a16,16,0,0,0-1.1,3.18,10.86,10.86,0,0,1-4.67,6c-2.27,1.35-5,1.73-7.6,2.09,0,2.32,0,4.68,0,7a2.09,2.09,0,0,0,.3,1.35c.42.51,1.4.81,1.17,1.43s-.86.42-1.26.71a1.61,1.61,0,0,0-.43,1.34L108.3,79a2,2,0,0,0,.23,1.18,2.3,2.3,0,0,0,1.2.69,6.69,6.69,0,0,1,3.63,3.31A9.4,9.4,0,0,1,109.08,82a4.63,4.63,0,0,1-1.47-1.55,5.06,5.06,0,0,1-.32-2,28.68,28.68,0,0,0-.65-5.14c-.11-.49-.4-1.1-.9-1-.29,0-.46.33-.66.54-1.15,1.3-3.23.77-5,.59a1.44,1.44,0,0,0-.92.13,1.5,1.5,0,0,0-.47,1.15c-.35,3.4-.66,7,.8,10.1.45.94,1,1.8,1.49,2.75,1.51,3.22,1,7,1.08,10.51a2.44,2.44,0,0,0,.21,1.14c.58,1.12,2.62,1.34,2.5,2.59a2.58,2.58,0,0,1-.44,1,2.3,2.3,0,0,0-.1,2.2,1.46,1.46,0,0,0,2,.58c.44-.29.65-.85,1.11-1.11a2.13,2.13,0,0,1,1.59,0c.64.16,1.41.49,1.43,1.14s-.54,1-1.06,1.15a2.79,2.79,0,0,0-1.43.81c-.49.72.08,1.75.85,2.14a10.2,10.2,0,0,0,2.54.57,5.78,5.78,0,0,1,2.48,1.19,1.06,1.06,0,0,1,.41.55c.12.61-.69.92-1.31,1l-3.11.33c-.67.07-1.65-.19-1.48-.84-.35-.61-1.35-.07-1.74.52a3.35,3.35,0,0,0-.28,2.06,2.77,2.77,0,0,1-.42,2c-1.16-.22-.1-2.58-1.19-3-.43-.18-.95.09-1.38-.09s-.56-.73-.86-1.1a1.7,1.7,0,0,0-2.41,0,2.88,2.88,0,0,0-.67,2.52,2.68,2.68,0,0,1,0,1.79c-.18.32-.52.52-.74.81a1.37,1.37,0,1,0,2.22,1.59,1.37,1.37,0,0,1,.39-.49c.4-.21.87.24,1.31.15s.62-1,1.11-1.28,1.35.21,1.72.82a7.59,7.59,0,0,1,1.11,3.47c0,.72.28,1.72,1,1.63.57-.08,1.09-.91,1.53-.54s-.09.86-.42,1.22a2.44,2.44,0,0,0-.15,3,.79.79,0,0,0,.48.34c.33.06.62-.23.82-.51.74-1,1.19-2.27,1.91-3.33a3.73,3.73,0,0,1,3.15-1.88c1.28.1,2.35,1.68,1.6,2.72-.59.81-1.87.87-2.44,1.7-.91,1.33.79,3.28,0,4.7-.44.79-1.58,1.24-1.54,2.14s1.4,1.22,2.37,1.09,2.28-.14,2.59.79a6.61,6.61,0,0,1-2.21.92c-.42.47.31,1.16.94,1.15s1.3-.3,1.85,0,.71,1.26,1,2a5.21,5.21,0,0,0,1.65,1.88,8.43,8.43,0,0,0,3.24,1.91,2.86,2.86,0,0,0,3.26-1.29c.45-1,.3-2.44,1.32-2.8a4.09,4.09,0,0,1-1.37,4.85c-1.21.84-2.77.93-4.19,1.34s-2.91,1.42-2.94,2.89c0,.46.12.91.08,1.37s-.37.95-.83.93c-.62,0-.82-.84-.83-1.46a20.75,20.75,0,0,0-.83-6.81c-.8-2.15-2.64-4.09-4.93-4.27-.92-.07-2,.09-2.63-.59-.27-.3-.43-.74-.82-.87s-.81.15-1.19.36a3.48,3.48,0,0,1-4.12-.66c-.68-.73-1.1-1.82-2.06-2.12-.73-.23-1.59.09-2.27-.27s-.88-1.17-1.4-1.7c-1.07-1.08-3.13-.42-3.75,1a4.21,4.21,0,0,0,.89,4.24,3.7,3.7,0,0,1,.73,1.07.91.91,0,0,1-.37,1.13c-.76.34-1.25-.79-1.59-1.55a4.42,4.42,0,0,0-3.25-2.34,11.78,11.78,0,0,0-4.14.13,3.86,3.86,0,0,0-1.6.51,1.32,1.32,0,0,0-.59,1.46c.29.82,1.44.89,2,1.5.78.77.55,2.24,1.42,2.92.72.57,1.81.27,2.63.68a1.74,1.74,0,0,1-.18,3,6.57,6.57,0,0,1-1.78.12c-.6,0-1.28.34-1.38.93-.06.33.08.66,0,1-.11,1.36-2.51,1.26-3,2.54-.17.44-.1,1.05-.52,1.28a.77.77,0,0,1-.58,0c-1-.32-1.12-1.78-.66-2.76s1.25-1.82,1.38-2.88a5.41,5.41,0,0,0-.41-2.23,19.52,19.52,0,0,1-.86-5.31c-.65-.38-1.2.64-1.29,1.39l-.57,5.17a4.81,4.81,0,0,1-.48,1.91,1.66,1.66,0,0,1-1.63.9c-1.34-.25-1.28-2.22-2.06-3.34a.81.81,0,0,0-.5-.37c-.48-.06-.69.59-.72,1.07L75,149.4a2.05,2.05,0,0,0,.09,1c.26.56,1,1,.88,1.56s-1.29.43-1.78-.11-1.09-1.28-1.78-1-.64,1.34-.52,2.12-.32,1.92-1.07,1.65c-.58,0-.87.36-1.1.89a1.55,1.55,0,0,0,.26,1.61,2.43,2.43,0,0,1,.43.48c.27.48,0,1.07-.3,1.56s-.45,1.17,0,1.53,1.35-.2,1.55-.88.2-1.49.73-2c.69-.59,1.76-.2,2.48.35s1.22,1.27.91,2c-.54,1.25-2.89.6-3.44,1.85-.38.87.67,1.82,1.62,1.72a4.19,4.19,0,0,0,2.36-1.5l2-2.08c.27-.27.61-.57,1-.46s.51.64.45,1.06-.34,1.06-.44,1.61a1.42,1.42,0,0,0,.5,1.49,3.28,3.28,0,0,0,.75.24,2.24,2.24,0,0,1,1.49,2.57,8.54,8.54,0,0,1-.83,1.69,1.74,1.74,0,0,0,0,1.79c.42.55,1.25.58,1.81,1,.91.67.81,2,.75,3.14a27.65,27.65,0,0,0,1.36,8.48,5.16,5.16,0,0,0,.95,2.15c1,1.11,2.67,1.15,4.15,1.11a1.13,1.13,0,0,0,.55-.1,1,1,0,0,0,.38-.39c.86-1.35.54-3.12,0-4.64-1-3-2.59-5.77-3.25-8.85a20.42,20.42,0,0,0-.5-2.19,18.66,18.66,0,0,0-1.13-2.34,15.83,15.83,0,0,1-1.62-5.41c0-.44.13-1.08.56-1a.66.66,0,0,1,.37.33,8.74,8.74,0,0,1,.73,3.72c.13,1.27.64,2.69,1.83,3.13.77.28,1.74.12,2.3.72.15.16.28.38.49.41a.63.63,0,0,0,.45-.19,3,3,0,0,0,.6-2.73,6.26,6.26,0,0,1-.1-2.88.89.89,0,0,1,.34-.5.77.77,0,0,1,.93.16,1.81,1.81,0,0,1,.42.92,14.72,14.72,0,0,1-.32,5.4,8.49,8.49,0,0,0,.43,5.33,12.63,12.63,0,0,1,1.13,2c.43,1.4-.34,3,.19,4.35.31.79,1,1.41,1.16,2.25.21,1.43-1.37,2.76-.91,4.13s2.82,1.44,3.59,2.79c.31.54-.12.64-.71.84s-1.29.18-1.75.59a1.82,1.82,0,0,0,.1,2.41c.55.7,1.35,1.17,1.9,1.87a1.81,1.81,0,0,1,.07,2.41c-.17.14-.37.23-.55.37a1.58,1.58,0,0,0-.34,2.08,10.79,10.79,0,0,0,.82.84,1,1,0,0,1,.23,1.08c-.24.41-.85.43-1.18.77-.54.55-.13,1.65-.74,2.12-.26.2-.63.21-.92.37a1,1,0,0,0-.12,1.61c1,.73,2.34-.7,3.48-.31.88.3,1.27,1.6,2.2,1.6.26,0,.51-.11.77-.09.88.07,1,1.32,1.56,2,.4.47,1.09.69,1.32,1.26s-.27,1.43-.15,2.14,1,1.29,1.36,2.06c.15.37.16.78.31,1.15a2.56,2.56,0,0,0,2.41,1.2,7.5,7.5,0,0,0,2.26-.29,7.09,7.09,0,0,1,5-2.27,1.23,1.23,0,0,1,.71.17.49.49,0,0,1,.16.65.68.68,0,0,1-.46.21c-1.19.17-2.67-.13-3.37.84-.27.37-.34.84-.59,1.22-.59.89-1.86.92-2.93.92a10.39,10.39,0,0,0-4.07.65,6.29,6.29,0,0,1-1.37.51,8.49,8.49,0,0,1-2.06-.18,6.41,6.41,0,0,0-2.3.28c-.26.07-1.65.18-1.71.24-.9,1,2.2,2.19,2.73,2.18.89,0,2-.25,2.45.54a1.73,1.73,0,0,1,.07,1,6.09,6.09,0,0,0-.06,2,2,2,0,0,0,1.1,1.52c1.66.66,3.29-1.92,5-1.35.74.25,1,.33,1.78.53a4.12,4.12,0,0,0,2.3.14c1.16-.39,1.84-1.77,3-2,.52-.09,1.19.24,1.12.76s-.84.64-1.29,1c-.88.63-.7,2.28-1.72,2.66a1.83,1.83,0,0,1-.84,0l-2.43-.19a2.36,2.36,0,0,0-1.78.34,1.59,1.59,0,0,0-.07,2,4.65,4.65,0,0,0,1.76,1.32l3.1,1.63c.42.22.39.44.43.91s-.34,1-.81,1-.66-.45-1-.74a3.75,3.75,0,0,0-2.48-.74c-1-.05-2.1-.08-3.14-.08a3.54,3.54,0,0,0-2.88.9c-.72.91-.39,2.24-.63,3.37a3.29,3.29,0,0,1-1.71,2.2,15.08,15.08,0,0,0-2.62,1.05,5.32,5.32,0,0,0-.87,1,13.7,13.7,0,0,1-5.25,4,2.58,2.58,0,0,0-.76.43,1.49,1.49,0,0,0-.2,1.63,4.06,4.06,0,0,0,1.12,1.33c.43.37.86.74,1.3,1.09a2.34,2.34,0,0,0,.83.49,2.37,2.37,0,0,0,1.2-.16,18.17,18.17,0,0,1,8.22-.59c.56.09,1.29.48,1.08,1s-.74.41-1.18.43a3,3,0,0,0-2.14,1.12,4.63,4.63,0,0,1-1,1.22,3.23,3.23,0,0,1-1.78.22,8.22,8.22,0,0,0-5.71,2.35c-2.09,2-2.74,4.41-3.8,6.95s-2.67,4.94-3.21,7.71c-.22,1.16-.42,2.58-1.51,3-.34.13-.71.15-1,.28-.92.38-1.19,1.53-1.25,2.52a1.61,1.61,0,0,1-.2.84A2.86,2.86,0,0,1,83,281a1.67,1.67,0,0,0,.06,2.47,4.45,4.45,0,0,1,.64.48c.38.44.26,1.14.58,1.63.44.67,1.41.62,2.15.93,1.84.79,1.71,3.58,3.18,4.95.82.76,2.1,1,2.66,2s.12,2.29-.48,3.28a3,3,0,0,1-.91,1,1.2,1.2,0,0,1-1.32,0c-.71-.53-.3-1.69-.65-2.51a1.82,1.82,0,0,0-1.27-1,2.07,2.07,0,0,0-2.4,1,1.41,1.41,0,0,0,1.26,2c.5-.06,1.06-.42,1.43-.09a1,1,0,0,1,.18.93c-.05.33-.09.66-.14,1a.81.81,0,0,1-.21.53c-.2.17-.5.1-.77.09a1.74,1.74,0,0,0-1.76,1.58,1.8,1.8,0,0,1-.08.7c-.18.38-.68.45-1.07.6a2.07,2.07,0,1,0,2.77,2.28c.09-.51,0-1,.1-1.54s.61-1,1.1-.81c.49-.24,1.1.37,1.15.92a3.3,3.3,0,0,1-.45,1.57,7.63,7.63,0,0,0-.54,4c.18,1.32.71,2.64.41,3.94-.34,1.5-1.74,2.63-1.93,4.16a1.17,1.17,0,0,0,.15.84,1.14,1.14,0,0,0,.54.37,2.46,2.46,0,0,0,1.79,0,12.43,12.43,0,0,0,1.23-.69c1.47-.76,3.25-.47,4.87-.09a2.8,2.8,0,0,1,1.22.5,1,1,0,0,1,.3,1.19,1.09,1.09,0,0,1-1.22.37c-.44-.11-.83-.38-1.26-.53-1.69-.61-3.45.56-5.21,1-.64.15-1.37.24-1.74.79-.48.71.08,1.73.85,2.09a6.1,6.1,0,0,0,2.53.29,7.65,7.65,0,0,1,6.24,2.9c.39.57.66,1.38.21,1.9a1.8,1.8,0,0,1-1.56.37c-1-.09-2.17-.32-2.6-1.23a13.61,13.61,0,0,1-.36-1.59,3.16,3.16,0,0,0-2.8-1.77,1.6,1.6,0,0,0-.87.08c-.62.28-.73,1.09-1,1.74-.34,1-1.14,1.8-1.14,2.83,0,1.32,1.27,2.24,2.46,2.82s2.54,1.15,3,2.38A4.43,4.43,0,0,1,87,331c-.36-1-.35-2.17-1-3-.24-.35-.57-.63-.81-1a4.41,4.41,0,0,1-.56-2.43,6.15,6.15,0,0,0-.36-2.49,1.88,1.88,0,0,0-2-1.18A2.3,2.3,0,0,0,81,322a6.24,6.24,0,0,0-1.11,3.62,17.11,17.11,0,0,0,.4,3.56,22.54,22.54,0,0,0,2.34,5.41,3.66,3.66,0,0,0,.9,1.22,5.12,5.12,0,0,0,2.37.61,12.56,12.56,0,0,1,4.65,2.15c1.7,1.09,3.46,2.38,3.2,4.65a9.28,9.28,0,0,0-.22,2.45c.12.81.77,1.65,1.59,1.59.38,0,.75-.25,1.13-.19a.86.86,0,0,1,.49,1.37c-.32.34-.87.37-1.19.71s-.29.92-.43,1.4a12.08,12.08,0,0,1-1,1.66c-.28.58-.18,1.45.44,1.62,1,.27,1.73-1.52,2.65-1.1.6.27.47,1.15.24,1.76a6.43,6.43,0,0,0-.64,2.52,1.06,1.06,0,0,0,.16.6c.33.49,1.14.34,1.56-.09a12.32,12.32,0,0,0,1-1.5,1,1,0,0,1,.67-.44c.33,0,.59.28.88.44a2,2,0,0,0,2.59-1.18,8,8,0,0,0,.33-3.17,3.81,3.81,0,0,1,1-3c1.09-.94,2.93-.66,3.89-1.73,2.7-3,5.46-5.71,5.46-9.74,0-1.33-.52-3.25-.09-4.51a.55.55,0,0,1,.54-.4c.37,0,.49.51.5.88,0,.93,0,1.87,0,2.79,0,2.18.08,4.37.22,6.54a2.8,2.8,0,0,0,.29,1.28c.52.87,1.75.92,2.6,1.47.55.36.94.93,1.5,1.28s1.45.36,1.74-.23c.15-.31.1-.73.34-1s.9-.13,1.29.13.86.58,1.29.39c.81-.35.3-1.88,1.09-2.3a1.8,1.8,0,0,1,.61-.13,2.45,2.45,0,0,0,2-2.68,6.26,6.26,0,0,1-.3-1.7c.13-1,1.21-1.5,1.61-2.39.62-1.38-.53-3.19.33-4.42a7.67,7.67,0,0,1,3.44-2.42,11,11,0,0,0,4.38-3.8c.27-.41.83-.88,1.15-.5.09.1.12.24.21.34a.73.73,0,0,0,.58.14c1.36-.07,2.86-.19,3.81-1.17s1-2.76,1.93-4a.73.73,0,0,1,.47-.34.65.65,0,0,1,.61.49c.1.26.11.55.23.81.34.71,1.3.8,2.1.79a1.44,1.44,0,0,0,1.29-.47c.14-.22.14-.5.28-.73a1,1,0,0,1,1.49,0,2.41,2.41,0,0,1,.52,1.6,9.52,9.52,0,0,1-.32,2.86,3,3,0,0,1-.66,1.34,1.33,1.33,0,0,1-1.37.41c-1.29-.46-.78-2.88-2.07-3.32a1.23,1.23,0,0,0-1.49,1c-.07.49.11,1,0,1.47-.15.77-.95,1.27-1.15,2-.1.39,0,.8-.1,1.19s-.4.8-.79.74-.48-.34-.72-.52a1.37,1.37,0,0,0-1.64,0,1.83,1.83,0,0,0-.66,1.56c0,.51.24,1.08,0,1.51s-.84.46-1.3.64a4.16,4.16,0,0,0-1.79,1.85,2,2,0,0,0-.44,1.57c.22.69,1.15,1,1.35,1.67a1.61,1.61,0,0,0,.19.62.79.79,0,0,0,.6.21,14.58,14.58,0,0,0,2.09,0,9.1,9.1,0,0,0,1.8,0,5.29,5.29,0,0,0,.74-.4c1.08-.53,2.33.19,3.32.88a1.19,1.19,0,0,1,.55.62c.1.43-.29.89-.11,1.3s.81.41,1.18.69c.71.54.43,2.05,1.31,2.18.54.08.92-.53,1-1.07s.15-1.15.58-1.49,1.3-.13,2-.13a2.23,2.23,0,0,0,1.93-1.17,3.31,3.31,0,0,1,.36-.64,2.9,2.9,0,0,1,1-.51,2.26,2.26,0,0,0,1.21-2.43,1,1,0,0,0-.48-.74c-.55-.28-1.37.22-1.77-.26-.23-.28-.13-.7-.28-1a.94.94,0,0,0-1.05-.4,2.8,2.8,0,0,0-1,.6.94.94,0,0,1-.45.24.7.7,0,0,1-.66-.47,1.59,1.59,0,0,1,.94-2,2.64,2.64,0,0,1,2.35.34,1.38,1.38,0,0,0,.77.32c.24,0,.45-.16.68-.18.43,0,.73.4,1,.74s.79.63,1.11.33.2-.51.4-.69.71-.07,1.07,0a2.07,2.07,0,0,0,1.93-3.53c-.53-.48-1.33-.7-1.64-1.35-.1-.21-.14-.45-.23-.66a3.06,3.06,0,0,0-1-1.13,42.32,42.32,0,0,1-4.17-4c-.54-.59-1.1-1.37-.84-2.12s1-1.11,1-1.81-.95-1.19-.71-1.83c.09-.24.33-.4.44-.64.26-.53-.24-1.1-.64-1.53s-.76-1.16-.31-1.55a1,1,0,0,1,1.09,0,4.26,4.26,0,0,0,1,.58c.38.1.88-.09.9-.48a2.58,2.58,0,0,1,1.94-.72,7.59,7.59,0,0,0,2,0,1.47,1.47,0,0,0,1.23-1.39,2.17,2.17,0,0,1-.07-.71c.14-.54,1-.45,1.33,0a3.58,3.58,0,0,1,.29,1.64,7,7,0,0,0,.81,2.33,5,5,0,0,0,.63,1.05,11.91,11.91,0,0,0,1.5,1.22,4.43,4.43,0,0,1,1.61,3.09,3.79,3.79,0,0,1-1.38,3.16,3.53,3.53,0,0,0-1.06,1,2.27,2.27,0,0,0-.16,1.1c0,1.25.26,2.8,1.44,3.19.57.19,1.22,0,1.76.28.91.4,1.37,1.8,2.35,1.65s1-1.25.87-2.08a9.45,9.45,0,0,0-.95-2.83,3.77,3.77,0,0,1-.5-1.19,1.05,1.05,0,0,1,.48-1.12,2.62,2.62,0,0,1,.73-.14,1.69,1.69,0,0,0,1.31-1.22c.11-.45,0-.93.14-1.38s.58-.88,1-.69c.58.26.29,1.14.48,1.75s1,1,1.72,1.11a1.64,1.64,0,0,0,.79.05c.86-.24.83-1.63,1.62-2,.19-.1.42-.13.6-.24.58-.34.5-1.2.29-1.84s-.46-1.41,0-1.93a3.93,3.93,0,0,1,.81-.57,2.19,2.19,0,0,0,.86-1.51,3.1,3.1,0,0,0-1.72-3.12,3.59,3.59,0,0,0-3.61.37,16.09,16.09,0,0,1-2.08,1.72,2.73,2.73,0,0,1-3.44-1,2.43,2.43,0,0,0-.6-.84c-.19-.13-.42-.17-.6-.31-.72-.54,0-1.7-.26-2.56-.18-.64-.89-1.17-.7-1.8s1-.69,1.5-.45a15.81,15.81,0,0,1,1.45,1,2.73,2.73,0,0,0,3.84-1.5,5.78,5.78,0,0,1,.35-1.25c.46-.83,1.57-1,2.52-1,1.22,0,2.58-.7,3.65.15.42.33.88.74,1.4.66s.79-.5,1.22-.71a3.72,3.72,0,0,1,2.11.08c1.78.28,3.83-.75,4.2-2.51.12-.57.07-1.16.16-1.74a1.69,1.69,0,0,1,.93-1.38.52.52,0,0,1,.3,0c.46.1.32.77.29,1.24a1.79,1.79,0,0,0,1.14,1.64,4,4,0,0,0,2.09.2,1.77,1.77,0,0,0,.79-.23,1.83,1.83,0,0,0,.59-1.1,4.48,4.48,0,0,0,.23-1.66,1.49,1.49,0,0,0-.95-1.28c-.41-.12-1.06-.19-1-.62a.51.51,0,0,1,.26-.32,1.2,1.2,0,0,1,1.72,1,1.85,1.85,0,0,0,1.26-1.46c.09-.6.06-1.46.66-1.53s.78.77.73,1.36a16.3,16.3,0,0,1-.73,4.34,3.4,3.4,0,0,0-.32,1.24c0,.28.09.56.08.84,0,.6-.46,1.11-.5,1.71-.06,1.09,1.25,1.76,2.34,1.72.82,0,1.82-.21,2.32.45s.2,1.75.9,2.1a1.36,1.36,0,0,0,.69.1l2.92-.05a3.7,3.7,0,0,0,1.48-.22,1.31,1.31,0,0,0,.84-1.14c0-.35-.21-.69-.16-1.05.1-.73,1.08-.87,1.81-.83l1.35.08c1.17.07.79.78,1.3,1.49a1.46,1.46,0,0,0,2.31.11c.85-1.19-.5-3.29,1.66-3.67a.9.9,0,0,1,1.08.74,5.93,5.93,0,0,1-.19.81c-.09.7.63,1.35.46,2s-1.14.85-1.72,1.32c-1.89,1.55.75,2.88,2.16,2.72.75-.09,1.48-.35,2.23-.43s2,0,2.47-.78-.2-2.07.23-3c.28-.6,1-.94,1.17-1.58.21-.85-.65-1.93,0-2.51.13-.12.31-.19.4-.34.23-.42-.44-.75-.91-.69s-1.11.11-1.25-.34a1,1,0,0,1,.95-.57,5.22,5.22,0,0,1,1.16.2,3,3,0,0,0,2.4-.35,2.44,2.44,0,0,0,.27-3.52,2.94,2.94,0,0,0-3.66-.32c-.89.54-2.54,2.64-3.67,1.69-.55-.47-.07-1.62.26-2.12a3,3,0,0,1,2.36-1.17,20.11,20.11,0,0,1,3.6.56,1.32,1.32,0,0,0,1.3-.33,1,1,0,0,0-.09-1.08,2.77,2.77,0,0,0-.91-.71l-2-1.14a1.82,1.82,0,0,1,2.18-.56,9.5,9.5,0,0,0,1.42.64,1.74,1.74,0,0,0,1.64-.25,3.59,3.59,0,0,1,.61-.56,1.25,1.25,0,0,1,1.28.24,8.84,8.84,0,0,0,1.07.87c.21.11.46.21.52.44.12.43-.51.61-.9.82a1.13,1.13,0,0,0,.56,2.12c.58,0,1.07-.44,1.64-.55s1.26.16,1.81-.1c.75-.35.8-1.39.74-2.22-.1-1.25-.3-2.69-1.38-3.33-.29-.17-.62-.27-.91-.44a1.84,1.84,0,0,1-.81-2.27,1.42,1.42,0,0,1,2.2-.42c.52.57.43,1.57,1,2,1,.8,2.62-.73,3.76-.09.74.42.75,1.45,1,2.25a3,3,0,0,0,3.8,1.67c.68-.28,1.41-.83,2.06-.48a3.33,3.33,0,0,1,.62.57c.78.71,2,.55,3,.35a2.74,2.74,0,0,1,2.33.75c.72-.31.11-1.76.83-2.06.38-.16.8.21.92.61a8.53,8.53,0,0,1,.11,1.24c.07.41.35.85.77.84.76,0,.78-1.33,1.49-1.6.52-.2,1.06.3,1.22.84s.08,1.11.21,1.65a2.17,2.17,0,0,0,4.19.07c.2-.72.19-1.73.91-1.91s1.07.45,1.41,1,.88,1.07,1.44.85.54-1.18.12-1.68-1.06-.81-1.42-1.36-.19-1.53.47-1.55a1.37,1.37,0,0,1,.91.51,3.53,3.53,0,0,0,2.32,1.12c.88,0,1.79-.76,1.67-1.63,0-.33-.22-.7,0-1a1,1,0,0,1,.62-.35c1.45-.44,1.64-1.7,3-2.21a10.36,10.36,0,0,0,2.14-.8,5.35,5.35,0,0,0,1.84-3.27,19,19,0,0,0,1-6.78,4,4,0,0,1,0-1.2A1,1,0,0,1,284,275a2.24,2.24,0,0,1,.8.13,2.29,2.29,0,0,0,2.34-.94c.38-.58.53-1.37,1.15-1.68.39-.19.85-.13,1.25-.29a1.64,1.64,0,0,0,.89-1.41,6.11,6.11,0,0,0-.22-1.74,13.16,13.16,0,0,1-.13-4.2,1.66,1.66,0,0,1,.27-.81,3.41,3.41,0,0,1,.71-.54c.94-.72.86-2.13.69-3.3a1,1,0,0,1,0-.57c.2-.4.88-.27,1.1.12a2.07,2.07,0,0,1,.07,1.33,1.78,1.78,0,0,0,.12,1.31,1.25,1.25,0,0,0,1.93-.19,3.6,3.6,0,0,0,.47-2.18,27,27,0,0,1,.76-4.34,4.3,4.3,0,0,1,.48-2c.2-.27.49-.47.69-.75a1.47,1.47,0,0,0-.19-1.87c-.16-.15-.35-.26-.52-.4a2.19,2.19,0,0,1-.57-2,8.67,8.67,0,0,1,.74-2,33.63,33.63,0,0,0,1.48-4.52l2.62-9.42a12.52,12.52,0,0,0,.68-4.48,11.33,11.33,0,0,1-.16-1.84c.11-1.79,1.73-3.23,1.79-5,0-.49-.07-1,.25-1.41a5.35,5.35,0,0,1,.71-.51,2.24,2.24,0,0,0,.65-1.46,9.79,9.79,0,0,0-.68-5.16c-.12-.29-.3-.6-.61-.66a1,1,0,0,0-.8.38,23.72,23.72,0,0,0-3.69,4.55,7.07,7.07,0,0,1-1.49,1.93,2,2,0,0,1-2.28.24,3.78,3.78,0,0,1-1-1.79c-.27-.65-.8-1.32-1.5-1.27a1.76,1.76,0,0,1-.68.05.74.74,0,0,1-.44-.76c.05-1,1.06-1.52,1.86-2a2.91,2.91,0,0,0,.84-4.18c-.51-.72-1.32-1.23-1.63-2a8.91,8.91,0,0,1-.15-2.43,19.36,19.36,0,0,0-1.07-3.34,11.06,11.06,0,0,1-.12-3.81c.14-1.67.29-3.34.43-5a7.55,7.55,0,0,1,1.36-4.46c.38-.44.87-.79,1.25-1.23a6.15,6.15,0,0,0,1.19-2.84,35.92,35.92,0,0,0,.45-7.11,9.17,9.17,0,0,0-.33-3c-.35-1-1.06-1.92-1.48-2.93a2.83,2.83,0,0,1,.29-3.07c.12-1.37.12-2.51,1-3.59.58-.73,1.42-1.22,2-2a6.37,6.37,0,0,0,.79-4,15.24,15.24,0,0,0-1.2-6.25c-.52-1.05-1.28-2-1.71-3.08a11.77,11.77,0,0,1-.6-2.64,48.17,48.17,0,0,1-.68-6.67c0-2.47.11-4.92.26-7.38a3.48,3.48,0,0,0-.09-1.33c-.17-.51-.6-.75-1-1.05a5,5,0,0,1-2-2.59,11.91,11.91,0,0,0-.67-2.39c-.23-.42-.58-.76-.84-1.17-1.62-2.53.58-6.23-1-8.78a12.56,12.56,0,0,1-.94-1.39c-.21-.46-.27-1-.5-1.44-.47-.94-1.55-1.39-2.32-2.1a4.05,4.05,0,0,1-1.25-2.35c-.17-1.09.07-2.34-.63-3.18a5.74,5.74,0,0,0-1.85-1.11,4.5,4.5,0,0,1-2.18-2.71,11.47,11.47,0,0,0-.35-1.31c-.44-1.14-1.54-1.85-2.41-2.71A8.21,8.21,0,0,1,274,90.54a4.84,4.84,0,0,0,0-1.37,3.86,3.86,0,0,0-1.88-2.11A7.31,7.31,0,0,1,270,84.59a2.53,2.53,0,0,1-.54-1.77c.08-.39.32-.72.42-1.11.32-1.22-.66-2-1.37-2.72-.86-.92-1.51-2-2.45-2.83s-1.76-1.39-2.57-2.16c-2.21-2.1-3.4-5.06-5.47-7.29-1.09-1.17-2.48-2.25-2.77-3.82a10.27,10.27,0,0,0-.25-1.57,3.81,3.81,0,0,0-.8-1.17c-2.73-3.1-5.32-6.32-7.91-9.54a11.76,11.76,0,0,1-2.11-3.32,14,14,0,0,0-.95-2.82,9.51,9.51,0,0,0-2.08-2c-2.21-1.88-1.43-4.69-2.25-7.18Z"/><circle class="cls-4" cx="131.14" cy="91.21" r="4.29"/><polygon class="cls-5" points="131.14 87.66 132.22 89.85 134.63 90.2 132.89 91.9 133.3 94.31 131.14 93.17 128.97 94.31 129.39 91.9 127.64 90.2 130.06 89.85 131.14 87.66"/><circle class="cls-4" cx="96.42" cy="422.06" r="2"/><circle class="cls-4" cx="99.33" cy="298.78" r="2"/><circle class="cls-4" cx="135.3" cy="233.97" r="2"/><circle class="cls-4" cx="237.69" cy="226.26" r="2"/><circle class="cls-4" cx="159.58" cy="188.58" r="2"/><circle class="cls-4" cx="151.3" cy="180.37" r="2"/><circle class="cls-4" cx="97.52" cy="166.19" r="2"/><circle class="cls-4" cx="159.82" cy="161.84" r="2"/><circle class="cls-4" cx="247.25" cy="169.06" r="2"/><circle class="cls-4" cx="290.82" cy="256.77" r="2"/><circle class="cls-4" cx="238.8" cy="284.32" r="2"/><circle class="cls-4" cx="273.43" cy="286.87" r="2"/><circle class="cls-4" cx="130.98" cy="108.32" r="2"/><circle class="cls-4" cx="180.31" cy="61.22" r="2"/><circle class="cls-4" cx="105.29" cy="94.64" r="2"/><circle class="cls-4" cx="123.44" cy="286.14" r="2"/><g id="TEXTS"><g class="cls-6"><text class="cls-7" transform="translate(103.93 303.71)">Muan</text></g><g class="cls-6"><text class="cls-7" transform="translate(83.76 418.3)">Jeju</text></g><g class="cls-6"><text class="cls-7" transform="translate(127.83 284.14)">Gwangju</text></g><g class="cls-6"><text class="cls-8" transform="translate(204.51 285.58)">Changwon</text></g><g class="cls-6"><text class="cls-8" transform="translate(277.82 294.01)">Busan</text></g><g class="cls-6"><text class="cls-8" transform="translate(215.37 221.17)">Daegu</text></g><g class="cls-6"><text class="cls-8" transform="translate(298.36 262.16)">Ulsan</text></g><g class="cls-6"><text class="cls-8" transform="translate(251.93 171.06)">Andong</text></g><g class="cls-6"><text class="cls-7" transform="translate(162.79 159.85)">Cheongju</text></g><g class="cls-6"><text class="cls-7" transform="translate(165.04 193.43)">Daejeon</text></g><g class="cls-6"><text class="cls-7" transform="translate(102.29 168.19)">Hongseong</text></g><g class="cls-6"><text class="cls-7" transform="translate(157.16 178.37)">Sejong</text></g><g class="cls-6"><text class="cls-7" transform="translate(185.46 63.22)">Chuncheon</text></g><g class="cls-6"><text class="cls-7" transform="translate(135.42 110.32)">Suwon</text></g><g class="cls-6"><text class="cls-9" transform="translate(85.91 91.05)">Incheon</text></g><g class="cls-6"><text class="cls-7" transform="translate(139.91 235.97)">Jeonju</text></g><g class="cls-6"><text class="cls-10" transform="translate(137.9 87.37)">Seoul</text></g><g class="cls-6"><text class="cls-7" transform="translate(204.58 81.27)">GANGWON</text></g><g class="cls-6"><text class="cls-7" transform="translate(181.19 138.57)">NO<tspan class="cls-11" x="9" y="0">R</tspan><tspan x="13.22" y="0">TH</tspan></text><text class="cls-7" transform="translate(168.22 145.77)">CHUNGCHEONG</text></g><g class="cls-6"><text class="cls-8" transform="translate(235.49 190.58)">NO<tspan class="cls-11" x="9" y="0">R</tspan><tspan x="13.22" y="0">TH</tspan></text><text class="cls-8" transform="translate(225.07 197.78)">GYEONGSONG</text></g><g class="cls-6"><text class="cls-8" transform="translate(188.82 268.92)">SOUTH GYEONGSONG</text></g><g class="cls-6"><text class="cls-7" transform="translate(116.38 247.92)">NO<tspan class="cls-11" x="9" y="0">R</tspan><tspan x="13.22" y="0">TH JEOLL</tspan><tspan class="cls-12" x="41.23" y="0">A</tspan></text></g><g class="cls-6"><text class="cls-7" transform="translate(105.25 315.45)">SOUTH JEOLL<tspan class="cls-12" x="41.01" y="0">A</tspan></text></g><g class="cls-6"><text class="cls-7" transform="translate(113.52 192.62)">SOUTH</text><text class="cls-7" transform="translate(100.27 199.82)">CHUNGCHEONG</text></g><g class="cls-6"><text class="cls-7" transform="translate(121.96 63.22)">GYEONGGI</text></g><g class="cls-6"><text class="cls-7" transform="translate(91.87 435.94)">JEJU</text></g></g></g></g></svg>