<svg xmlns="http://www.w3.org/2000/svg" viewBox="0 0 12.41 21.91"><defs><style>.cls-1{fill:#fff;}</style></defs><title>Asset 1</title><g id="Layer_2" data-name="Layer 2"><g id="Layer_1-2" data-name="Layer 1"><path class="cls-1" d="M11,0H1.45A1.46,1.46,0,0,0,0,1.46v19a1.45,1.45,0,0,0,1.45,1.45H11a1.46,1.46,0,0,0,1.46-1.45v-19A1.47,1.47,0,0,0,11,0ZM4.08,1.09H8.33a.37.37,0,0,1,.36.37.36.36,0,0,1-.36.36H4.08a.36.36,0,0,1-.37-.36A.37.37,0,0,1,4.08,1.09ZM6.2,20.33a1,1,0,1,1,1-1A1,1,0,0,1,6.2,20.33Zm5-3.46H1.2V2.7h10Z"/></g></g></svg>