<svg xmlns="http://www.w3.org/2000/svg" viewBox="0 0 19.36 19.44"><defs><style>.cls-1{fill:#fff;}.cls-2{fill:#1d333d;}</style></defs><title>oa</title><g id="Layer_2" data-name="Layer 2"><g id="Layer_2-2" data-name="Layer 2"><rect class="cls-1" width="19.36" height="19.44" rx="5.47"/><path class="cls-2" d="M9.68.55l9.14,9.17L9.68,18.9.54,9.72,9.68.55m0-.55L0,9.72l9.68,9.72,9.68-9.72L9.68,0Z"/><path class="cls-2" d="M9.63,10.29A3.22,3.22,0,0,1,9,12.45a2.23,2.23,0,0,1-1.81.76,2.27,2.27,0,0,1-1.81-.76,3.17,3.17,0,0,1-.67-2.12V9.15a3.4,3.4,0,0,1,.66-2.22,2.2,2.2,0,0,1,1.81-.79A2.24,2.24,0,0,1,9,6.92a3.36,3.36,0,0,1,.67,2.2ZM8.24,9.14A2.82,2.82,0,0,0,8,7.75a.88.88,0,0,0-.82-.45.89.89,0,0,0-.81.44,2.57,2.57,0,0,0-.27,1.33v1.22a2.52,2.52,0,0,0,.27,1.33.88.88,0,0,0,.82.43A.9.9,0,0,0,8,11.63a2.61,2.61,0,0,0,.27-1.29Z"/><path class="cls-2" d="M13.21,11.71H11.33L11,13.12H9.49l2.15-6.89H12.9l2.16,6.89H13.58Zm-1.58-1.16h1.28L12.27,8.1Z"/></g></g></svg>