<svg xmlns="http://www.w3.org/2000/svg" viewBox="0 0 23.88 21.91"><defs><style>.cls-1{fill:#fff;}</style></defs><title>Asset 3</title><g id="Layer_2" data-name="Layer 2"><g id="Layer_1-2" data-name="Layer 1"><path class="cls-1" d="M23.88,1.72V16.23s0,.08,0,.12a2,2,0,0,1-.67,1.1,2.16,2.16,0,0,1-1.47.48H14.93a6,6,0,0,0,.4,2.11,1.27,1.27,0,0,0,.84.83c.13,0,.27,0,.39.07a.47.47,0,0,1,.33.6c-.08.26-.27.37-.65.37H7.64a.86.86,0,0,1-.23,0A.46.46,0,0,1,7,21.56c-.12-.34.11-.63.52-.66a1,1,0,0,0,.78-.44A4.83,4.83,0,0,0,9,17.93H2.2a2.42,2.42,0,0,1-.66-.06,2,2,0,0,1-1.54-2v-14A2,2,0,0,1,1.74,0c.68,0,1.36,0,2,0H21.72a2.17,2.17,0,0,1,1.5.52A2.3,2.3,0,0,1,23.88,1.72ZM2,13.93H21.86V2H2Zm8.94,2a1,1,0,1,0,2,0,1,1,0,1,0-2,0Z"/></g></g></svg>