<svg xmlns="http://www.w3.org/2000/svg" viewBox="0 0 18.92 28.19"><defs><style>.cls-1{fill:#fff;fill-rule:evenodd;}</style></defs><title>Asset 11</title><g id="Layer_2" data-name="Layer 2"><g id="Layer_1-2" data-name="Layer 1"><path class="cls-1" d="M17.41,0H1.51A1.51,1.51,0,0,0,0,1.51V26.68a1.5,1.5,0,0,0,1.51,1.51h15.9a1.51,1.51,0,0,0,1.51-1.51V1.51A1.52,1.52,0,0,0,17.41,0ZM6.73,17.14a3.35,3.35,0,0,0,2-.65C9,19,5.46,19.33,5.62,19.22v.86H13.3v-.86c.13.08-3.33-.19-3.06-2.73a3.45,3.45,0,0,0,1.95.65,3.16,3.16,0,0,0,3.27-3,3.11,3.11,0,0,0-2.73-3v0a3.15,3.15,0,0,0-3.27-3,3.15,3.15,0,0,0-3.27,3v0a3.11,3.11,0,0,0-2.73,3,3.16,3.16,0,0,0,3.27,3Z"/></g></g></svg>