<?xml version="1.0" encoding="UTF-8"?><svg id="Layer_2" xmlns="http://www.w3.org/2000/svg" viewBox="0 0 18.92 28.19"><defs><style>.cls-1{fill-rule:evenodd;}</style></defs><g id="Layer_1-2"><g id="Layer_2-2"><g id="Layer_1-2"><path class="cls-1" d="M17.41,0H1.51C.68,0,0,.68,0,1.51h0V26.68c0,.83,.66,1.5,1.49,1.51,0,0,.01,0,.02,0h15.9c.83,0,1.51-.68,1.51-1.51h0V1.51c0-.83-.68-1.5-1.51-1.51ZM6.73,17.14c.72,0,1.42-.22,2-.65,.27,2.51-3.27,2.84-3.11,2.73v.86h7.68v-.86c.13,.08-3.33-.19-3.06-2.73,.57,.41,1.25,.64,1.95,.65,1.73,.06,3.18-1.27,3.27-3-.04-1.54-1.2-2.81-2.73-3h0c-.08-1.73-1.54-3.07-3.27-3-1.73-.07-3.19,1.27-3.27,3h0c-1.53,.19-2.69,1.46-2.73,3,.09,1.73,1.54,3.06,3.27,3Z"/></g></g></g></svg>