<svg xmlns="http://www.w3.org/2000/svg" viewBox="0 0 19.36 19.44"><defs><style>.cls-1{fill:#fff;}.cls-2{fill:#1d333d;}</style></defs><title>ps</title><g id="Layer_2" data-name="Layer 2"><g id="Layer_2-2" data-name="Layer 2"><rect class="cls-1" width="19.36" height="19.44" rx="5.47"/><path class="cls-2" d="M9.68.55l9.13,9.17L9.68,18.9.54,9.72,9.68.55m0-.55L0,9.72l9.68,9.72,9.68-9.72L9.68,0Z"/><path class="cls-2" d="M6.87,10.7v2.42H5.48V6.23H7.82a2.1,2.1,0,0,1,1.62.64A2.29,2.29,0,0,1,10,8.51a2.12,2.12,0,0,1-.59,1.6,2.27,2.27,0,0,1-1.66.59Zm0-1.16h1a.76.76,0,0,0,.61-.26,1.21,1.21,0,0,0,.22-.76,1.42,1.42,0,0,0-.22-.82.72.72,0,0,0-.6-.31h-1Z"/><path class="cls-2" d="M12.58,11.75a.43.43,0,0,0-.17-.32,2.61,2.61,0,0,0-.72-.39,3,3,0,0,1-1.13-.69,1.31,1.31,0,0,1-.31-.9,1.45,1.45,0,0,1,.48-1.11A1.85,1.85,0,0,1,12,7.91a2,2,0,0,1,1.34.43,1.46,1.46,0,0,1,.51,1.17H12.53c0-.42-.18-.63-.52-.63a.48.48,0,0,0-.35.14.5.5,0,0,0-.14.37.4.4,0,0,0,.15.3,3.71,3.71,0,0,0,.71.37,2.8,2.8,0,0,1,1.15.67,1.36,1.36,0,0,1,.34,1,1.33,1.33,0,0,1-.51,1.1,2.06,2.06,0,0,1-1.35.42A2.12,2.12,0,0,1,11,13a1.72,1.72,0,0,1-.67-.61,1.58,1.58,0,0,1-.24-.85h1.27a.8.8,0,0,0,.16.53.66.66,0,0,0,.5.17Q12.58,12.23,12.58,11.75Z"/></g></g></svg>