<svg xmlns="http://www.w3.org/2000/svg" viewBox="0 0 16.02 21.91"><defs><style>.cls-1{fill:#fff;}</style></defs><title>Asset 2</title><g id="Layer_2" data-name="Layer 2"><g id="Layer_1-2" data-name="Layer 1"><path class="cls-1" d="M.78,21.91l-.2-.1A1,1,0,0,1,0,20.9V17.76C0,12.23,0,6.69,0,1.16A1.11,1.11,0,0,1,1.17,0Q8,0,14.88,0A1.1,1.1,0,0,1,16,1.14q0,9.72,0,19.44a1.21,1.21,0,0,1-.78,1.33ZM15.23,9.61V1.35c0-.49-.1-.59-.59-.59H1.15a.34.34,0,0,0-.34.28,1.51,1.51,0,0,0,0,.3V17.84c0,.48.11.59.59.59H14.64c.48,0,.59-.11.59-.59ZM8,21.36A1.16,1.16,0,1,0,8,19a1.18,1.18,0,0,0-1.17,1.17A1.17,1.17,0,0,0,8,21.36Z"/><path class="cls-1" d="M14.43,1.56V17.62H1.6V1.56Z"/><path class="cls-1" d="M8.4,20.21a.39.39,0,0,1-.78,0,.39.39,0,0,1,.4-.36A.4.4,0,0,1,8.4,20.21Z"/></g></g></svg>