<?xml version="1.0" encoding="UTF-8"?><svg id="Layer_2" xmlns="http://www.w3.org/2000/svg" viewBox="0 0 47.24 47.24"><defs><style>.cls-1{fill:#fff;}</style></defs><g id="Layer_1-2"><circle cx="23.62" cy="23.62" r="23.62"/><path class="cls-1" d="m40.54,26.96c-.12-.53-.18-1.08-.35-1.6-.71-2.1-2.11-3.66-3.99-4.77-2.47-1.46-5.15-1.9-7.96-1.44-2.53.41-4.7,1.51-6.42,3.46-2.33,2.63-2.67,6.33-.76,9.28,1.9,2.93,4.75,4.27,8.13,4.63,1.6.17,3.17-.09,4.72-.49.14-.04.33-.03.45.03.77.38,1.52.78,2.28,1.18.29.15.57.3.9.48-.03-.11-.04-.16-.06-.2-.27-.85-.54-1.7-.82-2.54-.06-.17-.05-.27.11-.37.21-.14.41-.31.61-.47,1.41-1.15,2.45-2.56,2.94-4.33.13-.46.19-.93.28-1.39v-1.27c-.02-.06-.04-.11-.05-.17Zm-13.48-.64c-.77,0-1.39-.62-1.39-1.39s.62-1.39,1.39-1.39,1.39.62,1.39,1.39-.62,1.39-1.39,1.39Zm6.78,0c-.77,0-1.39-.62-1.39-1.39s.62-1.39,1.39-1.39,1.39.62,1.39,1.39-.62,1.39-1.39,1.39Z"/><path class="cls-1" d="m19.36,25.95c.52-2.31,1.87-4.07,3.76-5.43,2.27-1.62,4.83-2.26,7.6-2.2.17,0,.35,0,.53,0,0-.04,0-.07,0-.09-.06-.23-.11-.46-.18-.69-.95-2.99-2.94-5.11-5.68-6.5-3.36-1.7-6.9-1.94-10.51-.87-2.84.85-5.16,2.44-6.77,4.97-1.21,1.91-1.7,4-1.35,6.25.33,2.18,1.36,4.01,2.94,5.53.56.54,1.19,1.02,1.8,1.55-.38,1.14-.78,2.32-1.19,3.56.19-.1.3-.15.41-.21,1.15-.61,2.31-1.22,3.46-1.85.2-.11.37-.13.59-.06,1.37.42,2.77.62,4.2.65.21,0,.41,0,.65,0-.05-.16-.08-.27-.11-.38-.41-1.4-.47-2.82-.15-4.24Zm3.92-11.33c.96,0,1.75.78,1.75,1.75s-.78,1.75-1.75,1.75-1.75-.78-1.75-1.75.78-1.75,1.75-1.75Zm-8.5,3.49c-.96,0-1.75-.78-1.75-1.75s.78-1.75,1.75-1.75,1.75.78,1.75,1.75-.78,1.75-1.75,1.75Z"/></g></svg>