<svg xmlns="http://www.w3.org/2000/svg" viewBox="0 0 19.36 19.44"><defs><style>.cls-1{fill:#fff;}.cls-2{fill:#1d333d;}</style></defs><title>xd</title><g id="Layer_2" data-name="Layer 2"><g id="Layer_2-2" data-name="Layer 2"><rect class="cls-1" width="19.36" height="19.44" rx="5.47"/><path class="cls-2" d="M9.68.55l9.14,9.17L9.68,18.9.54,9.72,9.68.55m0-.55L0,9.72l9.68,9.72,9.68-9.72L9.68,0Z"/><path class="cls-2" d="M7.63,8.6l.92-2.37h1.59L8.53,9.65l1.65,3.47H8.57l-.94-2.41L6.7,13.12H5.09L6.74,9.65,5.12,6.23H6.71Z"/><path class="cls-2" d="M10.06,10.4a3.34,3.34,0,0,1,.42-1.87,1.38,1.38,0,0,1,1.23-.62,1.18,1.18,0,0,1,1,.51V5.85H14v7.27H12.82l-.06-.52a1.21,1.21,0,0,1-1,.61,1.39,1.39,0,0,1-1.22-.61,3.22,3.22,0,0,1-.43-1.81Zm1.33.34a2.59,2.59,0,0,0,.16,1.06.57.57,0,0,0,.54.3.64.64,0,0,0,.6-.36V9.4A.63.63,0,0,0,12.1,9a.59.59,0,0,0-.54.29,2.4,2.4,0,0,0-.17,1.06Z"/></g></g></svg>